<svg width="226" height="172" viewBox="0 0 226 172" fill="none" xmlns="http://www.w3.org/2000/svg">
<path d="M223.598 157.916L173.169 91.7633C170.155 87.8108 165.474 85.4934 160.505 85.4934H65.4903C60.5211 85.4934 55.8405 87.8108 52.8269 91.7633L2.40201 157.916C-1.839 163.48 2.12721 171.495 9.12532 171.495H216.875C223.873 171.491 227.839 163.476 223.598 157.916Z" fill="url(#paint0_linear)"/>
<path d="M5.24147 158.053C3.90871 158.053 2.67214 158.447 1.6325 159.12C-1.26201 164.566 2.62176 171.491 9.12524 171.491H216.875C223.378 171.491 227.262 164.566 224.368 159.12C223.328 158.447 222.091 158.053 220.759 158.053H5.24147Z" fill="#C9CDD3"/>
<path d="M91.3531 119.513L127.434 158.053H112.686L80.7551 124.153L91.3531 119.513Z" fill="white"/>
<path d="M166.409 86.6384C164.554 85.8965 162.557 85.498 160.51 85.498H142.181L15.2121 141.112L2.40206 157.916C2.20512 158.177 2.03109 158.442 1.86621 158.708L166.409 86.6384Z" fill="#FEE379"/>
<path d="M1.87061 158.708L80.7551 124.152L112.686 158.053L1.87061 158.708Z" fill="#86ADFF"/>
<path d="M15.2119 141.112L142.181 85.498H65.4902C60.521 85.498 55.8404 87.8155 52.8268 91.7679L15.2119 141.112Z" fill="#69CA9F"/>
<path d="M191.172 115.382L187.275 110.271L163.532 120.649L141.787 97.4195L131.331 101.999L153.067 125.22L112.998 142.733L117.587 147.538L157.592 130.056L183.803 158.053H198.546L168.057 125.481L191.172 115.382Z" fill="#C9CDD3"/>
<path opacity="0.3" d="M175.372 94.6532L173.169 91.7633C170.155 87.8108 165.474 85.4934 160.505 85.4934H112.998V121.821L175.372 94.6532Z" fill="url(#paint1_linear)"/>
<path d="M107.571 1.16802C89.425 3.59538 75.5525 18.1366 73.8625 36.3647C72.6992 48.9045 77.4348 60.3634 85.6145 68.305C88.7655 71.3644 91.6921 74.6299 94.3759 78.074C101.992 87.8429 107.209 99.2652 109.906 111.352L112.077 121.079C112.173 121.514 112.558 121.821 113.002 121.821C113.447 121.821 113.831 121.514 113.928 121.079L116.231 110.738C118.851 98.9859 123.875 87.8704 131.231 78.3396C133.855 74.9413 136.731 71.74 139.877 68.7951C147.53 61.6275 152.316 51.4326 152.316 40.1156C152.312 16.6161 131.702 -2.0654 107.571 1.16802Z" fill="url(#paint2_linear)"/>
<path d="M121.616 51.8264C126.375 47.0671 126.375 39.3507 121.616 34.5913C116.856 29.832 109.14 29.832 104.38 34.5913C99.6211 39.3507 99.6211 47.0671 104.38 51.8264C109.14 56.5857 116.856 56.5857 121.616 51.8264Z" fill="white"/>
<defs>
<linearGradient id="paint0_linear" x1="18.1891" y1="71.9984" x2="180.413" y2="206.843" gradientUnits="userSpaceOnUse">
<stop stop-color="#F6F8FF"/>
<stop offset="1" stop-color="#DEE0ED"/>
</linearGradient>
<linearGradient id="paint1_linear" x1="187.4" y1="63.7068" x2="105.492" y2="113.685" gradientUnits="userSpaceOnUse">
<stop/>
<stop offset="1"/>
</linearGradient>
<linearGradient id="paint2_linear" x1="124.243" y1="82.582" x2="95.4981" y2="-14.1702" gradientUnits="userSpaceOnUse">
<stop stop-color="#5565EE"/>
<stop offset="0.3091" stop-color="#5F75FF"/>
<stop offset="0.5137" stop-color="#6E89FA"/>
<stop offset="0.7638" stop-color="#6E89FA"/>
<stop offset="1" stop-color="#7D99FD"/>
</linearGradient>
</defs>
</svg>
