<svg width="21" height="18" viewBox="0 0 21 18" fill="none" xmlns="http://www.w3.org/2000/svg">
<path d="M3.30303 8.09226L10.4751 15.2643L17.6472 8.09226C18.2813 7.45815 18.6376 6.59813 18.6376 5.70137C18.6376 4.80462 18.2813 3.94459 17.6472 3.31049C17.3332 2.99651 16.9605 2.74745 16.5503 2.57753C16.14 2.40761 15.7004 2.32015 15.2563 2.32015C14.3596 2.32015 13.4995 2.67639 12.8654 3.31049L10.4751 5.70081L8.0848 3.31161C7.44908 2.68602 6.59192 2.33697 5.70002 2.3405C4.80811 2.34402 3.95373 2.69984 3.32298 3.33044C2.69223 3.96104 2.33621 4.81534 2.33248 5.70724C2.32874 6.59914 2.67759 7.45639 3.30303 8.09226ZM9.67835 1.71581L10.4751 2.51259L11.2719 1.71581C11.7943 1.1888 12.4157 0.77017 13.1003 0.483945C13.7849 0.19772 14.5194 0.049542 15.2614 0.047917C16.0035 0.0462921 16.7386 0.191253 17.4245 0.474476C18.1103 0.7577 18.7335 1.17361 19.2582 1.69833C19.783 2.22304 20.1989 2.84623 20.4821 3.53212C20.7653 4.218 20.9103 4.95307 20.9087 5.69513C20.907 6.43719 20.7589 7.17162 20.4726 7.85626C20.1864 8.5409 19.7678 9.16226 19.2408 9.68468L11.273 17.6535C11.1684 17.7583 11.0441 17.8414 10.9073 17.8982C10.7704 17.9549 10.6238 17.9841 10.4757 17.9841C10.3276 17.9841 10.1809 17.9549 10.0441 17.8982C9.90731 17.8414 9.78302 17.7583 9.67835 17.6535L1.70948 9.6858C1.17531 9.16507 0.749847 8.54345 0.457782 7.85701C0.165716 7.17057 0.0128604 6.43296 0.00808076 5.68699C0.00330114 4.94101 0.146693 4.20151 0.429939 3.51138C0.713184 2.82125 1.13065 2.19423 1.65811 1.66669C2.18556 1.13916 2.81252 0.721611 3.50261 0.438267C4.1927 0.154924 4.93218 0.0114277 5.67816 0.0161018C6.42414 0.0207759 7.16177 0.173528 7.84825 0.465496C8.53474 0.757465 9.15641 1.18284 9.67722 1.71694L9.67835 1.71581Z" fill="#181725"/>
</svg>
