<svg width="32" height="30" viewBox="0 0 32 30" fill="none" xmlns="http://www.w3.org/2000/svg">
<path d="M5.10138 13.3747L16.0256 25.0115L26.9498 13.3747C27.9156 12.3459 28.4582 10.9505 28.4582 9.49553C28.4582 8.04054 27.9156 6.64515 26.9498 5.61632C26.4716 5.10689 25.9038 4.7028 25.279 4.4271C24.6541 4.1514 23.9844 4.0095 23.3081 4.0095C21.9422 4.0095 20.6323 4.58749 19.6664 5.61632L16.0256 9.49462L12.3848 5.61815C11.4165 4.60312 10.1109 4.03679 8.75236 4.04251C7.39385 4.04823 6.09249 4.62554 5.13176 5.64869C4.17103 6.67184 3.62876 8.05794 3.62307 9.50505C3.61738 10.9522 4.14873 12.3431 5.10138 13.3747ZM14.812 3.02896L16.0256 4.32172L17.2392 3.02896C18.0349 2.17389 18.9813 1.49465 20.0242 1.03025C21.067 0.565852 22.1856 0.325432 23.3159 0.322796C24.4462 0.320159 25.5658 0.555358 26.6105 1.01489C27.6552 1.47442 28.6044 2.14923 29.4037 3.00058C30.2029 3.85194 30.8364 4.86306 31.2678 5.97591C31.6992 7.08876 31.92 8.28142 31.9175 9.48541C31.915 10.6894 31.6893 11.881 31.2534 12.9918C30.8174 14.1027 30.1797 15.1108 29.377 15.9584L17.2409 28.8879C17.0815 29.0579 16.8922 29.1928 16.6838 29.2848C16.4754 29.3769 16.252 29.4242 16.0264 29.4242C15.8009 29.4242 15.5775 29.3769 15.3691 29.2848C15.1607 29.1928 14.9714 29.0579 14.812 28.8879L2.67415 15.9603C1.86052 15.1154 1.21248 14.1068 0.767615 12.9931C0.322754 11.8793 0.08993 10.6825 0.0826499 9.47219C0.0753698 8.26184 0.293778 7.062 0.725205 5.94226C1.15663 4.82253 1.79249 3.80519 2.59589 2.94926C3.3993 2.09334 4.35426 1.41586 5.40537 0.95614C6.45648 0.496415 7.58283 0.263592 8.71907 0.271176C9.85531 0.278759 10.9788 0.526599 12.0245 1.00032C13.0701 1.47404 14.017 2.16421 14.8103 3.03079L14.812 3.02896Z" fill="white"/>
</svg>
