<svg width="15" height="21" viewBox="0 0 15 21" fill="none" xmlns="http://www.w3.org/2000/svg">
<path d="M5.58725 9.21831C6.12416 9.71127 6.76174 9.95775 7.5 9.95775C8.23825 9.95775 8.85906 9.71127 9.36242 9.21831C9.89933 8.69249 10.1678 8.06807 10.1678 7.34507C10.1678 6.62207 9.89933 6.01408 9.36242 5.52113C8.85906 4.99531 8.23825 4.73239 7.5 4.73239C6.76174 4.73239 6.12416 4.99531 5.58725 5.52113C5.08389 6.01408 4.83221 6.62207 4.83221 7.34507C4.83221 8.06807 5.08389 8.69249 5.58725 9.21831ZM2.16443 2.16901C3.64094 0.723005 5.41946 0 7.5 0C9.58054 0 11.3423 0.723005 12.7852 2.16901C14.2617 3.58216 15 5.30751 15 7.34507C15 8.36385 14.7315 9.53052 14.1946 10.8451C13.6913 12.1596 13.0705 13.392 12.3322 14.5423C11.594 15.6925 10.8557 16.777 10.1174 17.7958C9.41275 18.7817 8.80872 19.5704 8.30537 20.162L7.5 21C7.29866 20.77 7.0302 20.4742 6.69463 20.1127C6.35906 19.7183 5.75503 18.9624 4.88255 17.8451C4.01007 16.6948 3.23826 15.5939 2.56711 14.5423C1.92953 13.4577 1.34228 12.2418 0.805369 10.8944C0.268456 9.54695 0 8.36385 0 7.34507C0 5.30751 0.721476 3.58216 2.16443 2.16901Z" fill="#53B175"/>
</svg>
