<svg width="26" height="30" viewBox="0 0 26 30" fill="none" xmlns="http://www.w3.org/2000/svg">
<path d="M6.6133 15.0983C6.83984 15.0212 7.08347 14.9811 7.32978 14.9804C7.57609 14.9797 7.82007 15.0184 8.04731 15.0942C8.27456 15.17 8.48044 15.2814 8.6528 15.4218C8.82516 15.5622 8.96049 15.7287 9.0508 15.9116C9.14111 16.0944 9.18455 16.2899 9.17858 16.4864C9.1726 16.6828 9.11731 16.8764 9.01599 17.0555C8.91467 17.2346 8.76937 17.3957 8.58867 17.5293C8.40798 17.6628 8.19556 17.7661 7.96398 17.8331C6.73222 18.2203 5.67506 18.8944 4.93002 19.7676C4.18499 20.6408 3.78658 21.6728 3.78663 22.7291V25.2875C3.78663 25.6774 3.98077 26.0514 4.32634 26.3271C4.67191 26.6028 5.1406 26.7577 5.62931 26.7577H20.3707C20.8594 26.7577 21.3281 26.6028 21.6737 26.3271C22.0192 26.0514 22.2134 25.6774 22.2134 25.2875V22.8659C22.2136 21.7756 21.7985 20.7111 21.0232 19.8133C20.2479 18.9156 19.1489 18.227 17.872 17.839C17.639 17.7744 17.4246 17.6732 17.2415 17.5414C17.0584 17.4095 16.9103 17.2496 16.8061 17.0713C16.7019 16.8929 16.6436 16.6996 16.6347 16.503C16.6258 16.3063 16.6664 16.1102 16.7543 15.9263C16.8421 15.7424 16.9754 15.5744 17.1461 15.4323C17.3168 15.2903 17.5215 15.177 17.7481 15.0992C17.9747 15.0215 18.2185 14.9808 18.4652 14.9797C18.7118 14.9785 18.9563 15.0168 19.184 15.0924C21.1586 15.6926 22.8581 16.7573 24.0572 18.1455C25.2564 19.5337 25.8986 21.1799 25.8987 22.8659V25.2875C25.8987 26.4573 25.3163 27.5792 24.2796 28.4064C23.2429 29.2336 21.8368 29.6983 20.3707 29.6983H5.62931C4.16319 29.6983 2.75711 29.2336 1.72041 28.4064C0.683703 27.5792 0.101288 26.4573 0.101288 25.2875L0.101288 22.7291C0.101541 21.0826 0.722779 19.4743 1.88419 18.1134C3.04559 16.7524 4.69342 15.7019 6.6133 15.0983ZM13 0.29248C14.9548 0.29248 16.8296 0.912102 18.2119 2.01504C19.5941 3.11797 20.3707 4.61387 20.3707 6.17365V9.11424C20.3707 10.674 19.5941 12.1699 18.2119 13.2729C16.8296 14.3758 14.9548 14.9954 13 14.9954C11.0452 14.9954 9.17041 14.3758 7.78813 13.2729C6.40586 12.1699 5.62931 10.674 5.62931 9.11424V6.17365C5.62931 4.61387 6.40586 3.11797 7.78813 2.01504C9.17041 0.912102 11.0452 0.29248 13 0.29248ZM13 3.23307C12.0226 3.23307 11.0852 3.54288 10.3941 4.09434C9.70293 4.64581 9.31466 5.39376 9.31466 6.17365V9.11424C9.31466 9.89413 9.70293 10.6421 10.3941 11.1935C11.0852 11.745 12.0226 12.0548 13 12.0548C13.9774 12.0548 14.9148 11.745 15.6059 11.1935C16.2971 10.6421 16.6853 9.89413 16.6853 9.11424V6.17365C16.6853 5.39376 16.2971 4.64581 15.6059 4.09434C14.9148 3.54288 13.9774 3.23307 13 3.23307Z" fill="white"/>
</svg>
