<svg width="52" height="30" viewBox="0 0 52 30" fill="none" xmlns="http://www.w3.org/2000/svg">
<path d="M33.1652 22.5759C34.5873 22.5759 35.9955 22.3257 37.3093 21.8394C38.6232 21.3532 39.817 20.6406 40.8226 19.7422C41.8282 18.8437 42.6259 17.7772 43.1701 16.6033C43.7143 15.4295 43.9944 14.1714 43.9944 12.9009C43.9944 11.6303 43.7143 10.3722 43.1701 9.19839C42.6259 8.02456 41.8282 6.95799 40.8226 6.05958C39.817 5.16117 38.6232 4.44851 37.3093 3.96229C35.9955 3.47608 34.5873 3.22582 33.1652 3.22582C30.2931 3.22582 27.5386 4.24516 25.5077 6.05958C23.4768 7.874 22.3359 10.3349 22.3359 12.9009C22.3359 15.4668 23.4768 17.9277 25.5077 19.7422C27.5386 21.5566 30.2931 22.5759 33.1652 22.5759ZM44.572 20.8118L51.0334 26.5846C51.2057 26.7335 51.3431 26.9115 51.4375 27.1083C51.5319 27.3051 51.5815 27.5167 51.5835 27.7308C51.5854 27.9449 51.5395 28.1572 51.4486 28.3553C51.3577 28.5534 51.2236 28.7334 51.054 28.8847C50.8844 29.036 50.6828 29.1556 50.4609 29.2365C50.239 29.3174 50.0013 29.3581 49.7617 29.3561C49.522 29.3541 49.2852 29.3094 49.0651 29.2248C48.845 29.1401 48.6459 29.0172 48.4795 28.8631L42.0181 23.0903C39.1167 25.1025 35.466 26.0511 31.8092 25.7432C28.1525 25.4352 24.7645 23.8938 22.3351 21.4327C19.9056 18.9716 18.6173 15.7759 18.7323 12.496C18.8474 9.21613 20.3571 6.0987 22.9543 3.77834C25.5515 1.45798 29.0408 0.109118 32.712 0.00633557C36.3832 -0.0964473 39.9602 1.05458 42.7149 3.2251C45.4696 5.39562 47.1949 8.42247 47.5396 11.6895C47.8842 14.9565 46.8224 18.218 44.5702 20.8102L44.572 20.8118Z" fill="white"/>
<rect x="0.416473" width="15.9822" height="3.86877" rx="1.93439" fill="white"/>
<rect x="0.416473" y="11.9941" width="11.667" height="3.86877" rx="1.93439" fill="white"/>
<rect x="0.416473" y="23.989" width="15.9822" height="3.86877" rx="1.93439" fill="white"/>
</svg>
