<svg width="36" height="37" viewBox="0 0 36 37" fill="none" xmlns="http://www.w3.org/2000/svg">
<path d="M13.6989 14.2612C14.4833 14.9766 15.5223 15.4118 16.6589 15.4118H19.6189C20.7114 15.4134 21.7657 15.0035 22.5789 14.2612H13.6989ZM13.6989 14.2612C12.8857 15.0035 11.8314 15.4134 10.7389 15.4118L13.6989 14.2612ZM12.2689 6.37578V6.32578H12.2189H7.77895C7.37288 6.32578 6.98363 6.48994 6.69677 6.78184C6.40994 7.07371 6.24895 7.46939 6.24895 7.88179V10.8938C6.24895 11.3062 6.40994 11.7019 6.69677 11.9938C6.98363 12.2857 7.37288 12.4498 7.77895 12.4498H10.7389C11.145 12.4498 11.5343 12.2857 11.8211 11.9938C12.108 11.7019 12.2689 11.3062 12.2689 10.8938V6.37578ZM7.79375 15.3618H7.74375V15.4118V30.4192V30.4692H7.79375H10.7389H10.7889V30.4192V22.9419C10.7889 22.156 11.0957 21.4025 11.6416 20.8471C12.1874 20.2917 12.9275 19.9798 13.6989 19.9798H16.6589C17.4304 19.9798 18.1705 20.2917 18.7163 20.8471C19.2621 21.4025 19.5689 22.156 19.5689 22.9419V30.4192V30.4692H19.6189H28.5182H28.5682V30.4192V15.4118V15.3618H28.5182H25.5389C24.4153 15.3618 23.3882 14.9316 22.6126 14.2243L22.5789 14.1936L22.5452 14.2243C21.7412 14.9582 20.6988 15.3633 19.619 15.3618H19.6189H16.6589C15.5353 15.3618 14.5082 14.9316 13.7326 14.2243L13.6989 14.1936L13.6652 14.2243C12.8612 14.9582 11.8188 15.3633 10.739 15.3618H10.7389H7.79375ZM4.83181 14.2069C4.38289 13.794 4.02276 13.2906 3.77436 12.7285C3.51947 12.1518 3.38808 11.5264 3.38895 10.8939V10.8938V7.88179C3.38895 6.69652 3.85167 5.55997 4.67506 4.72211C5.49841 3.88429 6.61493 3.41377 7.77895 3.41377H28.4989C29.663 3.41377 30.7795 3.88429 31.6028 4.72211C32.4262 5.55997 32.8889 6.69652 32.8889 7.88179V10.8938C32.8889 12.2077 32.3327 13.3903 31.4443 14.2079L31.4282 14.2227V14.2447V30.4192C31.4282 31.205 31.1214 31.9585 30.5756 32.514C30.0298 33.0694 29.2897 33.3812 28.5182 33.3812H17.211V33.3803L17.2015 33.3821C17.0226 33.4165 16.841 33.4339 16.6589 33.4339H13.6989C13.5169 33.4339 13.3352 33.4165 13.1564 33.3821L13.1565 33.3812H13.1469H7.79523C7.02373 33.3812 6.28365 33.0694 5.73785 32.514C5.19202 31.9585 4.88523 31.205 4.88523 30.4192V14.2748V14.1526L4.83181 14.2069ZM16.7089 22.9419V22.8919H16.6589H13.6989H13.6489V22.9419V30.4192V30.4692H13.6989H16.6589V30.4207H16.7089V30.4192V30.3692V22.9419ZM21.1489 6.37578V6.32578H21.0989H15.1789H15.1289V6.37578V10.8938C15.1289 11.3062 15.2899 11.7019 15.5768 11.9938C15.8636 12.2857 16.2529 12.4498 16.6589 12.4498H19.6189C20.025 12.4498 20.4143 12.2857 20.7011 11.9938C20.988 11.7019 21.1489 11.3062 21.1489 10.8938V6.37578ZM24.0589 6.32578H24.0089V6.37578V10.8938C24.0089 11.3062 24.1699 11.7019 24.4568 11.9938C24.7436 12.2857 25.1329 12.4498 25.5389 12.4498H28.4989C28.905 12.4498 29.2943 12.2857 29.5811 11.9938C29.868 11.7019 30.0289 11.3062 30.0289 10.8938V7.88179C30.0289 7.46939 29.868 7.07371 29.5811 6.78184C29.2943 6.48994 28.905 6.32578 28.4989 6.32578H24.0589ZM24.0589 19.9798H25.5389C25.9179 19.9798 26.2816 20.133 26.5498 20.406C26.8181 20.679 26.9689 21.0494 26.9689 21.4359V25.9539C26.9689 26.3403 26.8181 26.7108 26.5498 26.9837C26.2816 27.2567 25.9179 27.4099 25.5389 27.4099H24.0589C23.68 27.4099 23.3163 27.2567 23.0481 26.9837C22.7798 26.7108 22.6289 26.3403 22.6289 25.9539V21.4359C22.6289 21.0494 22.7798 20.679 23.0481 20.406C23.3163 20.133 23.68 19.9798 24.0589 19.9798Z" fill="white" stroke="white" stroke-width="0.1"/>
</svg>
