<svg width="11" height="19" viewBox="0 0 11 19" fill="none" xmlns="http://www.w3.org/2000/svg">
<path d="M0.904173 2.50971C0.669493 2.25256 0.539115 1.91422 0.552153 1.56234C0.552153 1.21046 0.682531 0.885646 0.93025 0.628503C1.16493 0.384895 1.49087 0.236022 1.82986 0.236022C2.16884 0.236022 2.49479 0.357827 2.74251 0.601436L10.1219 8.26159C10.2392 8.38339 10.3305 8.53226 10.3957 8.69467C10.4609 8.85708 10.5 9.03302 10.5 9.20896C10.5 9.3849 10.4609 9.56083 10.3957 9.73677C10.3305 9.89918 10.2392 10.0481 10.1219 10.1699L2.7425 17.83C2.62516 17.9518 2.48175 18.0601 2.32529 18.1278C2.1558 18.1954 1.98631 18.236 1.81682 18.236C1.64733 18.236 1.4648 18.209 1.30834 18.1413C1.15189 18.0736 1.00847 17.9653 0.878097 17.8435C0.760757 17.7217 0.669492 17.5593 0.604302 17.3969C0.526075 17.2345 0.5 17.0586 0.5 16.8691C0.5 16.6932 0.539114 16.5172 0.604303 16.3548C0.669492 16.1924 0.773794 16.0435 0.904172 15.9082L7.35789 9.20896L6.13234 7.95031L0.904173 2.50971Z" fill="#FFF9FF"/>
</svg>
