<svg width="11" height="19" viewBox="0 0 11 19" fill="none" xmlns="http://www.w3.org/2000/svg">
<path d="M9.60352 16.5601C9.8382 16.8172 9.96858 17.1555 9.95554 17.5074C9.95554 17.8593 9.82516 18.1841 9.57744 18.4413C9.34276 18.6849 9.01682 18.8337 8.67783 18.8337C8.33885 18.8337 8.01291 18.7119 7.76519 18.4683L0.385787 10.8082C0.268447 10.6864 0.177182 10.5375 0.111993 10.3751C0.0468039 10.2127 0.00769043 10.0367 0.00769043 9.86081C0.00769043 9.68487 0.0468039 9.50893 0.111993 9.33299C0.177182 9.17058 0.268447 9.02171 0.385787 8.89991L7.76519 1.23976C7.88253 1.11795 8.02594 1.00968 8.1824 0.942011C8.35189 0.874342 8.52138 0.83374 8.69087 0.83374C8.86036 0.83374 9.04289 0.860808 9.19935 0.928477C9.3558 0.996146 9.49922 1.10442 9.62959 1.22622C9.74693 1.34803 9.8382 1.51043 9.90339 1.67284C9.98162 1.83524 10.0077 2.01118 10.0077 2.20066C10.0077 2.3766 9.96858 2.55254 9.90339 2.71494C9.8382 2.87735 9.7339 3.02622 9.60352 3.16156L3.1498 9.86081L4.37536 11.1195L9.60352 16.5601Z" fill="#181725"/>
</svg>
