<svg width="10" height="14" viewBox="0 0 10 14" fill="none" xmlns="http://www.w3.org/2000/svg">
<path d="M1.19097 1.76842C0.993837 1.56842 0.884319 1.30526 0.895271 1.03158C0.895272 0.757894 1.00479 0.505262 1.21287 0.305262C1.41 0.115788 1.6838 -1.61526e-06 1.96854 -1.59037e-06C2.25329 -1.56547e-06 2.52708 0.0947365 2.73517 0.28421L8.93386 6.2421C9.03243 6.33684 9.10909 6.45263 9.16385 6.57895C9.21861 6.70526 9.25147 6.8421 9.25147 6.97895C9.25147 7.11579 9.21861 7.25263 9.16385 7.38947C9.10909 7.51579 9.03243 7.63158 8.93386 7.72632L2.73517 13.6842C2.6366 13.7789 2.51613 13.8632 2.38471 13.9158C2.24234 13.9684 2.09996 14 1.95759 14C1.81522 14 1.66189 13.9789 1.53047 13.9263C1.39905 13.8737 1.27858 13.7895 1.16906 13.6947C1.0705 13.6 0.993836 13.4737 0.939077 13.3474C0.873366 13.2211 0.851463 13.0842 0.851463 12.9368C0.851463 12.8 0.884318 12.6632 0.939078 12.5368C0.993837 12.4105 1.08145 12.2947 1.19097 12.1895L6.61209 6.97895L5.58263 6L1.19097 1.76842Z" fill="#181725"/>
</svg>
