<svg width="152" height="64" viewBox="0 0 152 64" fill="none" xmlns="http://www.w3.org/2000/svg">
<path d="M18.2592 48.3471L4.77293 45.7438L2.08583 41.9264V36.0252L5.81728 32.558C4.65944 29.498 4.19478 26.2192 4.4568 22.958C4.89148 21.7382 8.10357 19.9198 8.10357 19.9198L14.3584 10.3198L12.4503 6.50242C25.0436 4.85704 37.7372 4.10223 50.4366 4.2436C74.1125 4.2436 83.7431 6.58712 85.5608 7.36642C87.3786 8.14571 105.421 19.7899 106.634 20.637C109.499 21.9726 112.586 22.7671 115.74 22.9805C119.127 23.2403 142.148 24.9344 145.354 28.9269C147.125 31.0788 148.72 33.3694 150.125 35.7768C150.125 35.7768 151.688 44.8121 147.262 48.3584C142.992 50.0285 138.476 50.9824 133.895 51.182" fill="white"/>
<path d="M133.9 52.5765C133.526 52.5862 133.163 52.4468 132.891 52.1889C132.62 51.931 132.462 51.5758 132.452 51.2014C132.442 50.827 132.581 50.464 132.839 50.1924C133.097 49.9207 133.452 49.7627 133.826 49.7529C138.171 49.5514 142.456 48.6632 146.522 47.1214C149.345 44.6367 149.136 38.6508 148.78 36.2339C147.432 33.9801 145.923 31.8268 144.264 29.7906C142.921 28.1303 134.764 25.8376 115.864 24.3863C112.376 24.1725 108.963 23.2826 105.815 21.7661C104.342 20.7157 86.6216 9.34257 85.0071 8.64798C83.0539 7.80657 73.0224 5.63245 50.4361 5.63245C38.4617 5.55832 26.494 6.22028 14.6007 7.61457L15.6224 9.66446C15.734 9.88509 15.7855 10.1313 15.7716 10.3781C15.7577 10.625 15.679 10.8638 15.5434 11.0706L9.28291 20.6706C9.16388 20.8594 8.99875 21.0149 8.80308 21.1223C7.66707 21.7091 6.6429 22.4908 5.77727 23.432C5.59266 26.3821 6.06304 29.3365 7.15469 32.0833C7.24555 32.3428 7.25869 32.6231 7.1925 32.89C7.12632 33.1568 6.98368 33.3985 6.78211 33.5854L3.50227 36.6348V41.4743L5.60791 44.456L18.5353 46.952C18.7187 46.9852 18.8937 47.0545 19.05 47.156C19.2063 47.2574 19.341 47.3889 19.446 47.5429C19.5511 47.6969 19.6245 47.8702 19.662 48.0528C19.6995 48.2354 19.7003 48.4236 19.6644 48.6066C19.6364 48.7925 19.5704 48.9707 19.4705 49.13C19.3706 49.2892 19.2389 49.4261 19.0836 49.5322C18.9283 49.6382 18.7529 49.711 18.5682 49.7461C18.3835 49.7811 18.1936 49.7777 18.0103 49.736L4.52969 47.1327C4.17282 47.065 3.85556 46.8629 3.6434 46.568L0.956302 42.7506C0.787594 42.513 0.696852 42.2288 0.696625 41.9374V36.0249C0.697196 35.8309 0.737573 35.6391 0.815255 35.4614C0.892937 35.2836 1.00627 35.1237 1.14824 34.9915L4.21356 32.1397C3.07115 29.077 2.70082 25.7798 3.13533 22.5397C3.65469 21.0715 5.90711 19.592 7.12646 18.8692L12.7095 10.2235L11.1853 7.11763C11.0858 6.91891 11.0346 6.69948 11.0359 6.47722C11.0371 6.25495 11.0908 6.03613 11.1926 5.83855C11.2944 5.64098 11.4414 5.47023 11.6216 5.34021C11.8018 5.2102 12.0101 5.12458 12.2297 5.09034C24.8951 3.44734 37.6598 2.69256 50.4305 2.83151C72.6724 2.83151 83.4998 4.94916 86.1192 6.07292C88.1176 6.93128 106.442 18.7675 107.452 19.496C110.111 20.6642 112.95 21.3671 115.847 21.5741C133.911 22.9633 144.112 25.1205 146.449 28.0456C148.275 30.2613 149.918 32.622 151.36 35.1045C151.434 35.2405 151.485 35.3872 151.513 35.5393C151.58 35.9402 153.167 45.4273 148.126 49.4649C148.028 49.5389 147.922 49.6015 147.81 49.6513C143.386 51.3998 138.702 52.3961 133.951 52.599L133.9 52.5765Z" fill="#53B175"/>
<path d="M76.5001 63.7017C111.88 63.7017 140.561 62.2505 140.561 60.4603C140.561 58.6701 111.88 57.2189 76.5001 57.2189C41.12 57.2189 12.4388 58.6701 12.4388 60.4603C12.4388 62.2505 41.12 63.7017 76.5001 63.7017Z" fill="#ACD3E4"/>
<path d="M30.6391 59.0704C37.4762 59.0704 43.0189 53.5259 43.0189 46.6864C43.0189 39.8469 37.4762 34.3024 30.6391 34.3024C23.8019 34.3024 18.2592 39.8469 18.2592 46.6864C18.2592 53.5259 23.8019 59.0704 30.6391 59.0704Z" fill="#CAE2ED"/>
<path d="M30.639 60.4821C27.9112 60.4821 25.2446 59.6729 22.9765 58.1567C20.7084 56.6406 18.9408 54.4856 17.8971 51.9644C16.8535 49.4433 16.5807 46.6691 17.1133 43.9928C17.6459 41.3166 18.9599 38.8584 20.8892 36.9293C22.8185 35.0001 25.2764 33.6866 27.952 33.155C30.6276 32.6233 33.4007 32.8973 35.9206 33.9423C38.4405 34.9874 40.594 36.7565 42.1087 39.0259C43.6234 41.2954 44.4313 43.9632 44.4302 46.692C44.4242 50.3485 42.9691 53.8535 40.3839 56.4385C37.7987 59.0235 34.2943 60.4776 30.639 60.4821V60.4821ZM30.639 35.7197C28.4696 35.7197 26.349 36.3633 24.5452 37.5689C22.7415 38.7745 21.3356 40.4882 20.5054 42.4931C19.6752 44.498 19.458 46.7042 19.8812 48.8326C20.3045 50.961 21.3491 52.916 22.8831 54.4505C24.4171 55.985 26.3715 57.03 28.4992 57.4534C30.6269 57.8768 32.8323 57.6595 34.8365 56.829C36.8407 55.9986 38.5538 54.5922 39.759 52.7878C40.9643 50.9835 41.6076 48.8621 41.6076 46.692C41.6061 43.7824 40.45 40.9925 38.3933 38.9351C36.3366 36.8777 33.5476 35.7212 30.639 35.7197V35.7197Z" fill="#53B175"/>
<path d="M122.361 59.0704C129.198 59.0704 134.741 53.5259 134.741 46.6864C134.741 39.8469 129.198 34.3024 122.361 34.3024C115.524 34.3024 109.981 39.8469 109.981 46.6864C109.981 53.5259 115.524 59.0704 122.361 59.0704Z" fill="#CAE2ED"/>
<path d="M122.361 60.4821C119.633 60.4821 116.966 59.6729 114.698 58.1567C112.43 56.6406 110.663 54.4856 109.619 51.9644C108.575 49.4433 108.303 46.6691 108.835 43.9928C109.368 41.3166 110.682 38.8584 112.611 36.9293C114.54 35.0001 116.998 33.6866 119.674 33.155C122.349 32.6233 125.123 32.8973 127.643 33.9423C130.162 34.9874 132.316 36.7565 133.831 39.0259C135.345 41.2954 136.153 43.9632 136.152 46.692C136.146 50.3485 134.691 53.8535 132.106 56.4385C129.521 59.0235 126.016 60.4776 122.361 60.4821V60.4821ZM122.361 35.7197C120.192 35.7197 118.071 36.3633 116.267 37.5689C114.463 38.7745 113.058 40.4882 112.227 42.4931C111.397 44.498 111.18 46.7042 111.603 48.8326C112.026 50.961 113.071 52.916 114.605 54.4505C116.139 55.985 118.093 57.03 120.221 57.4534C122.349 57.8768 124.554 57.6595 126.558 56.829C128.563 55.9986 130.276 54.5922 131.481 52.7878C132.686 50.9835 133.329 48.8621 133.329 46.692C133.328 43.7824 132.172 40.9925 130.115 38.9351C128.059 36.8777 125.27 35.7212 122.361 35.7197V35.7197Z" fill="#53B175"/>
<path d="M122.362 53.7563C126.265 53.7563 129.429 50.591 129.429 46.6862C129.429 42.7815 126.265 39.6161 122.362 39.6161C118.458 39.6161 115.294 42.7815 115.294 46.6862C115.294 50.591 118.458 53.7563 122.362 53.7563Z" fill="white"/>
<path d="M115.288 46.6971C115.285 45.1767 115.771 43.6956 116.675 42.4732C117.578 41.2508 118.852 40.3522 120.306 39.9103C121.76 39.4685 123.318 39.507 124.749 40.0201C126.18 40.5333 127.407 41.4938 128.249 42.7593C129.092 44.0249 129.504 45.5282 129.426 47.0466C129.347 48.5649 128.782 50.0176 127.813 51.1894C126.845 52.3611 125.525 53.1897 124.049 53.5523C122.573 53.9149 121.019 53.7923 119.618 53.2026C118.143 52.5864 116.922 51.4847 116.158 50.0797" fill="white"/>
<path d="M122.361 54.468C120.966 54.4687 119.596 54.093 118.396 53.3805C117.195 52.6679 116.21 51.6449 115.542 50.4191C115.453 50.2558 115.432 50.0639 115.485 49.8854C115.537 49.707 115.658 49.5567 115.821 49.4676C115.984 49.3784 116.176 49.3578 116.355 49.4103C116.533 49.4627 116.683 49.5838 116.772 49.7471C117.466 51.0125 118.566 52.0072 119.894 52.5706C121.053 53.0599 122.332 53.1944 123.567 52.9571C124.803 52.7197 125.94 52.1212 126.836 51.2373C127.732 50.3533 128.345 49.2236 128.599 47.9908C128.853 46.7581 128.735 45.4778 128.262 44.3118C127.788 43.1457 126.98 42.1463 125.939 41.4398C124.897 40.7334 123.67 40.3517 122.412 40.3429C121.154 40.3342 119.921 40.6988 118.87 41.3906C117.819 42.0825 116.997 43.0706 116.507 44.2299C116.174 45.0117 116.005 45.8535 116.01 46.7033C116.01 46.8901 115.937 47.0694 115.806 47.2025C115.675 47.3356 115.497 47.4119 115.31 47.4149C115.123 47.4149 114.944 47.3405 114.811 47.2081C114.679 47.0757 114.605 46.8962 114.605 46.709C114.605 45.2998 114.988 43.9173 115.713 42.709C116.437 41.5007 117.477 40.5121 118.72 39.849C119.963 39.1858 121.362 38.873 122.769 38.9439C124.176 39.0148 125.537 39.4668 126.707 40.2515C127.877 41.0363 128.812 42.1243 129.412 43.3994C130.012 44.6744 130.254 46.0885 130.112 47.4905C129.971 48.8925 129.451 50.2297 128.609 51.3593C127.767 52.4888 126.634 53.3681 125.331 53.9033C124.387 54.2826 123.378 54.4744 122.361 54.468Z" fill="#53B175"/>
<path d="M30.639 53.7563C34.5424 53.7563 37.7067 50.591 37.7067 46.6862C37.7067 42.7815 34.5424 39.6161 30.639 39.6161C26.7356 39.6161 23.5713 42.7815 23.5713 46.6862C23.5713 50.591 26.7356 53.7563 30.639 53.7563Z" fill="white"/>
<path d="M23.5769 45.8669C23.5243 45.8725 23.4714 45.8725 23.4188 45.8669C23.3256 45.8483 23.2371 45.811 23.1586 45.7573C23.0802 45.7036 23.0134 45.6346 22.9622 45.5545C22.9111 45.4743 22.8767 45.3846 22.861 45.2908C22.8454 45.197 22.8489 45.101 22.8712 45.0086C23.224 43.4124 24.0763 41.9703 25.3043 40.8919C25.446 40.7698 25.6299 40.708 25.8165 40.7196C26.0032 40.7312 26.178 40.8153 26.3035 40.954C26.3653 41.0236 26.4127 41.1047 26.4431 41.1927C26.4734 41.2806 26.4861 41.3738 26.4803 41.4667C26.4745 41.5596 26.4505 41.6504 26.4095 41.734C26.3685 41.8175 26.3113 41.8921 26.2414 41.9535C25.2332 42.83 24.5344 44.0083 24.2487 45.3135C24.2146 45.4676 24.13 45.6058 24.0082 45.7061C23.8864 45.8065 23.7346 45.8631 23.5769 45.8669V45.8669ZM30.5599 54.4617C28.7727 54.4649 27.0375 53.8593 25.6401 52.7447C24.2426 51.6301 23.2661 50.0728 22.8712 48.329C22.8516 48.2366 22.8507 48.1412 22.8686 48.0484C22.8865 47.9556 22.9229 47.8673 22.9755 47.7889C23.0282 47.7104 23.096 47.6433 23.1751 47.5915C23.2542 47.5398 23.3428 47.5045 23.4358 47.4876C23.6221 47.4511 23.8154 47.4901 23.9731 47.5959C24.1308 47.7018 24.24 47.866 24.2769 48.0523C24.5216 49.2462 25.1001 50.3461 25.9451 51.2241C26.7902 52.1021 27.8669 52.7221 29.0503 53.012C30.2337 53.3019 31.475 53.2498 32.63 52.8618C33.7849 52.4738 34.8061 51.7658 35.5746 50.8202C36.3432 49.8745 36.8276 48.73 36.9716 47.5198C37.1155 46.3096 36.9131 45.0834 36.3879 43.9837C35.8626 42.884 35.0361 41.9561 34.0044 41.3078C32.9727 40.6595 31.7783 40.3175 30.5599 40.3215C29.9097 40.3203 29.2629 40.4154 28.6406 40.6039C28.5502 40.6399 28.4534 40.6569 28.3561 40.6537C28.2588 40.6505 28.1633 40.6273 28.0755 40.5854C27.9876 40.5435 27.9094 40.4839 27.8457 40.4103C27.782 40.3367 27.7342 40.2507 27.7054 40.1578C27.6765 40.0648 27.6671 39.9669 27.6779 39.8702C27.6886 39.7734 27.7193 39.68 27.7679 39.5956C27.8165 39.5113 27.882 39.438 27.9603 39.3802C28.0386 39.3224 28.128 39.2814 28.2228 39.2599C28.9794 39.0242 29.7676 38.9061 30.5599 38.9098C32.6216 38.9098 34.5988 39.729 36.0566 41.1873C37.5143 42.6456 38.3333 44.6234 38.3333 46.6857C38.3333 48.7481 37.5143 50.7259 36.0566 52.1842C34.5988 53.6425 32.6216 54.4617 30.5599 54.4617V54.4617ZM110.62 52.0109H49.7253C49.351 52.0109 48.992 51.8622 48.7273 51.5974C48.4627 51.3327 48.314 50.9736 48.314 50.5992C48.314 50.2247 48.4627 49.8656 48.7273 49.6009C48.992 49.3361 49.351 49.1874 49.7253 49.1874H110.62C110.994 49.1874 111.353 49.3361 111.618 49.6009C111.882 49.8656 112.031 50.2247 112.031 50.5992C112.031 50.9736 111.882 51.3327 111.618 51.5974C111.353 51.8622 110.994 52.0109 110.62 52.0109Z" fill="#53B175"/>
<path d="M30.2492 19.542C27.7936 19.2596 15.9613 17.2041 16.6613 15.973C18.161 13.9341 19.7625 11.9721 21.4597 10.0944C27.9968 9.52973 37.4976 8.96503 49.3355 8.96503C73.0113 8.96503 82.642 11.3029 84.4541 12.0879C85.9274 12.7147 97.9516 20.4003 103.179 23.8055L30.2492 19.542Z" fill="#CAE2ED"/>
<path d="M103.179 25.2227H103.094L30.17 20.9535H30.091C29.9555 20.9535 16.616 19.2198 15.4136 16.8481C15.3048 16.6037 15.2485 16.3391 15.2485 16.0716C15.2485 15.8041 15.3048 15.5395 15.4136 15.2951C16.9615 13.1582 18.6315 11.1125 20.4152 9.16807C20.6554 8.90072 20.9885 8.73511 21.3466 8.70502C30.6578 7.9306 39.9977 7.55378 49.341 7.5756C71.5829 7.5756 82.399 9.6876 85.0184 10.8114C86.8136 11.5794 100.633 20.4848 103.958 22.6702C104.212 22.8369 104.405 23.081 104.509 23.3664C104.613 23.6518 104.623 23.9631 104.536 24.2542C104.449 24.5453 104.271 24.8006 104.027 24.9822C103.784 25.1638 103.488 25.262 103.185 25.2622L103.179 25.2227ZM30.3732 18.13L97.9119 22.0829C91.7418 18.13 84.849 13.7987 83.9007 13.3864C81.9474 12.5507 71.9216 10.3822 49.3353 10.3822C37.4805 10.3822 28.1039 10.9469 22.1482 11.4551C21.0192 12.754 19.4724 14.5328 18.5748 15.6848C22.4411 16.7933 26.3849 17.6106 30.3732 18.13V18.13Z" fill="#53B175"/>
<path d="M68.5118 42.2647C68.4189 42.2655 68.3268 42.2477 68.2409 42.2125C68.1549 42.1773 68.0768 42.1253 68.0112 42.0596C67.9455 41.9939 67.8935 41.9158 67.8584 41.8298C67.8232 41.7439 67.8054 41.6517 67.8062 41.5588C67.1209 29.1674 65.6008 16.8364 63.2562 4.64965C63.239 4.55842 63.24 4.46471 63.2591 4.37387C63.2782 4.28304 63.315 4.19686 63.3675 4.12028C63.4199 4.0437 63.4869 3.97821 63.5647 3.92758C63.6425 3.87694 63.7295 3.84214 63.8207 3.82517C64.0054 3.79194 64.1957 3.83247 64.3509 3.93804C64.506 4.04362 64.6136 4.20584 64.6505 4.38988C67.0097 16.6643 68.5374 29.0841 69.2231 41.5645C69.2231 41.6574 69.2046 41.7494 69.1688 41.8351C69.1329 41.9208 69.0803 41.9985 69.0141 42.0636C68.9479 42.1288 68.8694 42.1802 68.7832 42.2147C68.6969 42.2492 68.6047 42.2662 68.5118 42.2647V42.2647ZM44.8868 26.0689H39.1288C38.9416 26.0689 38.7621 25.9946 38.6298 25.8622C38.4975 25.7298 38.4231 25.5503 38.4231 25.3631C38.4231 25.1758 38.4975 24.9963 38.6298 24.8639C38.7621 24.7315 38.9416 24.6572 39.1288 24.6572H44.8868C45.074 24.6572 45.2534 24.7315 45.3858 24.8639C45.5181 24.9963 45.5925 25.1758 45.5925 25.3631C45.5925 25.5503 45.5181 25.7298 45.3858 25.8622C45.2534 25.9946 45.074 26.0689 44.8868 26.0689ZM77.7812 27.7292H72.0457C71.8585 27.7292 71.6791 27.6548 71.5467 27.5224C71.4144 27.39 71.34 27.2105 71.34 27.0233C71.34 26.8361 71.4144 26.6565 71.5467 26.5242C71.6791 26.3918 71.8585 26.3174 72.0457 26.3174H77.7812C77.9683 26.3174 78.1478 26.3918 78.2801 26.5242C78.4125 26.6565 78.4868 26.8361 78.4868 27.0233C78.4868 27.2105 78.4125 27.39 78.2801 27.5224C78.1478 27.6548 77.9683 27.7292 77.7812 27.7292ZM90.7763 24.5273H94.9425C95.3781 24.5273 95.796 24.3542 96.104 24.046C96.4121 23.7378 96.5852 23.3198 96.5852 22.884C96.5852 22.4482 96.4121 22.0302 96.104 21.722C95.796 21.4138 95.3781 21.2407 94.9425 21.2407H90.7763V24.5273Z" fill="#53B175"/>
<path d="M94.9424 25.9391H90.7763C90.402 25.9391 90.043 25.7903 89.7784 25.5256C89.5137 25.2608 89.365 24.9017 89.365 24.5273V21.2407C89.365 20.8663 89.5137 20.5072 89.7784 20.2424C90.043 19.9777 90.402 19.8289 90.7763 19.8289H94.9424C95.7524 19.8289 96.5292 20.1508 97.102 20.7237C97.6747 21.2967 97.9965 22.0737 97.9965 22.884C97.9965 23.6942 97.6747 24.4713 97.102 25.0442C96.5292 25.6172 95.7524 25.9391 94.9424 25.9391ZM92.1876 23.1155H94.9424V22.6468H92.1876V23.1155ZM5.13919 29.7282C4.95204 29.7282 4.77256 29.6539 4.64023 29.5215C4.50789 29.3891 4.43355 29.2096 4.43355 29.0223C4.43355 28.8351 4.50789 28.6556 4.64023 28.5232C4.77256 28.3908 4.95204 28.3165 5.13919 28.3165L8.63919 28.1809L9.68355 24.9565C9.7348 24.808 9.83161 24.6795 9.96016 24.5894L15.3852 20.9188C15.1166 20.7346 14.813 20.6078 14.4932 20.5461H8.41339C8.22624 20.5461 8.04675 20.4717 7.91442 20.3394C7.78209 20.207 7.70774 20.0274 7.70774 19.8402C7.70774 19.653 7.78209 19.4735 7.91442 19.3411C8.04675 19.2087 8.22624 19.1343 8.41339 19.1343H14.465C15.4176 19.3057 16.3078 19.7266 17.0448 20.3541C17.1324 20.4195 17.2032 20.5048 17.2513 20.603C17.2994 20.7012 17.3235 20.8095 17.3215 20.9188C17.3187 21.0309 17.289 21.1407 17.235 21.239C17.181 21.3373 17.1041 21.4211 17.011 21.4835L10.9198 25.6059L9.79081 29.0675C9.74763 29.206 9.66251 29.3277 9.54723 29.4157C9.43195 29.5037 9.29219 29.5537 9.14726 29.5588L5.15613 29.7113L5.13919 29.7282Z" fill="#53B175"/>
<path d="M8.41328 19.8237H14.4649C15.2525 20.0203 15.987 20.3887 16.6157 20.9023L10.327 25.1658H4.54635C4.54635 25.1658 3.59796 22.139 8.41328 19.8237ZM78.8084 6.55877C78.6944 6.56017 78.5819 6.53299 78.481 6.47971C74.075 4.13045 69.3033 2.54383 64.3681 1.78701H62.4205C42.7923 1.59501 31.9367 1.58937 30.1359 1.78701C27.3301 2.63901 24.7287 4.05739 22.4923 5.95454C22.4218 6.02074 22.3385 6.07175 22.2474 6.10438C22.1564 6.13702 22.0597 6.15059 21.9632 6.14427C21.8667 6.13794 21.7725 6.11184 21.6865 6.06759C21.6006 6.02334 21.5246 5.96189 21.4633 5.88704C21.4021 5.8122 21.3569 5.72556 21.3305 5.6325C21.3041 5.53944 21.2971 5.44195 21.31 5.34609C21.3228 5.25022 21.3552 5.15801 21.4052 5.07519C21.4551 4.99238 21.5216 4.92072 21.6004 4.86466C24.0384 2.78668 26.8959 1.25924 29.9778 0.386541C32.7722 0.0703063 55.1044 0.290542 62.4318 0.386541H64.3681C69.5347 1.12691 74.5312 2.76876 79.1302 5.23736C79.2962 5.32298 79.4214 5.47089 79.4786 5.64872C79.5357 5.82654 79.5201 6.01976 79.4351 6.18607C79.3754 6.30019 79.2852 6.39548 79.1746 6.4613C79.0639 6.52711 78.9372 6.56086 78.8084 6.55877V6.55877Z" fill="#53B175"/>
<path d="M42.7194 5.01716C42.6521 5.02812 42.5835 5.02812 42.5162 5.01716C42.4264 4.98785 42.3433 4.94094 42.2718 4.87916C42.2003 4.81738 42.1418 4.74197 42.0998 4.65733C42.0577 4.57269 42.033 4.48051 42.0269 4.3862C42.0209 4.29188 42.0337 4.1973 42.0646 4.10799L43.0864 0.71975C43.1129 0.630643 43.1567 0.547651 43.2154 0.475539C43.274 0.403426 43.3463 0.343613 43.4282 0.299537C43.51 0.255461 43.5997 0.227989 43.6922 0.218698C43.7847 0.209407 43.8781 0.21848 43.967 0.245397C44.1461 0.300237 44.2963 0.42349 44.385 0.588412C44.4738 0.753335 44.494 0.946624 44.4412 1.12634L43.4194 4.51457C43.3746 4.66392 43.2817 4.79423 43.155 4.88515C43.0284 4.97607 42.8752 5.02249 42.7194 5.01716ZM149.114 34.8054C146.696 34.77 144.293 34.4285 141.961 33.7889C138.214 31.4166 134.63 28.7942 131.236 25.9395C131.086 25.8212 130.989 25.6482 130.967 25.4587C130.945 25.2691 130.999 25.0785 131.117 24.9287C131.235 24.7789 131.408 24.6823 131.598 24.6601C131.787 24.6378 131.978 24.6918 132.128 24.8101C135.416 27.5835 138.884 30.1359 142.509 32.4506C144.682 33.0242 146.917 33.3314 149.165 33.3654C149.352 33.3654 149.531 33.4398 149.664 33.5722C149.796 33.7045 149.87 33.8841 149.87 34.0713C149.87 34.2585 149.796 34.438 149.664 34.5704C149.531 34.7028 149.352 34.7772 149.165 34.7772L149.114 34.8054Z" fill="#53B175"/>
<path d="M131.648 25.3869C131.648 25.3869 137.445 30.0909 140.623 32.2085L138.529 26.3073L131.648 25.3869ZM110.094 45.8688H43.0186C42.8314 45.8688 42.6519 45.7944 42.5196 45.662C42.3873 45.5296 42.3129 45.3501 42.3129 45.1629C42.3129 44.9757 42.3873 44.7961 42.5196 44.6637C42.6519 44.5314 42.8314 44.457 43.0186 44.457H110.094C110.282 44.457 110.461 44.5314 110.593 44.6637C110.726 44.7961 110.8 44.9757 110.8 45.1629C110.8 45.3501 110.726 45.5296 110.593 45.662C110.461 45.7944 110.282 45.8688 110.094 45.8688ZM35.3411 20.5473C35.2539 20.5473 35.1676 20.5301 35.0871 20.4965C34.9119 20.4306 34.7701 20.2978 34.6928 20.1273C34.6155 19.9568 34.6091 19.7626 34.675 19.5873L38.7847 8.85793C38.8513 8.6827 38.9848 8.54112 39.1558 8.46434C39.3267 8.38756 39.5212 8.38187 39.6964 8.44852C39.8716 8.51517 40.0131 8.64869 40.0898 8.81973C40.1666 8.99076 40.1723 9.18529 40.1057 9.36052L36.0016 20.0899C35.9491 20.223 35.8584 20.3375 35.7408 20.4189C35.6232 20.5003 35.4841 20.545 35.3411 20.5473V20.5473ZM18.7444 43.9996H18.6089L7.70243 41.848C7.51845 41.8111 7.35629 41.7035 7.25075 41.5483C7.1452 41.3931 7.10469 41.2027 7.13791 41.0179C7.15407 40.9252 7.18876 40.8366 7.23991 40.7576C7.29107 40.6785 7.35763 40.6106 7.43563 40.5579C7.51363 40.5052 7.60145 40.4687 7.69385 40.4507C7.78625 40.4328 7.88133 40.4336 7.9734 40.4532L18.8799 42.5822C19.0548 42.6136 19.2114 42.7099 19.3185 42.8518C19.4255 42.9937 19.4751 43.1708 19.4573 43.3477C19.4395 43.5246 19.3555 43.6883 19.2223 43.806C19.0891 43.9237 18.9164 43.9868 18.7387 43.9826L18.7444 43.9996Z" fill="#53B175"/>
<path d="M103.179 23.81L106.679 26.1196Z" fill="white"/>
<path d="M106.679 27.5316C106.404 27.5334 106.135 27.4528 105.906 27.3L102.4 24.9904C102.246 24.8881 102.113 24.7563 102.009 24.6025C101.906 24.4488 101.833 24.2762 101.796 24.0945C101.759 23.9128 101.759 23.7256 101.794 23.5436C101.829 23.3616 101.9 23.1883 102.002 23.0337C102.105 22.8791 102.237 22.7461 102.39 22.6424C102.544 22.5387 102.716 22.4664 102.898 22.4294C103.08 22.3924 103.267 22.3916 103.449 22.427C103.631 22.4623 103.804 22.5332 103.959 22.6356L107.459 24.9452C107.71 25.1131 107.901 25.3575 108.004 25.6423C108.106 25.9271 108.114 26.2373 108.027 26.5271C107.94 26.8169 107.761 27.0709 107.519 27.2518C107.276 27.4327 106.982 27.5307 106.679 27.5316V27.5316Z" fill="#53B175"/>
</svg>
