<svg width="153" height="60" viewBox="0 0 153 60" fill="none" xmlns="http://www.w3.org/2000/svg">
<path d="M22.3065 44.8493L6.50007 42.5905C4.46781 42.3082 1.87104 40.1623 2.09684 34.2329V28.8117L4.63716 26.4399V16.5576L14.9678 15.2587C16.0968 15.0329 27.3872 8.76463 32.9194 6.56227C42.2623 2.64779 52.3993 1.00288 62.5001 1.76227C71.9255 1.36888 81.3543 2.45499 90.4436 4.98109C92.1372 5.43286 113.024 16.1623 113.024 16.1623C124.67 17.3709 135.996 20.701 146.444 25.9882C149.266 27.6823 150.395 34.6282 150.79 36.7176C150.094 39.5887 148.951 42.3327 147.403 44.8493H133.29" fill="white"/>
<path d="M147.404 46.3177H133.404C133.029 46.3177 132.67 46.1689 132.406 45.9042C132.141 45.6394 131.992 45.2803 131.992 44.9059C131.992 44.5315 132.141 44.1724 132.406 43.9076C132.67 43.6429 133.029 43.4941 133.404 43.4941H146.613C147.851 41.4508 148.801 39.2465 149.436 36.9435L149.266 36.153C148.815 34.0635 147.742 28.4165 145.71 27.1177C135.464 21.9686 124.371 18.7162 112.968 17.5177C112.774 17.5209 112.581 17.4824 112.404 17.4047L90.0487 6.33648L89.3149 6.1106C80.5515 3.81225 71.4966 2.82273 62.4439 3.17413C52.8644 2.46851 43.2501 3.95556 34.331 7.52236L33.4278 7.91765C30.21 9.21648 24.96 11.8706 21.0084 13.9035C19.1879 14.9293 17.3021 15.8348 15.3633 16.6141C14.4036 16.84 8.87132 17.5177 6.10519 17.8565V26.5529C6.10265 26.7441 6.06131 26.9328 5.98368 27.1076C5.90605 27.2823 5.79375 27.4394 5.65358 27.5694L3.56487 29.4894V34.3459C3.39552 39.0894 5.25842 41.1224 6.78261 41.2918L22.5891 43.5506L22.1939 46.3741L6.38745 44.1153C3.67777 43.72 0.572937 40.8965 0.742291 34.3459V28.9247C0.751951 28.7293 0.802102 28.5381 0.889564 28.3631C0.977025 28.1881 1.09989 28.0332 1.25036 27.9082L3.33907 25.9882V16.5577C3.33656 16.2108 3.46178 15.8752 3.69084 15.6148C3.91991 15.3544 4.23677 15.1875 4.581 15.1459L14.7423 13.8471C15.1375 13.7341 17.5649 12.5482 19.71 11.3624L32.4116 5.26354L33.3149 4.92471C42.5783 1.23641 52.5558 -0.308007 62.5003 0.407065C71.8207 0.0532629 81.142 1.08086 90.1616 3.45648L90.7261 3.62589C92.5326 4.07765 109.468 12.7741 113.476 14.8071C125.254 16.0007 136.704 19.3909 147.234 24.8024C150.083 27.7232 151.786 31.5716 152.033 35.6447L152.202 36.4353C151.766 39.7256 150.546 42.863 148.645 45.5835C148.516 45.7958 148.334 45.9703 148.116 46.0893C147.897 46.2083 147.652 46.2676 147.404 46.2612V46.3177Z" fill="#53B175"/>
<path d="M32.2989 13.0009C37.6618 10.1774 43.0247 7.12798 61.6537 7.12798C71.0791 6.73459 80.5079 7.8207 89.5973 10.3468C90.7263 10.6292 99.0247 14.8645 105.291 18.0268H23.436L32.2424 12.9445L32.2989 13.0009Z" fill="#CAE2ED"/>
<path d="M105.291 19.4375H23.4357C23.1209 19.4391 22.8147 19.3354 22.5656 19.1429C22.3166 18.9503 22.139 18.6801 22.0611 18.375C21.9833 18.0699 22.0096 17.7476 22.1359 17.4592C22.2622 17.1708 22.4813 16.9329 22.7583 16.7834C22.9841 16.6704 28.6857 13.2257 31.6776 11.701L32.2421 11.4187C37.4357 8.76456 43.3066 5.77162 61.597 5.77162C70.9173 5.41699 80.2388 6.4446 89.2583 8.82103L89.8228 8.99044C95.3151 11.2497 100.669 13.8331 105.855 16.7269C106.161 16.856 106.411 17.0888 106.563 17.3843C106.714 17.6799 106.756 18.0193 106.682 18.3429C106.608 18.6666 106.422 18.9537 106.157 19.1539C105.892 19.3541 105.566 19.4545 105.234 19.4375H105.291ZM28.6857 16.614H99.2502C95.9419 14.8179 92.5511 13.1785 89.0889 11.701L88.355 11.5316C79.6129 9.21897 70.5772 8.21044 61.5405 8.53868C43.9276 8.53868 38.6212 11.3622 33.4841 13.9034L32.9196 14.2422L28.6292 16.614H28.6857ZM7.85504 20.454C8.75476 21.0089 9.46381 21.8252 9.88747 22.7939C10.3111 23.7626 10.4292 24.8375 10.226 25.8751C10.0567 26.4398 9.09698 26.6657 7.85504 26.7222V20.454ZM145.032 33.1034H143.621C142.04 33.1034 138.089 27.8516 139.331 27.6822C140.582 27.4835 141.847 27.389 143.113 27.3999L145.032 33.1034Z" fill="#53B175"/>
<path d="M70.6858 36.2658C70.5092 36.2679 70.3378 36.2062 70.203 36.0921C70.0682 35.978 69.9791 35.8191 69.9519 35.6446C68.8161 24.3396 67.1774 13.0908 65.0406 1.93165C65.0107 1.75193 65.0533 1.56767 65.1592 1.4194C65.2651 1.27114 65.4255 1.17102 65.6052 1.14106C65.7848 1.11111 65.969 1.15378 66.1172 1.25968C66.2654 1.36558 66.3655 1.52605 66.3955 1.70577C66.4519 1.87518 70.3471 22.5999 71.3632 35.5881C71.3653 35.7647 71.3037 35.9362 71.1896 36.071C71.0756 36.2059 70.9167 36.2951 70.7422 36.3222L70.6858 36.2658ZM47.3148 25.254H41.5003C41.347 25.2102 41.2121 25.1176 41.116 24.9902C41.02 24.8629 40.968 24.7077 40.968 24.5481C40.968 24.3886 41.02 24.2334 41.116 24.106C41.2121 23.9787 41.347 23.8861 41.5003 23.8422H47.2584C47.4117 23.8861 47.5466 23.9787 47.6427 24.106C47.7387 24.2334 47.7907 24.3886 47.7907 24.5481C47.7907 24.7077 47.7387 24.8629 47.6427 24.9902C47.5466 25.1176 47.4117 25.2102 47.2584 25.254H47.3148ZM78.9277 25.254H73.1132C72.9599 25.2102 72.825 25.1176 72.7289 24.9902C72.6329 24.8629 72.5809 24.7077 72.5809 24.5481C72.5809 24.3886 72.6329 24.2334 72.7289 24.106C72.825 23.9787 72.9599 23.8861 73.1132 23.8422H78.8713C78.9805 23.811 79.0955 23.8056 79.2071 23.8264C79.3188 23.8472 79.4241 23.8936 79.5148 23.962C79.6055 24.0305 79.6791 24.119 79.7297 24.2207C79.7804 24.3224 79.8067 24.4345 79.8067 24.5481C79.8067 24.6617 79.7804 24.7738 79.7297 24.8755C79.6791 24.9772 79.6055 25.0658 79.5148 25.1342C79.4241 25.2026 79.3188 25.2491 79.2071 25.2698C79.0955 25.2906 78.9805 25.2852 78.8713 25.254H78.9277ZM92.3068 19.6069H96.4842C96.9235 19.5923 97.3399 19.4074 97.6454 19.0912C97.9509 18.7751 98.1215 18.3525 98.1213 17.9128C98.0926 17.4834 97.9016 17.0809 97.587 16.7873C97.2725 16.4936 96.858 16.3307 96.4277 16.3317H92.3068V19.6069Z" fill="#53B175"/>
<path d="M96.484 21.0752H92.3066C91.9323 21.0752 91.5733 20.9265 91.3086 20.6617C91.044 20.397 90.8953 20.0379 90.8953 19.6634V16.3881C90.8953 16.0137 91.044 15.6546 91.3086 15.3899C91.5733 15.1251 91.9323 14.9764 92.3066 14.9764H96.484C97.2925 14.9764 98.0678 15.2977 98.6395 15.8695C99.2112 16.4414 99.5323 17.217 99.5323 18.0258C99.5323 18.8346 99.2112 19.6102 98.6395 20.1821C98.0678 20.7539 97.2925 21.0752 96.484 21.0752ZM93.6614 18.2517H96.484V17.7999H93.6614V18.2517Z" fill="#53B175"/>
<path d="M77.7421 59.6441C111.382 59.6441 138.653 58.203 138.653 56.4252C138.653 54.6475 111.382 53.2064 77.7421 53.2064C44.1017 53.2064 16.8307 54.6475 16.8307 56.4252C16.8307 58.203 44.1017 59.6441 77.7421 59.6441Z" fill="#ACD3E4"/>
<path d="M34.5 55.0138C41.3279 55.0138 46.8629 49.4769 46.8629 42.6468C46.8629 35.8166 41.3279 30.2797 34.5 30.2797C27.6722 30.2797 22.1371 35.8166 22.1371 42.6468C22.1371 49.4769 27.6722 55.0138 34.5 55.0138Z" fill="#CAE2ED"/>
<path d="M34.5 56.4822C31.7781 56.4822 29.1173 55.6754 26.8534 54.1639C24.5895 52.6523 22.824 50.5037 21.7798 47.9892C20.7356 45.4748 20.4596 42.7072 20.9865 40.0359C21.5134 37.3647 22.8197 34.9094 24.7404 32.9802C26.6611 31.051 29.1102 29.7342 31.7784 29.1962C34.4466 28.6582 37.2143 28.923 39.7322 29.9572C42.25 30.9915 44.4051 32.7488 45.9254 35.0072C47.4457 37.2657 48.263 39.9241 48.2742 42.6469C48.2593 46.2967 46.8034 49.7927 44.2234 52.3736C41.6435 54.9544 38.1486 56.4108 34.5 56.4257V56.4822ZM34.5 31.6351C32.3388 31.6352 30.226 32.275 28.4275 33.4739C26.6291 34.6727 25.2254 36.3771 24.3933 38.3723C23.5612 40.3676 23.3378 42.5645 23.7513 44.6865C24.1648 46.8085 25.1967 48.7606 26.717 50.2971C28.2374 51.8337 30.1782 52.8859 32.2951 53.3213C34.412 53.7566 36.6104 53.5557 38.6134 52.7438C40.6164 51.9319 42.3345 50.5454 43.5513 48.7587C44.7681 46.972 45.4293 44.8652 45.4516 42.7034C45.4516 39.7978 44.2978 37.0113 42.244 34.9568C40.1901 32.9023 37.4046 31.7481 34.5 31.7481V31.6351Z" fill="#53B175"/>
<path d="M34.5001 49.7055C38.3973 49.7055 41.5565 46.5452 41.5565 42.6467C41.5565 38.7482 38.3973 35.5879 34.5001 35.5879C30.6029 35.5879 27.4436 38.7482 27.4436 42.6467C27.4436 46.5452 30.6029 49.7055 34.5001 49.7055Z" fill="white"/>
<path d="M34.4999 50.4395C33.3476 50.4525 32.2068 50.2096 31.1597 49.7283C30.1126 49.247 29.1852 48.5393 28.4445 47.6562C27.7038 46.7731 27.1681 45.7367 26.8761 44.6215C26.5841 43.5064 26.5431 42.3403 26.756 41.2074C26.9689 40.0745 27.4304 39.0029 28.1072 38.0699C28.784 37.137 29.6594 36.3658 30.6701 35.8121C31.6808 35.2583 32.8017 34.9358 33.9521 34.8677C35.1024 34.7996 36.2536 34.9877 37.3225 35.4183C37.4888 35.493 37.6213 35.6268 37.6944 35.7938C37.7674 35.9608 37.7757 36.149 37.7177 36.3218C37.6431 36.4881 37.5093 36.6207 37.3423 36.6938C37.1754 36.7669 36.9872 36.7752 36.8145 36.7171C36.0789 36.42 35.2932 36.2667 34.4999 36.2654C33.0322 36.2562 31.6062 36.7536 30.4624 37.6737C29.3187 38.5939 28.5271 39.8804 28.2211 41.3164C27.9152 42.7524 28.1137 44.25 28.7831 45.5567C29.4525 46.8633 30.5518 47.8991 31.8958 48.4893C33.2397 49.0795 34.746 49.1881 36.1606 48.7967C37.5753 48.4053 38.8117 47.5378 39.6614 46.3406C40.5111 45.1435 40.9221 43.6898 40.8252 42.2247C40.7282 40.7597 40.1291 39.3729 39.129 38.2983C39.0618 38.158 39.0409 38.0001 39.0693 37.8472C39.0977 37.6943 39.1739 37.5543 39.287 37.4475C39.4 37.3407 39.544 37.2726 39.6982 37.253C39.8525 37.2334 40.0089 37.2632 40.1451 37.3383C41.175 38.4456 41.8606 39.8287 42.1182 41.3191C42.3758 42.8094 42.1942 44.3425 41.5958 45.7314C40.9973 47.1204 40.0077 48.3051 38.7478 49.141C37.4878 49.977 36.0118 50.4282 34.4999 50.4395Z" fill="#53B175"/>
<path d="M121.04 55.0138C127.868 55.0138 133.403 49.4769 133.403 42.6468C133.403 35.8166 127.868 30.2797 121.04 30.2797C114.212 30.2797 108.677 35.8166 108.677 42.6468C108.677 49.4769 114.212 55.0138 121.04 55.0138Z" fill="#CAE2ED"/>
<path d="M121.096 56.4822C118.374 56.4822 115.714 55.6754 113.45 54.1639C111.186 52.6523 109.42 50.5037 108.376 47.9892C107.332 45.4748 107.056 42.7072 107.583 40.0359C108.11 37.3647 109.416 34.9094 111.337 32.9802C113.257 31.051 115.706 29.7342 118.375 29.1962C121.043 28.6582 123.811 28.923 126.328 29.9572C128.846 30.9915 131.001 32.7488 132.522 35.0072C134.042 37.2657 134.859 39.9241 134.871 42.6469C134.856 46.2967 133.4 49.7927 130.82 52.3736C128.24 54.9544 124.745 56.4108 121.096 56.4257V56.4822ZM121.096 31.6351C118.933 31.6352 116.818 32.2763 115.018 33.4776C113.218 34.6789 111.814 36.3865 110.984 38.3851C110.153 40.3836 109.933 42.5834 110.351 44.707C110.769 46.8306 111.807 48.7827 113.333 50.317C114.859 51.8514 116.805 52.8992 118.925 53.3283C121.046 53.7573 123.246 53.5484 125.248 52.7279C127.25 51.9074 128.965 50.512 130.175 48.7179C131.385 46.9237 132.037 44.8112 132.048 42.6469C132.048 39.7414 130.894 36.9548 128.84 34.9003C126.786 32.8458 124.001 31.6916 121.096 31.6916V31.6351Z" fill="#53B175"/>
<path d="M121.04 49.7055C124.937 49.7055 128.097 46.5452 128.097 42.6467C128.097 38.7482 124.937 35.5879 121.04 35.5879C117.143 35.5879 113.984 38.7482 113.984 42.6467C113.984 46.5452 117.143 49.7055 121.04 49.7055Z" fill="white"/>
<path d="M108.469 46.4681H53.8234C53.4491 46.4681 53.0902 46.3194 52.8255 46.0546C52.5608 45.7898 52.4122 45.4307 52.4122 45.0563C52.4122 44.6819 52.5608 44.3228 52.8255 44.0581C53.0902 43.7933 53.4491 43.6446 53.8234 43.6446H108.469C108.843 43.6446 109.202 43.7933 109.467 44.0581C109.731 44.3228 109.88 44.6819 109.88 45.0563C109.88 45.4307 109.731 45.7898 109.467 46.0546C109.202 46.3194 108.843 46.4681 108.469 46.4681ZM113.831 45.3387C113.67 45.3409 113.513 45.2853 113.388 45.1817C113.264 45.0781 113.181 44.9335 113.154 44.774C113.01 44.2956 112.915 43.8036 112.872 43.3057C112.864 43.2121 112.876 43.1179 112.906 43.029C112.937 42.9402 112.985 42.8587 113.049 42.7896C113.113 42.7206 113.19 42.6656 113.276 42.628C113.362 42.5905 113.455 42.5713 113.549 42.5716C113.734 42.5711 113.913 42.6406 114.049 42.7663C114.185 42.892 114.269 43.0645 114.283 43.2493C114.317 43.6513 114.393 44.0488 114.509 44.4352C114.561 44.6224 114.537 44.8226 114.442 44.992C114.346 45.1613 114.188 45.286 114.001 45.3387C113.945 45.3472 113.888 45.3472 113.831 45.3387V45.3387ZM120.719 50.5904C119.575 50.5879 118.446 50.3337 117.412 49.8457C116.378 49.3577 115.464 48.648 114.735 47.7669C114.678 47.6968 114.637 47.6161 114.612 47.5296C114.587 47.4432 114.579 47.3526 114.59 47.2632C114.6 47.1739 114.629 47.0875 114.673 47.0092C114.717 46.9308 114.777 46.8621 114.848 46.8069C114.988 46.6993 115.162 46.6457 115.338 46.6561C115.514 46.6665 115.681 46.7401 115.807 46.8634C116.719 47.963 117.973 48.7249 119.369 49.0269C120.765 49.3289 122.221 49.1537 123.506 48.5292C124.79 47.9048 125.828 46.8672 126.453 45.5827C127.078 44.2982 127.254 42.8411 126.953 41.4446C126.652 40.0481 125.891 38.7931 124.793 37.8805C123.694 36.9679 122.321 36.4505 120.893 36.4112C119.466 36.3719 118.066 36.8129 116.919 37.6636C115.772 38.5144 114.943 39.7256 114.565 41.1034C114.546 41.1938 114.508 41.2793 114.454 41.3545C114.4 41.4298 114.331 41.4931 114.252 41.5407C114.173 41.5884 114.084 41.6192 113.993 41.6314C113.901 41.6436 113.808 41.6369 113.719 41.6116C113.623 41.5988 113.531 41.5659 113.45 41.5149C113.368 41.4639 113.298 41.396 113.245 41.3158C113.191 41.2357 113.156 41.1451 113.14 41.05C113.124 40.9549 113.129 40.8576 113.154 40.7646C113.533 39.3629 114.295 38.0949 115.356 37.1036C116.416 36.1123 117.733 35.4371 119.156 35.1541C120.58 34.8711 122.054 34.9916 123.413 35.502C124.772 36.0124 125.961 36.8924 126.847 38.0428C127.732 39.1931 128.279 40.5681 128.425 42.0126C128.572 43.4572 128.311 44.9139 127.674 46.2185C127.037 47.5231 126.048 48.6236 124.819 49.3961C123.59 50.1686 122.17 50.5823 120.719 50.5904ZM108.694 40.5951H46.2025C46.0491 40.5513 45.9142 40.4587 45.8182 40.3314C45.7221 40.204 45.6702 40.0488 45.6702 39.8893C45.6702 39.7297 45.7221 39.5745 45.8182 39.4472C45.9142 39.3198 46.0491 39.2272 46.2025 39.1834H108.694C108.848 39.2272 108.983 39.3198 109.079 39.4472C109.175 39.5745 109.227 39.7297 109.227 39.8893C109.227 40.0488 109.175 40.204 109.079 40.3314C108.983 40.4587 108.848 40.5513 108.694 40.5951V40.5951ZM149.735 40.5951H132.799C132.646 40.5513 132.511 40.4587 132.415 40.3314C132.319 40.204 132.267 40.0488 132.267 39.8893C132.267 39.7297 132.319 39.5745 132.415 39.4472C132.511 39.3198 132.646 39.2272 132.799 39.1834H149.735C149.888 39.2272 150.023 39.3198 150.119 39.4472C150.215 39.5745 150.267 39.7297 150.267 39.8893C150.267 40.0488 150.215 40.204 150.119 40.3314C150.023 40.4587 149.888 40.5513 149.735 40.5951V40.5951ZM41.1218 18.7975C41.0655 18.8036 41.0088 18.8036 40.9525 18.7975C40.7776 18.7449 40.6287 18.6289 40.5347 18.4722C40.4408 18.3156 40.4086 18.1296 40.4444 17.9504L42.7025 8.57633C42.7433 8.39095 42.8542 8.22858 43.0121 8.1233C43.17 8.01801 43.3625 7.97798 43.5492 8.01162C43.7346 8.05242 43.8969 8.16343 44.0021 8.32137C44.1074 8.4793 44.1474 8.67187 44.1138 8.85868L41.8557 18.2328C41.8192 18.3876 41.7334 18.5264 41.6112 18.6283C41.4891 18.7301 41.3371 18.7895 41.1783 18.7975H41.1218ZM149.509 33.8752H143.299C141.436 33.8752 138.106 29.6963 137.993 28.2281C137.969 28.0977 137.972 27.9636 138.002 27.8345C138.032 27.7054 138.089 27.5839 138.169 27.4778C138.248 27.3717 138.349 27.2832 138.464 27.2179C138.58 27.1527 138.708 27.1121 138.84 27.0987C141.785 26.7714 144.757 26.7714 147.702 27.0987C147.887 27.1267 148.054 27.2241 148.169 27.3709C148.285 27.5178 148.34 27.7032 148.323 27.8893C148.31 27.9788 148.278 28.0647 148.231 28.1419C148.184 28.2191 148.121 28.2859 148.047 28.3386C147.974 28.3912 147.89 28.4286 147.802 28.4484C147.714 28.4682 147.622 28.4701 147.533 28.454C144.867 28.2014 142.183 28.2014 139.517 28.454C139.969 29.5834 142.34 32.5199 143.243 32.5199H149.452C149.606 32.5637 149.741 32.6563 149.837 32.7836C149.933 32.911 149.985 33.0662 149.985 33.2257C149.985 33.3853 149.933 33.5405 149.837 33.6678C149.741 33.7952 149.606 33.8878 149.452 33.9316L149.509 33.8752ZM6.96861 27.5504C6.02365 27.5407 5.08052 27.4652 4.14603 27.3246C3.9718 27.2842 3.81828 27.1816 3.71433 27.0361C3.61038 26.8905 3.56315 26.7119 3.58152 26.534C3.58805 26.4395 3.61432 26.3474 3.65863 26.2636C3.70295 26.1799 3.76432 26.1064 3.8388 26.0478C3.91327 25.9893 3.99919 25.947 4.091 25.9238C4.18282 25.9005 4.27849 25.8968 4.37184 25.9128C5.9413 26.2592 7.57301 26.2009 9.11377 25.7434C10.0735 21.4516 4.14603 19.6446 4.03313 19.6446C3.91954 19.6439 3.80766 19.6169 3.70627 19.5657C3.60489 19.5145 3.51678 19.4404 3.44888 19.3493C3.38098 19.2582 3.33515 19.1526 3.31498 19.0408C3.29482 18.929 3.30088 18.814 3.33268 18.7049C3.36449 18.5958 3.42117 18.4956 3.49826 18.4122C3.57536 18.3287 3.67077 18.2643 3.77697 18.224C3.88318 18.1837 3.99728 18.1687 4.1103 18.18C4.22332 18.1913 4.33218 18.2287 4.42829 18.2893C6.96861 19.0234 11.4283 21.6775 10.4686 26.0822C10.2428 27.2116 8.66216 27.5504 6.96861 27.5504V27.5504ZM13.517 31.0516C3.63797 31.0516 1.49281 29.6963 1.267 29.5269C1.11973 29.4054 1.02557 29.2314 1.00449 29.0416C0.983412 28.8518 1.03708 28.6613 1.1541 28.5104C1.26563 28.3696 1.42491 28.2746 1.60177 28.2434C1.77863 28.2122 1.9608 28.2469 2.11377 28.341C6.34121 29.7745 10.841 30.2188 15.267 29.6399C15.4203 29.6837 15.5553 29.7763 15.6513 29.9036C15.7473 30.031 15.7993 30.1862 15.7993 30.3457C15.7993 30.5053 15.7473 30.6605 15.6513 30.7878C15.5553 30.9152 15.4203 31.0078 15.267 31.0516H13.5735H13.517Z" fill="#53B175"/>
<path d="M105.291 18.0819L108.791 19.776Z" fill="#CAE2ED"/>
<path d="M108.677 21.1882C108.479 21.1721 108.287 21.1144 108.113 21.0188L104.613 19.3247C104.276 19.1524 104.021 18.8534 103.905 18.4933C103.788 18.1332 103.819 17.7416 103.992 17.4047C104.164 17.0677 104.463 16.8129 104.823 16.6964C105.183 16.5799 105.574 16.6112 105.911 16.7835L109.298 18.5905C109.571 18.7376 109.788 18.9706 109.916 19.2534C110.043 19.5363 110.074 19.8533 110.003 20.1554C109.933 20.4576 109.764 20.728 109.525 20.9249C109.285 21.1218 108.987 21.2341 108.677 21.2447V21.1882Z" fill="#53B175"/>
</svg>
