<svg width="152" height="63" viewBox="0 0 152 63" fill="none" xmlns="http://www.w3.org/2000/svg">
<path d="M15.6496 45.647L3.89733 43.3882C2.38363 40.2257 1.907 36.67 2.53475 33.2235C2.55633 31.9371 2.67017 30.6538 2.87539 29.3835C3.47813 27.9422 4.53377 26.7337 5.88442 25.9388V23.3976C5.67823 22.0137 5.56443 20.6177 5.54378 19.2188C5.95891 18.1587 6.69242 17.2517 7.64442 16.6211C8.77991 15.8306 16.3876 9.33643 16.3876 9.33643L15.8199 7.64232C30.1964 5.00981 44.8094 3.87427 59.4225 4.25408C67.1632 3.9969 74.9022 4.81418 82.416 6.68231C86.6173 8.15055 103.252 16.6211 104.388 17.2423C109.138 19.2541 114.177 20.5118 119.319 20.9694C127.11 21.8717 134.817 23.3822 142.37 25.487C145.095 26.6164 148.047 27.8588 148.842 31.4164C150.421 36.2617 150.421 41.4794 148.842 46.3247L142.824 47.4541L140.382 48.6964H132.718" fill="white"/>
<path d="M140.154 50.0518H132.49C132.114 50.0518 131.752 49.9031 131.486 49.6383C131.22 49.3735 131.071 49.0145 131.071 48.64C131.071 48.2656 131.22 47.9065 131.486 47.6418C131.752 47.377 132.114 47.2283 132.49 47.2283H139.871L141.971 46.0989C142.098 46.0429 142.232 46.0048 142.369 45.9859L147.478 45.0824C148.693 41.0294 148.693 36.7119 147.478 32.6589L147.251 31.7553C146.683 28.9318 144.526 27.9153 141.574 26.673C134.13 24.622 126.537 23.1494 118.864 22.2683C113.585 21.7897 108.413 20.4941 103.535 18.4283C96.3938 14.6744 89.1222 11.1711 81.7338 7.92474C74.3666 6.10428 66.7816 5.30613 59.1945 5.55297C45.2571 5.34501 31.3291 6.38449 17.579 8.65885V8.71532C17.6852 8.98741 17.704 9.28555 17.6328 9.56872C17.5617 9.85188 17.404 10.1061 17.1816 10.2965C14.3061 12.8446 11.3914 15.3484 8.43833 17.8071C7.76706 18.2463 7.21984 18.8489 6.84866 19.5577C6.89032 20.8055 7.00406 22.0499 7.1893 23.2847V25.9953C7.18005 26.2396 7.10716 26.4774 6.97778 26.6853C6.8484 26.8931 6.66697 27.064 6.45124 27.1812C5.45918 27.8122 4.67078 28.714 4.18027 29.7788C3.98371 30.9364 3.86987 32.1064 3.83962 33.28C3.25065 36.283 3.58705 39.3928 4.80479 42.2024L15.8758 44.2353C16.0621 44.2724 16.2394 44.3456 16.3973 44.4508C16.5552 44.556 16.6908 44.6912 16.7962 44.8485C16.9017 45.0058 16.9749 45.1822 17.0118 45.3677C17.0487 45.5532 17.0485 45.744 17.0112 45.9294C16.974 46.1148 16.9003 46.2911 16.7946 46.4482C16.6888 46.6053 16.553 46.7401 16.3948 46.845C16.2366 46.9499 16.0593 47.0227 15.8728 47.0594C15.6863 47.0961 15.4944 47.0959 15.308 47.0589L3.55575 44.8C3.33459 44.7583 3.12657 44.6648 2.94888 44.5274C2.77119 44.3899 2.62892 44.2124 2.53382 44.0094C0.875044 40.5481 0.377505 36.6485 1.11446 32.8847C1.10649 31.5969 1.22054 30.3113 1.45511 29.0447C2.01601 27.5074 3.0239 26.1708 4.35059 25.2047V23.5106C4.09088 22.0195 3.99569 20.5046 4.06672 18.993C4.5832 17.6166 5.51531 16.4331 6.73511 15.6047C7.52995 15.04 11.8448 11.313 14.5699 8.94121L14.2861 8.26356C14.2066 8.07181 14.1706 7.865 14.1806 7.65783C14.1906 7.45067 14.2463 7.24824 14.3439 7.06493C14.4415 6.88163 14.5784 6.72197 14.7451 6.59729C14.9117 6.47261 15.1039 6.38598 15.308 6.34356C29.7919 3.64798 44.5206 2.47447 59.2512 2.84238C67.1478 2.60356 75.0394 3.45882 82.699 5.38356C87.0138 6.85179 103.819 15.5483 104.841 16.113C109.425 18.06 114.294 19.2612 119.262 19.6706C127.185 20.5596 135.025 22.0702 142.709 24.1883C144.433 24.6292 146.013 25.5056 147.296 26.7324C148.579 27.9592 149.522 29.4949 150.033 31.1906L150.203 32.0941C151.654 36.9134 151.575 42.0602 149.976 46.833C149.9 47.0745 149.759 47.2911 149.569 47.46C149.38 47.6289 149.148 47.7439 148.898 47.793L143.05 48.9224L140.779 50.0518C140.565 50.1447 140.331 50.1835 140.098 50.1647L140.154 50.0518Z" fill="#53B175"/>
<path d="M74.2403 62.6441C109.829 62.6441 138.679 61.203 138.679 59.4252C138.679 57.6475 109.829 56.2064 74.2403 56.2064C38.6518 56.2064 9.80161 57.6475 9.80161 59.4252C9.80161 61.203 38.6518 62.6441 74.2403 62.6441Z" fill="#ACD3E4"/>
<path d="M28.1398 58.0138C35.0066 58.0138 40.5733 52.4769 40.5733 45.6468C40.5733 38.8166 35.0066 33.2797 28.1398 33.2797C21.2729 33.2797 15.7062 38.8166 15.7062 45.6468C15.7062 52.4769 21.2729 58.0138 28.1398 58.0138Z" fill="#CAE2ED"/>
<path d="M28.1396 59.4822C25.4022 59.4822 22.7262 58.6754 20.4493 57.1639C18.1725 55.6523 16.3969 53.5037 15.3467 50.9892C14.2966 48.4748 14.019 45.7072 14.5489 43.0359C15.0788 40.3647 16.3926 37.9094 18.3243 35.9802C20.2559 34.051 22.719 32.7342 25.4024 32.1962C28.0859 31.6582 30.8694 31.923 33.4017 32.9572C35.9339 33.9915 38.1014 35.7488 39.6304 38.0072C41.1593 40.2657 41.9813 42.9241 41.9925 45.6469C41.9925 49.3013 40.533 52.806 37.9351 55.39C35.3372 57.974 31.8137 59.4257 28.1396 59.4257V59.4822ZM28.1396 34.6351C25.9637 34.6241 23.8332 35.2544 22.0171 36.4464C20.2009 37.6385 18.7804 39.3389 17.9349 41.3331C17.0893 43.3273 16.8566 45.526 17.266 47.6516C17.6754 49.7773 18.7087 51.7347 20.2354 53.2769C21.7621 54.819 23.7139 55.8768 25.8444 56.3168C27.9749 56.7568 30.1887 56.5592 32.2065 55.749C34.2242 54.9388 35.9555 53.5524 37.1818 51.7645C38.4081 49.9766 39.0746 47.8676 39.0971 45.7034C39.0821 42.8024 37.9169 40.0245 35.8546 37.9732C33.7922 35.9219 30.9994 34.7629 28.0829 34.7481L28.1396 34.6351Z" fill="#53B175"/>
<path d="M120.397 58.0138C127.264 58.0138 132.831 52.4769 132.831 45.6468C132.831 38.8166 127.264 33.2797 120.397 33.2797C113.53 33.2797 107.964 38.8166 107.964 45.6468C107.964 52.4769 113.53 58.0138 120.397 58.0138Z" fill="#CAE2ED"/>
<path d="M120.398 59.4822C117.66 59.4822 114.984 58.6754 112.708 57.1639C110.431 55.6523 108.655 53.5037 107.605 50.9892C106.555 48.4748 106.277 45.7072 106.807 43.0359C107.337 40.3647 108.651 37.9094 110.582 35.9802C112.514 34.051 114.977 32.7342 117.661 32.1962C120.344 31.6582 123.128 31.923 125.66 32.9572C128.192 33.9915 130.36 35.7488 131.889 38.0072C133.418 40.2657 134.239 42.9241 134.251 45.6469C134.251 47.4611 133.891 49.2575 133.191 50.9329C132.491 52.6083 131.466 54.1298 130.173 55.41C128.881 56.6902 127.347 57.704 125.66 58.3931C123.972 59.0822 122.165 59.4331 120.341 59.4257L120.398 59.4822ZM120.398 34.6351C118.222 34.6352 116.095 35.2763 114.285 36.4776C112.475 37.6789 111.063 39.3865 110.228 41.3851C109.392 43.3836 109.171 45.5834 109.591 47.707C110.012 49.8306 111.055 51.7827 112.59 53.317C114.124 54.8514 116.082 55.8992 118.214 56.3283C120.347 56.7573 122.56 56.5484 124.574 55.7279C126.587 54.9074 128.311 53.512 129.528 51.7179C130.745 49.9237 131.401 47.8112 131.412 45.6469C131.397 42.7362 130.224 39.9498 128.149 37.8969C126.075 35.844 123.267 34.6916 120.341 34.6916L120.398 34.6351Z" fill="#53B175"/>
<path d="M120.397 52.7055C124.316 52.7055 127.493 49.5452 127.493 45.6467C127.493 41.7482 124.316 38.5879 120.397 38.5879C116.477 38.5879 113.3 41.7482 113.3 45.6467C113.3 49.5452 116.477 52.7055 120.397 52.7055Z" fill="white"/>
<path d="M113.244 45.6459C113.251 44.1325 113.747 42.6615 114.658 41.4498C115.57 40.2381 116.849 39.3498 118.307 38.9161C119.764 38.4824 121.324 38.5261 122.754 39.0409C124.185 39.5556 125.412 40.5141 126.253 41.775C127.095 43.0359 127.507 44.5324 127.428 46.0437C127.349 47.5551 126.784 49.0013 125.816 50.169C124.849 51.3367 123.529 52.1642 122.052 52.5292C120.576 52.8943 119.02 52.7776 117.616 52.1965C116.131 51.5682 114.908 50.4518 114.152 49.0341" fill="white"/>
<path d="M120.284 53.4409C119.25 53.4334 118.227 53.2223 117.275 52.8197C115.66 52.1482 114.32 50.9545 113.471 49.4315C113.435 49.2812 113.447 49.1233 113.506 48.9803C113.565 48.8374 113.668 48.7166 113.8 48.6352C113.932 48.5539 114.087 48.5161 114.242 48.5272C114.397 48.5384 114.544 48.5979 114.663 48.6973C115.388 50.0589 116.587 51.1106 118.036 51.6551C119.485 52.1995 121.084 52.1993 122.532 51.6544C123.981 51.1095 125.18 50.0574 125.904 48.6956C126.628 47.3338 126.828 45.756 126.465 44.2582C126.103 42.7605 125.203 41.4458 123.935 40.561C122.667 39.6762 121.119 39.2821 119.579 39.4527C118.04 39.6233 116.616 40.3468 115.575 41.4875C114.534 42.6282 113.947 44.1075 113.925 45.6479C113.881 45.8013 113.788 45.9363 113.66 46.0324C113.532 46.1284 113.376 46.1804 113.216 46.1804C113.055 46.1804 112.899 46.1284 112.771 46.0324C112.643 45.9363 112.55 45.8013 112.506 45.6479C112.492 44.6226 112.685 43.6049 113.074 42.655C113.61 41.344 114.495 40.2031 115.634 39.3545C116.772 38.506 118.122 37.982 119.538 37.8387C120.953 37.6954 122.381 37.9383 123.669 38.5412C124.956 39.1441 126.054 40.0843 126.845 41.261C127.635 42.4376 128.089 43.8062 128.157 45.2199C128.225 46.6336 127.904 48.0389 127.23 49.2852C126.555 50.5314 125.553 51.5714 124.329 52.2936C123.105 53.0158 121.707 53.3929 120.284 53.3844V53.4409ZM108.021 48.9232H48.0104C47.634 48.9232 47.273 48.7745 47.0068 48.5097C46.7406 48.245 46.5911 47.8859 46.5911 47.5115C46.5911 47.137 46.7406 46.7779 47.0068 46.5132C47.273 46.2484 47.634 46.0997 48.0104 46.0997H108.078C108.454 46.0997 108.815 46.2484 109.081 46.5132C109.347 46.7779 109.497 47.137 109.497 47.5115C109.497 47.8859 109.347 48.245 109.081 48.5097C108.815 48.7745 108.454 48.9232 108.078 48.9232H108.021ZM103.081 43.3891H40.4595C40.3052 43.3453 40.1696 43.2527 40.073 43.1253C39.9764 42.998 39.9241 42.8428 39.9241 42.6832C39.9241 42.5237 39.9764 42.3685 40.073 42.2411C40.1696 42.1138 40.3052 42.0212 40.4595 41.9773H102.57C103.077 38.8291 104.496 35.8964 106.655 33.539C108.813 31.1817 111.616 29.5022 114.72 28.7067C114.814 28.6818 114.911 28.677 115.007 28.6926C115.103 28.7083 115.194 28.744 115.274 28.7975C115.355 28.8509 115.423 28.9208 115.474 29.0026C115.526 29.0843 115.559 29.176 115.572 29.2715C115.59 29.4494 115.543 29.6279 115.438 29.7735C115.334 29.9191 115.179 30.0217 115.004 30.062C112.106 30.8709 109.509 32.5044 107.532 34.7617C105.555 37.0191 104.284 39.8019 103.876 42.7679C103.837 42.9321 103.742 43.0778 103.608 43.1807C103.474 43.2835 103.308 43.3372 103.138 43.3326L103.081 43.3891Z" fill="#53B175"/>
<path d="M45.3423 17.9202L26.8906 15.6614C25.7394 14.2606 24.6775 12.7895 23.7113 11.2567C35.4983 9.77468 47.3715 9.07666 59.2519 9.16727C67.0116 8.90482 74.77 9.72214 82.3023 11.5955C85.7087 12.7249 96.8932 18.372 101.889 20.9696L45.3423 17.9202Z" fill="#CAE2ED"/>
<path d="M101.89 22.3811H101.833L45.3424 19.3882H45.1721L26.7773 17.1294C26.4272 17.1009 26.1018 16.939 25.8689 16.6776C24.6559 15.2449 23.537 13.7359 22.5192 12.16C22.3802 11.9583 22.2962 11.7242 22.2755 11.4805C22.2548 11.2369 22.2981 10.992 22.4011 10.77C22.5041 10.548 22.6633 10.3564 22.8632 10.214C23.063 10.0716 23.2966 9.98323 23.5411 9.95762C35.402 8.44752 47.3515 7.73061 59.3089 7.81174C67.2245 7.56395 75.1361 8.41931 82.8134 10.3529C86.447 11.5953 98.8805 17.8635 102.571 19.7835C102.843 19.9276 103.06 20.1557 103.19 20.4335C103.32 20.7112 103.356 21.0235 103.292 21.3231C103.227 21.6228 103.067 21.8936 102.835 22.0946C102.602 22.2957 102.31 22.4161 102.003 22.4376L101.89 22.3811ZM45.5127 16.5647L95.2469 19.2188L81.7915 13.007C74.4242 11.1866 66.8392 10.3884 59.2521 10.6353C48.1924 10.5725 37.1391 11.1759 26.1527 12.4423L27.5721 14.3623L45.5127 16.6211V16.5647Z" fill="#53B175"/>
<path d="M90.1939 21.6472H94.3952C94.8181 21.6341 95.2209 21.465 95.5252 21.1727C95.8296 20.8804 96.0137 20.4859 96.0417 20.0661C96.0417 19.8436 95.9976 19.6233 95.912 19.4178C95.8264 19.2122 95.701 19.0255 95.5428 18.8681C95.3846 18.7108 95.1969 18.586 94.9902 18.5009C94.7836 18.4158 94.5621 18.3719 94.3384 18.3719H90.1939V21.6472Z" fill="#53B175"/>
<path d="M94.3387 23.1158H90.1942C89.8178 23.1158 89.4568 22.967 89.1906 22.7023C88.9244 22.4375 88.7749 22.0784 88.7749 21.704V18.4287C88.7749 18.0543 88.9244 17.6952 89.1906 17.4304C89.4568 17.1657 89.8178 17.0169 90.1942 17.0169H94.3955C95.2086 17.0169 95.9884 17.3382 96.5634 17.9101C97.1383 18.482 97.4613 19.2576 97.4613 20.0663C97.4613 20.8751 97.1383 21.6507 96.5634 22.2226C95.9884 22.7945 95.2086 23.1158 94.3955 23.1158H94.3387ZM91.5 20.2922H94.3387V19.8405H91.5V20.2922ZM66.5194 39.2663C66.3517 39.2554 66.1928 39.1879 66.0689 39.075C65.945 38.962 65.8636 38.8104 65.8381 38.6452C64.6928 27.3405 63.0447 16.0918 60.8987 4.93223C60.9278 4.7858 61.0011 4.65168 61.1088 4.54773C61.2165 4.44378 61.3534 4.37495 61.5015 4.35042C61.6495 4.32588 61.8015 4.3468 61.9372 4.41039C62.073 4.47398 62.186 4.57722 62.2613 4.70634C62.2613 4.87575 66.2355 25.6005 67.2574 38.5887C67.258 38.774 67.1881 38.9527 67.0617 39.0888C66.9353 39.225 66.7619 39.3086 66.5761 39.3228L66.5194 39.2663ZM73.9 24.471H68.2226C68.0684 24.4272 67.9327 24.3346 67.8361 24.2073C67.7395 24.0799 67.6873 23.9247 67.6873 23.7652C67.6873 23.6056 67.7395 23.4504 67.8361 23.3231C67.9327 23.1957 68.0684 23.1031 68.2226 23.0593H73.9C74.0542 23.1031 74.1899 23.1957 74.2865 23.3231C74.3831 23.4504 74.4354 23.6056 74.4354 23.7652C74.4354 23.9247 74.3831 24.0799 74.2865 24.2073C74.1899 24.3346 74.0542 24.4272 73.9 24.471V24.471ZM39.4381 23.5675H33.7607C33.6064 23.5237 33.4708 23.4311 33.3742 23.3037C33.2776 23.1764 33.2253 23.0212 33.2253 22.8616C33.2253 22.7021 33.2776 22.5469 33.3742 22.4195C33.4708 22.2922 33.6064 22.1996 33.7607 22.1558H39.4381C39.5923 22.1996 39.728 22.2922 39.8246 22.4195C39.9212 22.5469 39.9734 22.7021 39.9734 22.8616C39.9734 23.0212 39.9212 23.1764 39.8246 23.3037C39.728 23.4311 39.5923 23.5237 39.4381 23.5675V23.5675ZM24.3929 6.62634C24.2686 6.62678 24.1461 6.59594 24.0369 6.53671C23.9277 6.47747 23.8354 6.39176 23.7684 6.28752C23.6849 6.12146 23.6677 5.93009 23.7204 5.75196C23.7731 5.57383 23.8917 5.42217 24.0523 5.32752C26.4406 4.04917 28.9054 2.91764 31.4329 1.93929C34.2352 1.31799 37.083 0.921421 39.949 0.753403L68.9039 1.20517C72.8563 1.80875 76.6883 3.02843 80.2587 4.81928C80.3849 4.92012 80.4742 5.0594 80.513 5.21569C80.5517 5.37198 80.5378 5.5366 80.4732 5.68423C80.4087 5.83185 80.2972 5.95428 80.1558 6.03268C80.0145 6.11108 79.8512 6.14109 79.691 6.11811C76.2299 4.37645 72.5119 3.19457 68.6768 2.61693C59.15 2.04966 49.6027 1.89892 40.0626 2.16517C37.3119 2.32771 34.5783 2.70535 31.8871 3.29458C29.4594 4.24791 27.0898 5.34153 24.7903 6.56987C24.6666 6.62797 24.5281 6.64765 24.3929 6.62634V6.62634Z" fill="#53B175"/>
<path d="M33.9876 5.94869C33.8659 5.94202 33.7483 5.90302 33.6469 5.83575C33.4863 5.7411 33.3677 5.58944 33.3151 5.41131C33.2624 5.23318 33.2795 5.04181 33.3631 4.87575L35.2366 1.48751C35.3463 1.3802 35.487 1.30967 35.639 1.28578C35.7909 1.26189 35.9466 1.28584 36.0842 1.35428C36.2218 1.42273 36.3345 1.53223 36.4065 1.6675C36.4785 1.80276 36.5061 1.95702 36.4856 2.10869L34.6121 5.49693C34.5572 5.60401 34.4768 5.69605 34.3778 5.76497C34.2788 5.8339 34.1643 5.87759 34.0443 5.89222L33.9876 5.94869ZM47.6134 4.93222C47.5193 4.94005 47.4245 4.92833 47.3352 4.8978C47.2459 4.86726 47.1639 4.81859 47.0945 4.75487C47.0251 4.69115 46.9698 4.61376 46.932 4.52764C46.8943 4.44151 46.875 4.34852 46.8753 4.25457V1.3181C46.8753 1.1234 46.9531 0.936675 47.0915 0.799001C47.2299 0.661328 47.4176 0.583984 47.6134 0.583984C47.8091 0.583984 47.9969 0.661328 48.1353 0.799001C48.2737 0.936675 48.3514 1.1234 48.3514 1.3181V4.31104C48.3371 4.49579 48.2531 4.66832 48.1162 4.79401C47.9793 4.91969 47.7997 4.98924 47.6134 4.98869V4.93222ZM5.88435 27.5205C5.73877 27.5066 5.6006 27.4501 5.48738 27.3581C5.37415 27.266 5.29097 27.1426 5.24839 27.0034C5.20581 26.8643 5.20575 26.7157 5.24822 26.5765C5.29069 26.4373 5.37377 26.3138 5.48693 26.2216L16.0469 19.5581C12.62 18.8326 9.06372 18.9881 5.71402 20.0099C5.61932 20.0682 5.51256 20.1045 5.40175 20.116C5.29094 20.1274 5.17896 20.1138 5.0742 20.0761C4.96944 20.0384 4.87462 19.9776 4.79685 19.8982C4.71908 19.8189 4.66039 19.7231 4.62516 19.6179C4.58993 19.5128 4.57908 19.4011 4.59343 19.2912C4.60778 19.1813 4.64695 19.0761 4.70802 18.9834C4.76908 18.8907 4.85044 18.813 4.94601 18.7561C5.04157 18.6991 5.14886 18.6644 5.25983 18.6546C8.98432 17.5409 12.9352 17.4047 16.7282 18.2593C17.0008 18.2887 17.2572 18.4027 17.461 18.5851C17.6648 18.7676 17.8057 19.0092 17.8637 19.2757C17.8898 19.5414 17.8329 19.8087 17.7009 20.0411C17.5688 20.2735 17.3679 20.4598 17.1256 20.5746L6.16822 27.2946C6.06687 27.3618 5.94923 27.4008 5.82757 27.4075L5.88435 27.5205Z" fill="#53B175"/>
<path d="M5.48677 19.2748C9.08132 18.1971 12.8948 18.061 16.5577 18.8795C17.3526 19.0489 17.239 19.6136 16.7848 19.896L11.5616 22.8889H5.77064L5.48677 19.2748ZM148.898 34.409H148.842C148.501 34.409 140.439 33.2795 138.849 32.7148C136.2 31.1664 133.693 29.3902 131.355 27.4066C131.247 27.3215 131.167 27.2057 131.127 27.0746C131.086 26.9436 131.087 26.8033 131.128 26.6725C131.158 26.5339 131.227 26.4068 131.328 26.3066C131.429 26.2064 131.556 26.1374 131.696 26.1078C137.477 26.0289 143.207 27.1843 148.501 29.496C148.603 29.602 148.672 29.7361 148.697 29.881C148.722 30.026 148.702 30.175 148.641 30.3089C148.58 30.4428 148.48 30.5553 148.354 30.6319C148.227 30.7084 148.081 30.7455 147.933 30.7384C143.417 28.8736 138.62 27.7668 133.74 27.4631H133.626C135.394 28.9498 137.294 30.2729 139.304 31.416C140.439 31.8113 146.684 32.7148 148.955 33.1101C149.108 33.1597 149.24 33.2576 149.332 33.3889C149.424 33.5201 149.47 33.6776 149.464 33.8374C149.457 33.9971 149.399 34.1505 149.297 34.274C149.194 34.3976 149.055 34.4846 148.898 34.5219V34.409Z" fill="#53B175"/>
<path d="M140.893 27.6892C137.939 26.8788 134.864 26.5921 131.81 26.8421C134.211 28.812 136.754 30.605 139.417 32.2068L142.256 32.7715L140.893 27.6892ZM16.274 42.5409C16.2174 42.547 16.1603 42.547 16.1037 42.5409C13.0305 41.84 9.99805 40.9728 7.01984 39.9433C6.91913 39.8942 6.83099 39.8229 6.76212 39.7348C6.69326 39.6468 6.64548 39.5442 6.62242 39.4351C6.225 37.9668 4.9192 34.0703 2.47791 33.9574C2.32368 33.9136 2.188 33.821 2.09141 33.6936C1.99482 33.5663 1.94257 33.4111 1.94257 33.2515C1.94257 33.092 1.99482 32.9368 2.09141 32.8094C2.188 32.6821 2.32368 32.5895 2.47791 32.5456H2.53468C5.94113 32.7151 7.53081 37.4021 7.87145 38.7574C10.4831 39.7739 16.3876 41.1856 16.3876 41.1856C16.5401 41.2447 16.6686 41.3526 16.7528 41.4923C16.837 41.632 16.8721 41.7955 16.8526 41.9572C16.8331 42.1189 16.7601 42.2695 16.645 42.3854C16.53 42.5013 16.3795 42.5759 16.2173 42.5974L16.274 42.5409Z" fill="#53B175"/>
<path d="M28.1397 52.7055C32.0592 52.7055 35.2365 49.5452 35.2365 45.6467C35.2365 41.7482 32.0592 38.5879 28.1397 38.5879C24.2203 38.5879 21.043 41.7482 21.043 45.6467C21.043 49.5452 24.2203 52.7055 28.1397 52.7055Z" fill="white"/>
<path d="M21.0429 44.7997C20.9356 44.801 20.8294 44.779 20.7315 44.7353C20.6337 44.6915 20.5466 44.6271 20.4764 44.5465C20.4061 44.4658 20.3544 44.3709 20.3247 44.2684C20.2951 44.1658 20.2883 44.0581 20.3048 43.9527C20.6565 42.3551 21.5118 40.9108 22.7461 39.8303C22.8967 39.703 23.0919 39.6404 23.2889 39.6563C23.4859 39.6722 23.6685 39.7653 23.7964 39.915C23.9244 40.0648 23.9874 40.259 23.9714 40.4549C23.9554 40.6508 23.8619 40.8324 23.7113 40.9597C22.6984 41.846 22.0012 43.0347 21.7242 44.348C21.6773 44.4923 21.5867 44.6187 21.4647 44.7097C21.3427 44.8007 21.1953 44.8519 21.0429 44.8562V44.7997ZM28.0261 53.4397C26.2291 53.433 24.4873 52.8208 23.085 51.7029C21.6828 50.5851 20.7027 49.0275 20.3048 47.2844C20.271 47.0976 20.3113 46.9051 20.4171 46.7471C20.523 46.5892 20.6862 46.4782 20.8726 46.4374C21.0604 46.4038 21.254 46.4438 21.4128 46.5491C21.5716 46.6544 21.6832 46.8167 21.7242 47.0021C21.9855 48.2621 22.6235 49.4141 23.5547 50.307C24.4859 51.2 25.6666 51.7921 26.9421 52.0057C28.2176 52.2193 29.5282 52.0445 30.702 51.5041C31.8758 50.9638 32.858 50.0831 33.5198 48.9777C34.1815 47.8723 34.4918 46.5938 34.4101 45.3098C34.3283 44.0259 33.8583 42.7965 33.0617 41.7829C32.2651 40.7694 31.179 40.019 29.946 39.6302C28.7131 39.2415 27.3908 39.2325 26.1526 39.6044C26.0635 39.6396 25.9679 39.6556 25.8721 39.6515C25.7764 39.6474 25.6825 39.6232 25.5968 39.5806C25.5111 39.538 25.4354 39.4778 25.3746 39.4041C25.3138 39.3303 25.2694 39.2447 25.2442 39.1527C25.1892 38.9729 25.2057 38.7789 25.2902 38.6109C25.3747 38.4428 25.5208 38.3133 25.6984 38.2491C26.7718 37.9239 27.903 37.8318 29.0154 37.9791C30.1277 38.1265 31.1952 38.5097 32.1458 39.103C33.0963 39.6962 33.9076 40.4857 34.5247 41.4179C35.1419 42.35 35.5506 43.4032 35.7231 44.5061C35.8955 45.609 35.8278 46.7359 35.5245 47.8105C35.2212 48.8851 34.6893 49.8823 33.9649 50.7347C33.2404 51.5872 32.3404 52.2749 31.3256 52.7513C30.3108 53.2277 29.205 53.4817 28.0829 53.4962L28.0261 53.4397Z" fill="#53B175"/>
<path d="M101.889 20.9691L106.091 22.8892Z" fill="#CAE2ED"/>
<path d="M106.09 24.3013C105.891 24.2835 105.698 24.2259 105.522 24.1318L101.321 22.2683C100.975 22.1185 100.702 21.8381 100.564 21.4886C100.426 21.1391 100.432 20.7493 100.583 20.4048C100.734 20.0603 101.016 19.7895 101.367 19.6518C101.718 19.5141 102.11 19.5209 102.457 19.6707L106.715 21.5907C107.017 21.7186 107.265 21.9466 107.417 22.2359C107.568 22.5252 107.615 22.8579 107.548 23.1775C107.481 23.497 107.305 23.7836 107.049 23.9885C106.794 24.1934 106.475 24.3039 106.147 24.3013H106.09Z" fill="#53B175"/>
</svg>
