<svg width="171" height="71" viewBox="0 0 171 71" fill="none" xmlns="http://www.w3.org/2000/svg">
<path d="M22.8387 54.4937L5.33866 51.2184C3.75802 50.8795 1.16124 49.5243 1.66931 39.0772C1.66931 39.0772 4.20963 36.8184 4.20963 35.1242C3.37822 32.5239 3.11927 29.7744 3.45058 27.0646C3.7819 24.3547 4.69562 21.7486 6.12899 19.4254C8.7295 15.9116 11.5582 12.5726 14.5967 9.43013L12.6209 6.15483L14.6532 5.59013L70.1451 4.23483C95.379 4.23483 104.581 7.05836 106.613 7.62307C115.08 11.1816 123.286 15.333 131.169 20.0466C136.24 23.1879 141.88 25.2987 147.766 26.2584C151.521 27.0132 155.219 28.0322 158.831 29.3078C161.703 31.2223 163.85 34.0461 164.927 37.3266C166.333 38.5221 167.585 39.8878 168.653 41.3925L168.089 51.896L169.556 54.4937C164.386 55.5775 159.139 56.2572 153.863 56.5266" fill="white"/>
<path d="M153.806 57.9948C153.432 57.9948 153.073 57.846 152.809 57.5813C152.544 57.3165 152.395 56.9574 152.395 56.583C152.395 56.2086 152.544 55.8495 152.809 55.5847C153.073 55.32 153.432 55.1712 153.806 55.1712C158.36 54.9593 162.89 54.3928 167.355 53.4771L166.79 52.6301C166.661 52.3876 166.602 52.1137 166.621 51.8395L167.186 41.7877C166.219 40.5793 165.142 39.4639 163.968 38.4559C163.795 38.3004 163.66 38.1072 163.573 37.8912C162.626 34.9119 160.695 32.3431 158.097 30.6065C154.588 29.4136 151.005 28.4515 147.371 27.7265L146.976 27.6136C141.044 26.6249 135.366 24.4757 130.266 21.2889C122.503 16.6548 114.43 12.5604 106.105 9.03476C94.3197 6.20965 82.1938 5.0689 70.0887 5.64653L14.6533 6.94535L15.7823 8.63947C15.9491 8.9135 16.0176 9.23621 15.9766 9.55442C15.9356 9.87262 15.7874 10.1674 15.5565 10.3901C12.5679 13.4865 9.77747 16.7683 7.20165 20.2159C5.92624 22.108 5.09167 24.2623 4.75948 26.52C4.42729 28.7777 4.60595 31.0812 5.28229 33.2606C5.43293 33.8719 5.52741 34.4957 5.56455 35.1242C5.2642 36.9071 4.34464 38.5269 2.96778 39.6983C2.74197 45.9101 3.53229 49.4112 5.56455 49.863L23.0646 53.1383C23.2517 53.1719 23.4301 53.2429 23.589 53.3471C23.748 53.4513 23.8843 53.5866 23.9898 53.7448C24.0952 53.903 24.1676 54.0809 24.2026 54.2678C24.2377 54.4547 24.2346 54.6467 24.1936 54.8324C24.125 55.1987 23.9144 55.523 23.6077 55.7346C23.301 55.9461 22.9231 56.0278 22.5565 55.9618L4.94358 52.5736C1.21778 51.7265 -0.249964 47.4912 0.145197 39.0206C0.193884 38.6659 0.375495 38.3429 0.653262 38.1171C1.59172 37.3475 2.29577 36.3302 2.68552 35.1806L2.45971 33.8818C1.70939 31.3193 1.53794 28.6219 1.95776 25.985C2.37758 23.348 3.37817 20.8374 4.88713 18.6348C7.34884 15.3684 9.98719 12.239 12.7904 9.26064L11.3226 7.00182C11.2103 6.81431 11.1431 6.60328 11.1263 6.38536C11.1094 6.16744 11.1434 5.94857 11.2255 5.74601C11.3075 5.54345 11.4355 5.36272 11.5993 5.21807C11.7631 5.07341 11.9583 4.96878 12.1694 4.91241L14.2581 4.3477C14.8226 4.29123 45.1936 2.99241 70.1452 2.99241C82.5556 2.39176 94.9881 3.57077 107.065 6.49359C115.631 10.1001 123.931 14.3082 131.903 19.0865C136.7 22.053 142.032 24.0483 147.597 24.9595L147.992 25.0724C151.924 25.8564 155.792 26.9323 159.565 28.2912C162.64 30.2837 164.964 33.2443 166.169 36.7054C167.604 37.9349 168.858 39.3607 169.895 40.9406C170.005 41.1496 170.063 41.3821 170.065 41.6183L169.5 51.783L170.798 54.0418C170.91 54.237 170.974 54.456 170.984 54.6808C170.994 54.9055 170.951 55.1295 170.857 55.3339C170.763 55.5383 170.621 55.7173 170.444 55.856C170.267 55.9947 170.06 56.0891 169.839 56.1312C164.577 57.2489 159.235 57.9476 153.863 58.2207L153.806 57.9948Z" fill="#53B175"/>
<path d="M88.3789 70.6441C127.725 70.6441 159.621 69.203 159.621 67.4252C159.621 65.6475 127.725 64.2064 88.3789 64.2064C49.0331 64.2064 17.137 65.6475 17.137 67.4252C17.137 69.203 49.0331 70.6441 88.3789 70.6441Z" fill="#ACD3E4"/>
<path d="M36.4435 66.014C43.9572 66.014 50.0483 59.9208 50.0483 52.4045C50.0483 44.8883 43.9572 38.7951 36.4435 38.7951C28.9297 38.7951 22.8386 44.8883 22.8386 52.4045C22.8386 59.9208 28.9297 66.014 36.4435 66.014Z" fill="#CAE2ED"/>
<path d="M36.3866 67.4825C33.4166 67.4825 30.5134 66.6015 28.044 64.9509C25.5747 63.3004 23.65 60.9544 22.5135 58.2096C21.3769 55.4649 21.0796 52.4446 21.659 49.5308C22.2384 46.617 23.6685 43.9404 25.7686 41.8397C27.8686 39.739 30.5442 38.3083 33.4571 37.7287C36.3699 37.1491 39.3891 37.4466 42.133 38.5835C44.8768 39.7204 47.222 41.6457 48.872 44.116C50.522 46.5862 51.4027 49.4904 51.4027 52.4613C51.4027 56.4451 49.8206 60.2658 47.0046 63.0829C44.1885 65.8999 40.3691 67.4825 36.3866 67.4825V67.4825ZM36.3866 40.2636C33.9749 40.2636 31.6174 40.979 29.6122 42.3193C27.607 43.6596 26.0441 45.5646 25.1212 47.7934C24.1983 50.0223 23.9568 52.4748 24.4273 54.8409C24.8978 57.207 26.0591 59.3804 27.7644 61.0863C29.4697 62.7922 31.6424 63.9539 34.0077 64.4245C36.373 64.8952 38.8247 64.6536 41.0528 63.7304C43.2809 62.8072 45.1853 61.2438 46.5251 59.2379C47.865 57.232 48.5801 54.8737 48.5801 52.4613C48.5653 49.2308 47.2758 46.1369 44.9923 43.8526C42.7088 41.5684 39.6159 40.2785 36.3866 40.2636V40.2636Z" fill="#53B175"/>
<path d="M36.4431 60.1976C40.7456 60.1976 44.2334 56.7086 44.2334 52.4047C44.2334 48.1008 40.7456 44.6118 36.4431 44.6118C32.1406 44.6118 28.6528 48.1008 28.6528 52.4047C28.6528 56.7086 32.1406 60.1976 36.4431 60.1976Z" fill="white"/>
<path d="M140.935 66.014C148.449 66.014 154.54 59.9208 154.54 52.4045C154.54 44.8883 148.449 38.7951 140.935 38.7951C133.421 38.7951 127.33 44.8883 127.33 52.4045C127.33 59.9208 133.421 66.014 140.935 66.014Z" fill="#CAE2ED"/>
<path d="M140.935 67.4825C137.965 67.4825 135.062 66.6015 132.593 64.9509C130.123 63.3004 128.199 60.9544 127.062 58.2096C125.925 55.4649 125.628 52.4446 126.207 49.5308C126.787 46.617 128.217 43.9404 130.317 41.8397C132.417 39.739 135.093 38.3083 138.006 37.7287C140.918 37.1491 143.938 37.4466 146.682 38.5835C149.425 39.7204 151.771 41.6457 153.421 44.116C155.071 46.5862 155.951 49.4904 155.951 52.4613C155.936 56.4406 154.35 60.2526 151.537 63.0664C148.724 65.8802 144.913 67.4676 140.935 67.4825V67.4825ZM140.935 40.2636C138.523 40.2636 136.166 40.979 134.161 42.3193C132.155 43.6596 130.593 45.5646 129.67 47.7934C128.747 50.0223 128.505 52.4748 128.976 54.8409C129.446 57.207 130.608 59.3804 132.313 61.0863C134.018 62.7922 136.191 63.9539 138.556 64.4245C140.922 64.8952 143.373 64.6536 145.601 63.7304C147.829 62.8072 149.734 61.2438 151.074 59.2379C152.414 57.232 153.129 54.8737 153.129 52.4613C153.114 49.2308 151.824 46.1369 149.541 43.8526C147.257 41.5684 144.164 40.2785 140.935 40.2636V40.2636Z" fill="#53B175"/>
<path d="M140.935 60.1976C145.238 60.1976 148.726 56.7086 148.726 52.4047C148.726 48.1008 145.238 44.6118 140.935 44.6118C136.633 44.6118 133.145 48.1008 133.145 52.4047C133.145 56.7086 136.633 60.1976 140.935 60.1976Z" fill="white"/>
<path d="M140.935 60.8754C139.311 60.8802 137.72 60.4177 136.352 59.5431C134.983 58.6685 133.895 57.4187 133.217 55.9427C132.538 54.4667 132.299 52.8267 132.526 51.2182C132.754 49.6097 133.439 48.1006 134.5 46.8707C135.759 45.4067 137.479 44.4139 139.376 44.0548C141.273 43.6957 143.236 43.9917 144.943 44.8942C145.03 44.9412 145.106 45.0052 145.167 45.0822C145.228 45.1592 145.273 45.2478 145.3 45.3426C145.326 45.4375 145.333 45.5366 145.32 45.6342C145.308 45.7318 145.275 45.8258 145.226 45.9107C145.131 46.0704 144.979 46.1884 144.801 46.2408C144.623 46.2932 144.432 46.2761 144.266 46.193C143.003 45.5039 141.561 45.214 140.13 45.3617C138.698 45.5094 137.346 46.0878 136.25 47.0205C135.154 47.9531 134.367 49.1962 133.992 50.5857C133.618 51.9752 133.673 53.4457 134.151 54.8031C134.629 56.1606 135.507 57.3411 136.669 58.1889C137.832 59.0368 139.224 59.512 140.662 59.552C142.1 59.5919 143.517 59.1947 144.725 58.4127C145.932 57.6307 146.875 56.5007 147.427 55.1719C147.502 55.0056 147.636 54.873 147.803 54.7999C147.969 54.7268 148.158 54.7185 148.33 54.7766C148.51 54.8515 148.653 54.9947 148.727 55.1747C148.801 55.3547 148.8 55.5568 148.726 55.7366C148.064 57.2518 146.975 58.5403 145.59 59.4434C144.206 60.3465 142.588 60.8247 140.935 60.8189V60.8754ZM39.0965 60.4236C38.9313 60.4119 38.7749 60.3446 38.6528 60.2327C38.5307 60.1208 38.45 59.9709 38.4238 59.8073C38.3977 59.6438 38.4276 59.4761 38.5087 59.3317C38.5898 59.1873 38.7174 59.0746 38.8707 59.0119C39.894 58.6365 40.8165 58.029 41.5658 57.2372C42.3151 56.4453 42.8708 55.4906 43.1894 54.4479C43.508 53.4052 43.5808 52.3028 43.4021 51.2272C43.2234 50.1516 42.798 49.1321 42.1593 48.2485C41.5207 47.365 40.6861 46.6414 39.721 46.1346C38.7559 45.6278 37.6866 45.3516 36.5969 45.3275C35.5072 45.3035 34.4267 45.5322 33.4402 45.9959C32.4537 46.4596 31.588 47.1456 30.911 48.0001C30.7839 48.0965 30.6289 48.1489 30.4695 48.1494C30.31 48.1498 30.1547 48.0983 30.0271 48.0025C29.8995 47.9068 29.8066 47.7721 29.7623 47.6189C29.7181 47.4656 29.725 47.3021 29.782 47.153C30.5955 46.1338 31.6333 45.3163 32.8145 44.7642C33.9957 44.212 35.2884 43.9402 36.5918 43.9699C37.8953 43.9995 39.1743 44.3299 40.3292 44.9352C41.484 45.5405 42.4836 46.4044 43.2499 47.4596C44.0162 48.5148 44.5286 49.7327 44.7472 51.0185C44.9657 52.3043 44.8845 53.6232 44.5098 54.8724C44.1351 56.1216 43.4772 57.2674 42.5872 58.2205C41.6972 59.1736 40.5992 59.9082 39.3787 60.3672C39.2862 60.3911 39.1891 60.3911 39.0965 60.3672V60.4236ZM36.1046 60.8754C34.8624 60.8241 33.6474 60.4961 32.5481 59.9154C30.839 59.0091 29.4888 57.5484 28.7194 55.773C27.95 53.9977 27.8071 52.0133 28.3142 50.146C28.3339 50.0555 28.3718 49.9701 28.4257 49.8948C28.4796 49.8196 28.5484 49.7562 28.6277 49.7086C28.707 49.661 28.7953 49.6301 28.887 49.618C28.9787 49.6058 29.072 49.6125 29.161 49.6377C29.253 49.6628 29.3386 49.707 29.4123 49.7675C29.486 49.8279 29.5462 49.9032 29.5888 49.9885C29.6314 50.0738 29.6556 50.1671 29.6597 50.2623C29.6638 50.3576 29.6477 50.4526 29.6126 50.5413C29.1965 52.0993 29.3218 53.7525 29.9679 55.2299C30.6141 56.7073 31.7428 57.9214 33.1691 58.673C34.0779 59.1485 35.08 59.4184 36.1046 59.4636C36.2579 59.5074 36.3928 59.6 36.4889 59.7274C36.5849 59.8548 36.6368 60.01 36.6368 60.1695C36.6368 60.329 36.5849 60.4842 36.4889 60.6116C36.3928 60.739 36.2579 60.8316 36.1046 60.8754V60.8754ZM148.726 52.9695C148.54 52.9701 148.362 52.9005 148.226 52.7748C148.089 52.6491 148.006 52.4766 147.992 52.2919C147.971 50.8026 147.477 49.3585 146.58 48.1695C146.523 48.0205 146.517 47.857 146.561 47.7037C146.605 47.5504 146.698 47.4157 146.826 47.32C146.953 47.2243 147.108 47.1727 147.268 47.1732C147.427 47.1736 147.582 47.226 147.709 47.3225C148.778 48.7403 149.371 50.46 149.403 52.2354C149.411 52.329 149.399 52.4232 149.369 52.5121C149.338 52.6009 149.289 52.6825 149.226 52.7515C149.162 52.8205 149.085 52.8756 148.999 52.9131C148.912 52.9506 148.819 52.9698 148.726 52.9695ZM127.613 56.6966H56.1449C55.7706 56.6966 55.4116 56.5478 55.1469 56.2831C54.8823 56.0183 54.7336 55.6592 54.7336 55.2848C54.7336 54.9104 54.8823 54.5513 55.1469 54.2865C55.4116 54.0218 55.7706 53.873 56.1449 53.873H127.669C128.043 53.873 128.402 54.0218 128.667 54.2865C128.932 54.5513 129.08 54.9104 129.08 55.2848C129.08 55.6592 128.932 56.0183 128.667 56.2831C128.402 56.5478 128.043 56.6966 127.669 56.6966H127.613ZM22.4433 5.70363L21.4836 4.57422L23.8546 2.59775C25.0646 1.74191 26.495 1.25189 27.9755 1.18598C31.7578 0.903628 67.6046 0.395393 72.8546 1.18598C76.1345 1.71832 79.3506 2.58884 82.4513 3.78363C82.6279 3.84779 82.7732 3.97724 82.8572 4.14533C82.9412 4.31343 82.9576 4.50735 82.9029 4.68716C82.8283 4.85347 82.6945 4.98605 82.5276 5.05912C82.3606 5.13219 82.1725 5.1405 81.9997 5.08245C78.969 3.93652 75.829 3.10394 72.6288 2.59775C67.5481 1.75069 31.8142 2.31539 28.032 2.59775C26.8639 2.65387 25.7326 3.02457 24.7578 3.67069L22.4433 5.70363Z" fill="#53B175"/>
<path d="M29.5 5.9297C29.3153 5.93927 29.1339 5.87876 28.9919 5.76029C28.8608 5.62359 28.7876 5.44149 28.7876 5.25205C28.7876 5.06261 28.8608 4.88051 28.9919 4.74382C30.6861 2.81971 32.9684 1.50945 35.4838 1.01675C35.6372 1.06057 35.7721 1.15317 35.8681 1.28054C35.9642 1.4079 36.0161 1.5631 36.0161 1.72264C36.0161 1.88217 35.9642 2.03737 35.8681 2.16474C35.7721 2.2921 35.6372 2.3847 35.4838 2.42852C32.9435 2.48499 30.008 5.64735 29.9516 5.70382C29.8325 5.83018 29.6725 5.91021 29.5 5.9297V5.9297ZM70.7097 5.02617C70.5745 5.01557 70.445 4.96775 70.3354 4.88801C70.2258 4.80827 70.1404 4.69972 70.0887 4.5744C69.5444 3.65737 68.7897 2.88309 67.8871 2.31558C67.8011 2.19222 67.755 2.04541 67.7552 1.89502C67.7553 1.74463 67.8016 1.59791 67.8878 1.47471C67.9741 1.3515 68.096 1.25776 68.2372 1.20615C68.3784 1.15455 68.5321 1.14757 68.6774 1.18617C69.81 1.90102 70.7424 2.89202 71.3871 4.06617C71.4222 4.17466 71.4316 4.28984 71.4144 4.40259C71.3973 4.51533 71.3542 4.62253 71.2885 4.7157C71.2227 4.80886 71.1362 4.88543 71.0357 4.93932C70.9352 4.99321 70.8236 5.02294 70.7097 5.02617V5.02617ZM13.2419 30.6638H3.19352C3.04017 30.62 2.90527 30.5274 2.80922 30.4C2.71318 30.2727 2.66122 30.1175 2.66122 29.9579C2.66122 29.7984 2.71318 29.6432 2.80922 29.5158C2.90527 29.3885 3.04017 29.2959 3.19352 29.2521H12.9032L15.5564 26.5415C15.8387 26.2026 15.8387 25.9768 15.8387 25.9768C15.5439 25.8993 15.2402 25.8613 14.9355 25.8638H8.38707C5.56449 25.8638 3.87094 22.645 3.75804 22.4756C3.71628 22.3111 3.73278 22.1372 3.80473 21.9835C3.87668 21.8298 3.99965 21.7058 4.1527 21.6326C4.30575 21.5594 4.47943 21.5415 4.6442 21.5819C4.80896 21.6224 4.95463 21.7186 5.05643 21.8544C5.05643 21.8544 6.46772 24.5085 8.44352 24.5085H14.9355C15.2177 24.5085 16.629 24.5085 17.1935 25.525C17.299 25.8651 17.3017 26.2287 17.2012 26.5703C17.1008 26.9119 16.9017 27.2162 16.629 27.445C15.3871 28.8568 13.6935 30.4379 13.6371 30.4944C13.5099 30.6002 13.3508 30.6599 13.1855 30.6638H13.2419Z" fill="#53B175"/>
<path d="M3.19321 29.9289H13.2416L15.4997 27.67H3.19321V29.9289ZM164.927 38.7947C164.834 38.8164 164.738 38.8164 164.645 38.7947L153.919 33.9948L153.75 33.9383L149.911 30.8324C149.787 30.7343 149.698 30.5989 149.658 30.4463C149.617 30.2937 149.627 30.132 149.685 29.9853C149.763 29.8482 149.879 29.7373 150.02 29.6669C150.161 29.5965 150.319 29.5697 150.475 29.59L162.104 31.4536C162.215 31.4388 162.328 31.4496 162.435 31.4851C162.541 31.5207 162.637 31.5801 162.717 31.6588C162.797 31.7375 162.857 31.8333 162.894 31.939C162.931 32.0448 162.943 32.1575 162.93 32.2687C162.917 32.3799 162.878 32.4866 162.817 32.5806C162.756 32.6745 162.675 32.7533 162.579 32.8109C162.483 32.8685 162.375 32.9033 162.263 32.9128C162.152 32.9222 162.039 32.906 161.935 32.8653L152.903 31.3971L154.596 32.7524L165.322 37.4395C165.412 37.4753 165.492 37.5299 165.559 37.5994C165.626 37.669 165.677 37.7519 165.709 37.8428C165.741 37.9336 165.753 38.0303 165.745 38.1263C165.737 38.2223 165.708 38.3154 165.661 38.3995C165.597 38.5227 165.499 38.6252 165.379 38.6952C165.26 38.7652 165.122 38.7997 164.984 38.7947H164.927Z" fill="#53B175"/>
<path d="M157.645 34.8993L154.145 33.3746L150.306 30.2687L155.556 31.1157L157.645 34.8993Z" fill="#53B175"/>
<path d="M124.678 26.0901L17.7584 21.3466C16.2906 21.3466 15.3874 18.636 15.839 17.2807C17.4441 14.6064 19.508 12.236 21.9358 10.2784L27.4116 9.71368L70.089 8.9231C95.3229 8.9231 104.525 11.7466 106.557 12.3113C114.58 15.7636 122.224 20.0407 129.363 25.0737L124.678 26.0901Z" fill="#CAE2ED"/>
<path d="M124.677 27.5006H124.621L17.758 22.7571C17.2836 22.7356 16.8212 22.6015 16.4089 22.3658C15.9967 22.1302 15.6464 21.7997 15.387 21.4018C14.9275 20.7546 14.6096 20.0178 14.4539 19.2393C14.2983 18.4609 14.3085 17.6584 14.4838 16.8842C16.1083 13.9127 18.3165 11.3004 20.9757 9.20417C21.1975 9.01175 21.4738 8.89331 21.7661 8.86535L27.4112 8.30064L70.1451 7.51006C82.5555 6.90863 94.9881 8.08765 107.064 11.0112C115.248 14.5185 123.043 18.8715 130.323 23.9995C130.55 24.1639 130.724 24.3926 130.821 24.6562C130.918 24.9197 130.934 25.2063 130.867 25.4791C130.8 25.752 130.654 25.9987 130.446 26.1878C130.239 26.3769 129.979 26.4998 129.702 26.5406L124.96 27.5006C124.866 27.5124 124.771 27.5124 124.677 27.5006ZM17.9838 20.0465C19.6774 20.0465 118.298 24.4512 124.564 24.7336L125.976 24.4512C119.686 20.3545 113.079 16.7666 106.218 13.7218C94.4152 10.8853 82.2691 9.74447 70.1451 10.3336C57.5564 10.3336 39.4354 10.4465 27.5806 11.2371C26.4515 11.2371 23.629 11.5759 22.4999 11.6889C20.3323 13.3981 18.5119 15.5066 17.137 17.9006C17.1123 18.2804 17.1645 18.6613 17.2906 19.0203C17.4168 19.3794 17.6141 19.7092 17.8709 19.9901L17.9838 20.0465ZM96.9032 29.5336H91.258C91.1046 29.4898 90.9697 29.3972 90.8737 29.2698C90.7776 29.1424 90.7257 28.9872 90.7257 28.8277C90.7257 28.6682 90.7776 28.513 90.8737 28.3856C90.9697 28.2582 91.1046 28.1656 91.258 28.1218H96.9032C97.0565 28.1656 97.1914 28.2582 97.2875 28.3856C97.3835 28.513 97.4355 28.6682 97.4355 28.8277C97.4355 28.9872 97.3835 29.1424 97.2875 29.2698C97.1914 29.3972 97.0565 29.4898 96.9032 29.5336V29.5336ZM83.9193 29.5336H78.2741C78.1208 29.4898 77.9859 29.3972 77.8898 29.2698C77.7938 29.1424 77.7418 28.9872 77.7418 28.8277C77.7418 28.6682 77.7938 28.513 77.8898 28.3856C77.9859 28.2582 78.1208 28.1656 78.2741 28.1218H84.0322C84.1855 28.1656 84.3204 28.2582 84.4165 28.3856C84.5125 28.513 84.5645 28.6682 84.5645 28.8277C84.5645 28.9872 84.5125 29.1424 84.4165 29.2698C84.3204 29.3972 84.1855 29.4898 84.0322 29.5336H83.9193Z" fill="#53B175"/>
<path d="M87.7582 45.3457C87.5735 45.3314 87.401 45.2478 87.2754 45.1117C87.1498 44.9755 87.0802 44.7969 87.0808 44.6116V5.08216C87.1246 4.92876 87.2172 4.79381 87.3445 4.69773C87.4718 4.60166 87.6269 4.54968 87.7864 4.54968C87.9459 4.54968 88.1011 4.60166 88.2284 4.69773C88.3557 4.79381 88.4483 4.92876 88.4921 5.08216V44.6116C88.4999 44.7052 88.4882 44.7994 88.4577 44.8883C88.4271 44.9771 88.3785 45.0586 88.3148 45.1277C88.2511 45.1967 88.1737 45.2517 88.0876 45.2893C88.0015 45.3268 87.9086 45.346 87.8147 45.3457H87.7582ZM121.178 27.388H125.355C125.794 27.3734 126.211 27.1885 126.516 26.8723C126.822 26.5562 126.992 26.1336 126.992 25.6939C126.963 25.2645 126.772 24.862 126.458 24.5684C126.143 24.2747 125.729 24.1118 125.299 24.1128H121.178V27.388Z" fill="#53B175"/>
<path d="M125.354 28.8005H121.177C120.803 28.8005 120.444 28.6518 120.179 28.387C119.914 28.1223 119.766 27.7632 119.766 27.3887V24.0005C119.766 23.6261 119.914 23.267 120.179 23.0022C120.444 22.7375 120.803 22.5887 121.177 22.5887H125.354C125.759 22.5887 126.159 22.6684 126.532 22.823C126.905 22.9777 127.244 23.2044 127.53 23.4902C127.816 23.776 128.042 24.1152 128.197 24.4886C128.352 24.862 128.431 25.2622 128.431 25.6664C128.431 26.0706 128.352 26.4708 128.197 26.8442C128.042 27.2176 127.816 27.5568 127.53 27.8426C127.244 28.1284 126.905 28.3551 126.532 28.5098C126.159 28.6644 125.759 28.744 125.354 28.744V28.8005ZM122.532 25.977H125.354V25.4123H122.532V25.977ZM127.5 51.0499H54.4513C54.2924 51.0419 54.1405 50.9825 54.0183 50.8807C53.8961 50.7788 53.8104 50.6401 53.7739 50.4852C53.2547 47.5102 52.0647 44.6926 50.2943 42.2464C48.5238 39.8002 46.2194 37.7897 43.5561 36.3676C43.3899 36.2929 43.2573 36.1591 43.1843 35.9921C43.1112 35.8251 43.1029 35.6368 43.161 35.464C43.192 35.3771 43.2406 35.2974 43.3036 35.2299C43.3666 35.1623 43.4427 35.1084 43.5273 35.0714C43.6119 35.0344 43.7031 35.0151 43.7955 35.0146C43.8878 35.0141 43.9792 35.0326 44.0642 35.0687C46.8946 36.4805 49.3578 38.532 51.2586 41.0607C53.1594 43.5895 54.4457 46.5261 55.0158 49.6382H127.5C127.653 49.682 127.788 49.7746 127.884 49.9019C127.98 50.0293 128.032 50.1845 128.032 50.344C128.032 50.5036 127.98 50.6588 127.884 50.7861C127.788 50.9135 127.653 51.0061 127.5 51.0499V51.0499ZM40.9029 35.5205C40.8465 35.5252 40.7899 35.5252 40.7335 35.5205C39.8104 35.2747 38.8647 35.1234 37.911 35.0687C37.7576 35.0249 37.6227 34.9323 37.5267 34.805C37.4306 34.6776 37.3787 34.5224 37.3787 34.3629C37.3787 34.2033 37.4306 34.0481 37.5267 33.9208C37.6227 33.7934 37.7576 33.7008 37.911 33.657C38.9777 33.696 40.0373 33.8474 41.0722 34.1087C41.2239 34.1678 41.3517 34.2757 41.4354 34.4154C41.5191 34.5551 41.554 34.7186 41.5346 34.8803C41.5152 35.042 41.4426 35.1926 41.3283 35.3085C41.2139 35.4244 41.0643 35.499 40.9029 35.5205V35.5205ZM45.3061 23.2664C45.2314 23.279 45.1551 23.279 45.0803 23.2664C44.9884 23.2413 44.9027 23.1971 44.829 23.1367C44.7553 23.0762 44.6952 23.0009 44.6525 22.9156C44.6099 22.8304 44.5858 22.7371 44.5817 22.6418C44.5775 22.5465 44.5936 22.4515 44.6287 22.3629L48.8061 8.75345C48.8695 8.589 48.99 8.45287 49.1455 8.36992C49.3009 8.28698 49.481 8.26275 49.6529 8.30168C49.7499 8.32009 49.8417 8.35949 49.9218 8.4171C50.002 8.47471 50.0686 8.54916 50.117 8.63523C50.1654 8.7213 50.1944 8.8169 50.202 8.91536C50.2096 9.01382 50.1956 9.11274 50.161 9.20522L45.9271 22.7582C45.8805 22.9025 45.7904 23.0289 45.669 23.1199C45.5477 23.2109 45.4012 23.2621 45.2497 23.2664H45.3061ZM18.3223 43.7652C12.3384 42.7487 1.55612 39.8123 1.38677 39.8123C1.20902 39.7519 1.06116 39.6256 0.973612 39.4595C0.886064 39.2934 0.865481 39.1 0.916097 38.9192C0.966713 38.7384 1.08468 38.5838 1.24573 38.4873C1.40678 38.3909 1.59867 38.3598 1.78193 38.4005C1.89483 38.4005 12.5077 41.3935 18.4916 42.3535C18.6217 42.4195 18.7292 42.5229 18.8004 42.6503C18.8715 42.7778 18.903 42.9236 18.8909 43.0691C18.8788 43.2146 18.8236 43.3531 18.7323 43.4671C18.6411 43.581 18.518 43.6652 18.3787 43.7087L18.3223 43.7652Z" fill="#53B175"/>
</svg>
