<svg width="151" height="59" viewBox="0 0 151 59" fill="none" xmlns="http://www.w3.org/2000/svg">
<path d="M16.5643 40.8008C11.7662 39.9367 7.03221 38.7481 2.39492 37.2431C1.93295 36.4419 1.6265 35.5606 1.4917 34.6455C1.78196 32.9334 2.15878 31.2371 2.62073 29.5631C2.8092 28.0824 3.07298 26.6123 3.41105 25.1584L4.93525 23.4643C5.03345 21.7104 5.49577 19.9962 6.29275 18.4309C7.08973 16.8655 8.2039 15.4834 9.56428 14.3726L9.33847 12.3961H11.5965C11.5965 12.3961 46.3707 1.66667 68.6127 1.66667C74.7305 1.38612 80.8562 2.01412 86.7901 3.5302C90.5159 4.88549 111.459 15.9537 111.459 15.9537C111.459 15.9537 138.951 17.0831 148.322 26.2314L147.871 29.902L149.564 31.4831V39.5584C149.564 40.1231 149.79 41.7043 144.314 42.7773H134.774" fill="white"/>
<path d="M134.774 44.189C134.4 44.189 134.041 44.0403 133.776 43.7755C133.511 43.5107 133.363 43.1516 133.363 42.7772C133.363 42.4028 133.511 42.0437 133.776 41.779C134.041 41.5142 134.4 41.3655 134.774 41.3655H144.258C146.855 40.8008 148.097 40.1231 148.097 39.6713V32.1043L146.855 30.9749C146.684 30.8204 146.553 30.6264 146.474 30.4098C146.396 30.1933 146.371 29.9607 146.403 29.7325L146.798 26.796C137.427 18.4949 111.572 17.4219 111.347 17.3654C111.134 17.3772 110.921 17.3385 110.726 17.2525L86.282 4.82898C80.5106 3.38029 74.554 2.80918 68.6126 3.13486C46.8223 3.13486 12.3868 13.6384 12.0481 13.7513C11.9203 13.7913 11.7869 13.8104 11.653 13.8078H10.9191L10.9755 14.2031C11.0042 14.4501 10.967 14.7004 10.8679 14.9284C10.7687 15.1565 10.6111 15.3544 10.411 15.5019C9.21297 16.486 8.22921 17.7053 7.52045 19.0844C6.81168 20.4636 6.39294 21.9734 6.29006 23.5207C6.28501 23.8793 6.14373 24.2226 5.8949 24.4807L4.65296 25.836C4.42716 26.6266 4.08845 28.4902 3.97554 29.676C3.51201 31.3115 3.13514 32.9703 2.84651 34.6455C2.93992 35.14 3.11142 35.6166 3.35458 36.0572C7.75881 37.434 12.2464 38.528 16.7901 39.3325C17.1644 39.4074 17.4936 39.628 17.7053 39.9457C17.9171 40.2634 17.994 40.6522 17.9191 41.0266C17.8442 41.4011 17.6238 41.7304 17.3061 41.9422C16.9885 42.154 16.5998 42.2309 16.2255 42.156C11.3684 41.2836 6.57735 40.076 1.88683 38.5419C1.57054 38.4088 1.31088 38.169 1.15296 37.8643C0.560682 36.8639 0.19458 35.746 0.0803833 34.589C0.343853 32.7602 0.720926 30.9497 1.20941 29.1678C1.40151 27.6464 1.68427 26.1378 2.05619 24.6502C2.13066 24.4581 2.24627 24.2846 2.3949 24.1419L3.52393 22.8996C3.83661 19.3936 5.44726 16.1309 8.04006 13.7513L7.92716 12.6219C7.89889 12.4204 7.91453 12.2151 7.97299 12.0201C8.03146 11.8252 8.13136 11.6452 8.26587 11.4925C8.39703 11.335 8.56093 11.2079 8.74615 11.1201C8.93138 11.0324 9.1335 10.986 9.33845 10.9843H11.4272C14.5884 10.0243 46.9917 0.254857 68.6126 0.254857C74.8843 -0.0750872 81.169 0.572654 87.2417 2.17486C90.7981 3.53015 109.145 13.1866 111.798 14.5984C115.072 14.7113 140.024 16.1796 149.282 25.2149C149.427 25.3627 149.537 25.5405 149.605 25.7356C149.673 25.9308 149.698 26.1386 149.677 26.3443L149.282 29.3372L150.411 30.4666C150.551 30.5966 150.663 30.7538 150.741 30.9285C150.819 31.1032 150.86 31.2919 150.863 31.4831V39.5584C150.919 41.8172 148.943 43.2855 144.484 44.189H134.774Z" fill="#53B175"/>
<path d="M75.6692 58.6441C111.586 58.6441 140.701 57.203 140.701 55.4252C140.701 53.6475 111.586 52.2064 75.6692 52.2064C39.7529 52.2064 10.637 53.6475 10.637 55.4252C10.637 57.203 39.7529 58.6441 75.6692 58.6441Z" fill="#ACD3E4"/>
<path d="M28.9272 54.0138C35.7551 54.0138 41.2901 48.4769 41.2901 41.6468C41.2901 34.8166 35.7551 29.2797 28.9272 29.2797C22.0994 29.2797 16.5643 34.8166 16.5643 41.6468C16.5643 48.4769 22.0994 54.0138 28.9272 54.0138Z" fill="#CAE2ED"/>
<path d="M28.9278 55.4822C26.2035 55.4822 23.5404 54.6741 21.2753 53.16C19.0101 51.646 17.2446 49.494 16.2021 46.9763C15.1596 44.4585 14.8868 41.6881 15.4183 39.0152C15.9497 36.3424 17.2616 33.8873 19.188 31.9603C21.1143 30.0333 23.5687 28.721 26.2406 28.1893C28.9125 27.6576 31.682 27.9305 34.1989 28.9734C36.7159 30.0163 38.8671 31.7823 40.3806 34.0483C41.8941 36.3142 42.702 38.9782 42.702 41.7034C42.6871 45.3531 41.2312 48.8492 38.6512 51.43C36.0713 54.0108 32.5764 55.4673 28.9278 55.4822V55.4822ZM28.9278 30.6351C26.7642 30.6352 24.6491 31.2763 22.8493 32.4776C21.0496 33.6789 19.6459 35.3865 18.8153 37.3851C17.9848 39.3836 17.7647 41.5834 18.1827 43.707C18.6007 45.8306 19.6381 47.7827 21.1641 49.317C22.6901 50.8514 24.6362 51.8992 26.7568 52.3283C28.8775 52.7573 31.0777 52.5484 33.0798 51.7279C35.0819 50.9074 36.7962 49.512 38.0063 47.7179C39.2165 45.9237 39.8683 43.8112 39.8794 41.6469C39.8794 38.7361 38.7274 35.9438 36.6752 33.8803C34.623 31.8168 31.8375 30.6501 28.9278 30.6351V30.6351Z" fill="#53B175"/>
<path d="M28.9272 48.7055C32.8243 48.7055 35.9836 45.5452 35.9836 41.6467C35.9836 37.7482 32.8243 34.5879 28.9272 34.5879C25.03 34.5879 21.8707 37.7482 21.8707 41.6467C21.8707 45.5452 25.03 48.7055 28.9272 48.7055Z" fill="white"/>
<path d="M28.9276 49.4409C28.0619 49.4305 27.2036 49.2779 26.3873 48.9892C24.9278 48.4889 23.6496 47.5663 22.7149 46.3384C21.7801 45.1106 21.2309 43.6327 21.1368 42.0922C21.0427 40.5517 21.408 39.0179 22.1864 37.6854C22.9648 36.3528 24.1212 35.2815 25.509 34.6072C26.8968 33.9329 28.4535 33.686 29.9818 33.8978C31.51 34.1096 32.941 34.7706 34.0932 35.7969C35.2455 36.8233 36.0672 38.1688 36.454 39.6629C36.8409 41.1569 36.7756 42.7323 36.2664 44.1891C35.945 45.1227 35.4466 45.9855 34.7986 46.7303C34.7395 46.7973 34.6677 46.852 34.5873 46.8911C34.507 46.9303 34.4197 46.9531 34.3305 46.9584C34.2413 46.9636 34.152 46.9512 34.0676 46.9217C33.9832 46.8923 33.9055 46.8464 33.8389 46.7868C33.7592 46.7317 33.6923 46.66 33.6426 46.5768C33.5929 46.4936 33.5617 46.4006 33.551 46.3043C33.5403 46.2079 33.5504 46.1104 33.5806 46.0183C33.6108 45.9262 33.6604 45.8416 33.726 45.7703C34.7418 44.5742 35.2813 43.0457 35.2414 41.4768C35.2015 39.9079 34.5851 38.4087 33.5099 37.2658C32.4347 36.1229 30.9762 35.4164 29.4131 35.2814C27.8501 35.1464 26.2921 35.5923 25.037 36.534C23.7819 37.4756 22.9177 38.8469 22.6096 40.3858C22.3015 41.9246 22.5711 43.5231 23.3669 44.8756C24.1627 46.2282 25.4288 47.2399 26.9232 47.7175C28.4177 48.1951 30.0357 48.105 31.468 47.4644C31.6407 47.3859 31.8371 47.3772 32.0161 47.4404C32.195 47.5036 32.3425 47.6336 32.4276 47.8033C32.4647 47.8923 32.4839 47.9877 32.4841 48.0841C32.4843 48.1805 32.4655 48.276 32.4288 48.3651C32.3921 48.4543 32.3382 48.5353 32.2702 48.6036C32.2022 48.6719 32.1214 48.7262 32.0325 48.7633C31.0556 49.2017 29.9983 49.4325 28.9276 49.4409V49.4409Z" fill="#53B175"/>
<path d="M122.411 54.0138C129.239 54.0138 134.774 48.4769 134.774 41.6468C134.774 34.8166 129.239 29.2797 122.411 29.2797C115.584 29.2797 110.049 34.8166 110.049 41.6468C110.049 48.4769 115.584 54.0138 122.411 54.0138Z" fill="#CAE2ED"/>
<path d="M122.355 55.4822C119.631 55.4822 116.968 54.6741 114.703 53.16C112.437 51.646 110.672 49.494 109.629 46.9763C108.587 44.4585 108.314 41.6881 108.846 39.0152C109.377 36.3424 110.689 33.8873 112.615 31.9603C114.542 30.0333 116.996 28.721 119.668 28.1893C122.34 27.6576 125.109 27.9305 127.626 28.9734C130.143 30.0163 132.294 31.7823 133.808 34.0483C135.322 36.3142 136.129 38.9782 136.129 41.7034C136.115 45.3531 134.659 48.8492 132.079 51.43C129.499 54.0108 126.004 55.4673 122.355 55.4822V55.4822ZM122.355 30.6351C120.192 30.6352 118.076 31.2763 116.277 32.4776C114.477 33.6789 113.073 35.3865 112.243 37.3851C111.412 39.3836 111.192 41.5834 111.61 43.707C112.028 45.8306 113.066 47.7827 114.591 49.317C116.117 50.8514 118.064 51.8992 120.184 52.3283C122.305 52.7573 124.505 52.5484 126.507 51.7279C128.509 50.9074 130.224 49.512 131.434 47.7179C132.644 45.9237 133.296 43.8112 133.307 41.6469C133.307 38.7361 132.155 35.9438 130.103 33.8803C128.05 31.8168 125.265 30.6501 122.355 30.6351V30.6351Z" fill="#53B175"/>
<path d="M122.411 48.7055C126.309 48.7055 129.468 45.5452 129.468 41.6467C129.468 37.7482 126.309 34.5879 122.411 34.5879C118.514 34.5879 115.355 37.7482 115.355 41.6467C115.355 45.5452 118.514 48.7055 122.411 48.7055Z" fill="white"/>
<path d="M122.355 49.3841C121.216 49.3885 120.09 49.143 119.056 48.6649C118.022 48.1868 117.106 47.4878 116.371 46.617C116.305 46.5457 116.256 46.4612 116.226 46.3691C116.195 46.2769 116.185 46.1794 116.196 46.0831C116.207 45.9867 116.238 45.8938 116.288 45.8105C116.337 45.7273 116.404 45.6557 116.484 45.6006C116.63 45.5 116.808 45.456 116.985 45.4767C117.161 45.4975 117.324 45.5816 117.444 45.7135C118.355 46.8132 119.609 47.575 121.005 47.877C122.401 48.1791 123.858 48.0038 125.142 47.3794C126.427 46.7549 127.465 45.7173 128.09 44.4328C128.715 43.1483 128.891 41.6912 128.59 40.2947C128.288 38.8982 127.528 37.6432 126.429 36.7306C125.33 35.818 123.957 35.3007 122.529 35.2613C121.102 35.222 119.702 35.663 118.555 36.5138C117.408 37.3645 116.579 38.5757 116.202 39.9535C116.182 40.044 116.144 40.1294 116.09 40.2046C116.036 40.2799 115.968 40.3432 115.888 40.3909C115.809 40.4385 115.721 40.4693 115.629 40.4815C115.537 40.4937 115.444 40.487 115.355 40.4617C115.258 40.4433 115.166 40.4039 115.086 40.3463C115.006 40.2887 114.939 40.2143 114.891 40.1282C114.842 40.0421 114.813 39.9465 114.806 39.8481C114.798 39.7496 114.812 39.6507 114.847 39.5582C115.226 38.1542 115.991 36.8844 117.054 35.8924C118.117 34.9004 119.436 34.2258 120.863 33.9449C122.289 33.6641 123.766 33.7881 125.126 34.303C126.485 34.8179 127.674 35.7032 128.557 36.8587C129.44 38.0141 129.982 39.3937 130.122 40.8413C130.261 42.2889 129.994 43.7468 129.348 45.05C128.703 46.3533 127.706 47.4499 126.47 48.2158C125.234 48.9817 123.809 49.3864 122.355 49.3841V49.3841ZM115.581 44.1888C115.422 44.1808 115.27 44.1214 115.148 44.0196C115.026 43.9177 114.94 43.7789 114.903 43.6241C114.784 43.1425 114.708 42.6511 114.677 42.1559C114.67 42.0668 114.68 41.9771 114.707 41.8919C114.734 41.8067 114.778 41.7278 114.835 41.6595C114.893 41.5913 114.964 41.5351 115.043 41.4943C115.123 41.4535 115.209 41.4289 115.298 41.4217C115.395 41.414 115.492 41.4255 115.584 41.4554C115.676 41.4853 115.761 41.5332 115.834 41.5961C115.908 41.6591 115.968 41.736 116.012 41.8224C116.056 41.9087 116.082 42.0029 116.089 42.0994C116.106 42.4993 116.163 42.8965 116.258 43.2853C116.31 43.4725 116.286 43.6727 116.191 43.8421C116.096 44.0114 115.937 44.1361 115.75 44.1888C115.694 44.1959 115.637 44.1959 115.581 44.1888ZM47.5 5.22411C47.2018 5.22785 46.91 5.13696 46.6666 4.96449C46.4232 4.79201 46.2406 4.54682 46.1452 4.26411L45.4113 1.83587C45.35 1.62547 45.3385 1.40367 45.3777 1.18803C45.4168 0.972398 45.5057 0.768854 45.6371 0.593518C45.7618 0.411094 45.9309 0.263493 46.1284 0.164677C46.326 0.0658618 46.5455 0.0190995 46.7662 0.0288132C49.1602 0.00550833 51.5042 0.714848 53.4839 2.06175C53.7534 2.32385 53.9078 2.6823 53.9131 3.05826C53.9184 3.43421 53.7742 3.79687 53.5121 4.06646C53.2501 4.33604 52.8918 4.49047 52.516 4.49576C52.1401 4.50106 51.7776 4.35679 51.5081 4.09469C50.6744 3.50156 49.7026 3.13215 48.6855 3.02175L48.7984 3.47352C48.8892 3.81779 48.8465 4.18366 48.679 4.49782C48.5115 4.81198 48.2316 5.05122 47.8952 5.16763C47.7686 5.22119 47.6359 5.25911 47.5 5.28057V5.22411Z" fill="#53B175"/>
<path d="M32.5966 13.1299L35.0805 11.2099C48.8606 7.67877 63.1082 6.32595 77.3063 7.20045C87.6344 8.78546 97.4415 12.7909 105.927 18.8899L47.4434 15.5016C45.1854 15.5016 32.5966 13.2428 32.5966 13.2428V13.1299Z" fill="#CAE2ED"/>
<path d="M105.871 20.2442H105.815L47.4435 16.8559C45.1855 16.8559 33.6129 14.71 32.3145 14.4842C32.0546 14.4255 31.8165 14.2944 31.628 14.1061C31.4394 13.9177 31.308 13.6798 31.2489 13.4199C31.1899 13.16 31.2056 12.8886 31.2943 12.6372C31.3829 12.3859 31.5409 12.1647 31.75 11.9994L34.1774 10.0794C34.3293 9.96983 34.5023 9.89292 34.6855 9.85357C48.6248 6.24179 63.0493 4.86937 77.4193 5.78769C87.9587 7.43655 97.9699 11.5159 106.661 17.703C106.919 17.8694 107.116 18.1154 107.221 18.4036C107.327 18.6918 107.335 19.0065 107.246 19.3001C107.157 19.5937 106.974 19.8502 106.726 20.0308C106.478 20.2113 106.178 20.306 105.871 20.3006V20.2442ZM36.3226 12.2818L47.4435 13.9759C49.3064 13.9759 85.6613 16.2347 100.169 17.1383C93.195 12.6602 85.3404 9.73295 77.1371 8.55474C63.4218 7.70183 49.6568 8.95881 36.3226 12.2818V12.2818Z" fill="#53B175"/>
<path d="M59.1291 33.797C58.9674 33.7993 58.8102 33.7436 58.686 33.64C58.5617 33.5364 58.4786 33.3918 58.4517 33.2323C56.3906 23.1467 55.4816 12.8596 55.742 2.56876C55.7563 2.38401 55.8398 2.21148 55.9759 2.0858C56.112 1.96011 56.2906 1.89057 56.4759 1.89112C56.5698 1.89079 56.6628 1.91 56.7489 1.94753C56.8349 1.98506 56.9123 2.04009 56.976 2.10913C57.0397 2.17816 57.0884 2.25969 57.1189 2.34854C57.1494 2.43739 57.1611 2.53161 57.1533 2.62524C56.9083 12.8034 57.8173 22.9766 59.863 32.9499C59.8976 33.0424 59.9116 33.1413 59.904 33.2398C59.8965 33.3383 59.8674 33.4339 59.819 33.5199C59.7706 33.606 59.704 33.6804 59.6239 33.7381C59.5437 33.7957 59.4519 33.8351 59.3549 33.8535C59.2988 33.862 59.2417 33.862 59.1856 33.8535L59.1291 33.797ZM67.5968 21.1476H61.9517C61.8425 21.1788 61.7275 21.1842 61.6158 21.1634C61.5042 21.1426 61.3988 21.0962 61.3082 21.0278C61.2175 20.9593 61.1439 20.8708 61.0933 20.7691C61.0426 20.6674 61.0162 20.5553 61.0162 20.4417C61.0162 20.3281 61.0426 20.216 61.0933 20.1143C61.1439 20.0126 61.2175 19.9241 61.3082 19.8556C61.3988 19.7872 61.5042 19.7408 61.6158 19.72C61.7275 19.6992 61.8425 19.7046 61.9517 19.7358H67.7097C67.8631 19.7796 67.998 19.8722 68.094 19.9996C68.1901 20.127 68.242 20.2822 68.242 20.4417C68.242 20.6012 68.1901 20.7564 68.094 20.8838C67.998 21.0112 67.8631 21.1038 67.7097 21.1476H67.5968ZM95.2581 19.9052H99.492C99.9313 19.8906 100.348 19.7056 100.653 19.3895C100.959 19.0734 101.129 18.6508 101.129 18.2111C101.1 17.7817 100.909 17.3792 100.595 17.0856C100.28 16.7919 99.8658 16.629 99.4356 16.6299H95.2581V19.9052Z" fill="#53B175"/>
<path d="M99.4923 21.2603H95.2585C94.8842 21.2603 94.5252 21.1116 94.2605 20.8468C93.9959 20.5821 93.8472 20.223 93.8472 19.8486V16.4603C93.8472 16.0859 93.9959 15.7268 94.2605 15.4621C94.5252 15.1973 94.8842 15.0486 95.2585 15.0486H99.4359C100.244 15.0486 101.02 15.3698 101.591 15.9417C102.163 16.5136 102.484 17.2892 102.484 18.098C102.484 18.9067 102.163 19.6824 101.591 20.2542C101.02 20.8261 100.244 21.1474 99.4359 21.1474L99.4923 21.2603ZM96.6698 18.4368H99.4923V17.985H96.6698V18.4368ZM34.7423 13.3544L29.4923 12.338L34.7423 13.3544ZM34.7423 14.7662C34.6485 14.776 34.5539 14.776 34.4601 14.7662L29.2665 13.7497C28.9254 13.6566 28.6318 13.4387 28.4436 13.1393C28.2554 12.8398 28.1864 12.4807 28.2503 12.1328C28.3141 11.7849 28.5062 11.4737 28.7885 11.2607C29.0708 11.0478 29.4227 10.9485 29.7746 10.9827L34.9681 11.9991C35.3424 12.0291 35.6895 12.2066 35.933 12.4925C36.1765 12.7784 36.2965 13.1494 36.2665 13.5239C36.2366 13.8983 36.0592 14.2455 35.7733 14.489C35.4875 14.7326 35.1166 14.8526 34.7423 14.8227V14.7662ZM147.758 30.578C147.702 30.5865 147.645 30.5865 147.589 30.578C147.307 30.465 140.589 28.4886 139.121 27.7544C137.767 27.0203 133.307 23.9709 133.081 23.8015C132.974 23.7164 132.894 23.6006 132.854 23.4695C132.814 23.3385 132.814 23.1982 132.855 23.0674C132.968 22.6721 133.42 22.5027 133.758 22.5027C138.814 22.7249 143.804 23.7347 148.549 25.4956C148.661 25.5117 148.767 25.5534 148.86 25.6174C148.953 25.6814 149.03 25.7661 149.085 25.8647C149.14 25.9633 149.171 26.0733 149.177 26.1861C149.183 26.2988 149.162 26.4114 149.117 26.5149C149.072 26.6185 149.004 26.7102 148.917 26.7831C148.831 26.856 148.729 26.9079 148.62 26.935C148.51 26.962 148.396 26.9634 148.286 26.939C148.175 26.9147 148.072 26.8652 147.984 26.7944C144.083 25.3784 140.028 24.4306 135.904 23.9709L139.742 26.5121C141.097 27.0768 147.928 29.1097 147.984 29.1662C148.075 29.1858 148.16 29.2238 148.235 29.2777C148.311 29.3317 148.374 29.4004 148.421 29.4798C148.469 29.5592 148.5 29.6474 148.512 29.7392C148.524 29.8309 148.518 29.9242 148.492 30.0133C148.446 30.1576 148.356 30.284 148.234 30.375C148.113 30.466 147.966 30.5172 147.815 30.5215L147.758 30.578ZM110.162 43.7921H48.8552C48.4809 43.7921 48.122 43.6434 47.8573 43.3786C47.5926 43.1138 47.4439 42.7548 47.4439 42.3803C47.4439 42.0059 47.5926 41.6468 47.8573 41.3821C48.122 41.1173 48.4809 40.9686 48.8552 40.9686H110.162C110.536 40.9686 110.895 41.1173 111.16 41.3821C111.424 41.6468 111.573 42.0059 111.573 42.3803C111.573 42.7548 111.424 43.1138 111.16 43.3786C110.895 43.6434 110.536 43.7921 110.162 43.7921V43.7921ZM4.93587 24.1968C4.7895 24.1679 4.65542 24.095 4.5515 23.9879C4.44759 23.8808 4.37878 23.7445 4.35425 23.5973C4.32973 23.4501 4.35064 23.2989 4.41421 23.1638C4.47778 23.0288 4.58098 22.9164 4.71006 22.8415L8.09716 21.5991C8.1718 21.5853 8.24833 21.5853 8.32297 21.5991C10.0728 21.3648 11.7496 20.7478 13.2343 19.7921C14.6141 18.8746 15.9515 17.8948 17.2423 16.8556L11.2585 13.0156C11.1456 12.9884 11.0409 12.9348 10.9528 12.8593C10.8647 12.7838 10.7958 12.6884 10.7516 12.581C10.7075 12.4737 10.6895 12.3574 10.699 12.2417C10.7085 12.126 10.7454 12.0142 10.8064 11.9155C10.8675 11.8168 10.9511 11.734 11.0504 11.6739C11.1496 11.6138 11.2617 11.5781 11.3775 11.5697C11.4932 11.5614 11.6093 11.5806 11.7162 11.6258C11.823 11.671 11.9177 11.7409 11.9923 11.8297L18.7665 16.178C18.8665 16.2299 18.952 16.3059 19.0152 16.3991C19.0785 16.4924 19.1175 16.6 19.1287 16.7121C19.1399 16.8242 19.123 16.9374 19.0794 17.0413C19.0359 17.1453 18.9672 17.2367 18.8794 17.3074C17.3142 18.6244 15.6744 19.8499 13.9681 20.978C12.3125 22.0359 10.4418 22.7111 8.49232 22.9544L5.10522 24.0839C5.05151 24.1101 4.99456 24.1291 4.93587 24.1403V24.1968Z" fill="#53B175"/>
<path d="M8.32273 22.2772C10.1958 22.0446 11.9913 21.388 13.5727 20.3572C15.2591 19.2468 16.88 18.0401 18.4276 16.7431L11.6534 12.3948H9.39531L9.62111 14.3713L11.7098 17.0254L8.32273 22.2772ZM15.0969 28.7713C15.0188 28.7669 14.9422 28.7477 14.8711 28.7148L6.62918 26.1172L3.41144 25.7784L3.52434 24.4231L6.79853 24.7054C7.70176 24.7619 14.1372 26.9642 15.3792 27.3595C15.5325 27.4222 15.66 27.535 15.7412 27.6794C15.8223 27.8238 15.8522 27.9914 15.826 28.155C15.7999 28.3186 15.7192 28.4685 15.597 28.5804C15.4749 28.6923 15.3186 28.7596 15.1534 28.7713H15.0969ZM104.855 38.2019H40.8389C40.6855 38.1581 40.5506 38.0655 40.4546 37.9381C40.3585 37.8107 40.3066 37.6555 40.3066 37.496C40.3066 37.3365 40.3585 37.1813 40.4546 37.0539C40.5506 36.9265 40.6855 36.8339 40.8389 36.7901H104.46C105.519 33.3095 106.349 29.7631 106.944 26.1737C107.192 23.7476 106.637 21.3072 105.363 19.2278C105.324 19.0824 105.331 18.9287 105.383 18.7875C105.435 18.6462 105.528 18.5242 105.651 18.438C105.775 18.3517 105.921 18.3054 106.072 18.3053C106.222 18.3051 106.369 18.3512 106.492 18.4372C107.985 20.7875 108.642 23.5731 108.355 26.3431C107.713 30.2029 106.808 34.0142 105.645 37.7501C105.6 37.8794 105.516 37.9918 105.405 38.0725C105.294 38.1532 105.161 38.1983 105.024 38.2019H104.855ZM141.549 28.0372L139.403 27.2466C138.161 26.5125 133.476 23.2937 133.476 23.2937C135.866 23.2887 138.25 23.5348 140.589 24.0278C141.009 24.6737 141.332 25.3777 141.549 26.1172C141.589 26.7565 141.589 27.3978 141.549 28.0372ZM149.452 38.2019H134.04C133.887 38.1581 133.752 38.0655 133.656 37.9381C133.56 37.8107 133.508 37.6555 133.508 37.496C133.508 37.3365 133.56 37.1813 133.656 37.0539C133.752 36.9265 133.887 36.8339 134.04 36.7901H149.452C149.605 36.8339 149.74 36.9265 149.836 37.0539C149.932 37.1813 149.984 37.3365 149.984 37.496C149.984 37.6555 149.932 37.8107 149.836 37.9381C149.74 38.0655 149.605 38.1581 149.452 38.2019V38.2019Z" fill="#53B175"/>
</svg>
