<svg width="141" height="64" viewBox="0 0 141 64" fill="none" xmlns="http://www.w3.org/2000/svg">
<path d="M12.7498 46.6478C12.7498 46.6478 2.58852 45.1231 1.45949 40.549C1.32788 39.6543 1.41302 38.741 1.70773 37.8861C2.00244 37.0311 2.49811 36.2595 3.15303 35.636V20.7278L10.4917 7.73957C9.99305 7.52016 9.56523 7.16626 9.25616 6.71746C8.9471 6.26867 8.76898 5.74269 8.74174 5.19839C8.74174 3.39133 12.2417 3.50427 13.8224 3.39133C33.4277 2.81655 53.0354 2.32713 72.645 1.9231C76.4837 1.9231 87.3224 3.61721 102 16.436L131.129 22.9866C131.129 22.9866 143.887 32.0219 136.097 46.5913H124.129" fill="white"/>
<path d="M12.7497 48.0593C11.6206 48.0593 1.45935 46.1957 0.330313 40.831C0.177311 39.8231 0.249859 38.7937 0.542721 37.8171C0.835584 36.8406 1.34146 35.9413 2.02386 35.184V20.7275C1.97305 20.5045 1.97305 20.2729 2.02386 20.0499C2.02386 19.711 6.31419 12.0311 8.68515 8.19105C8.29103 7.81055 7.97785 7.35429 7.76443 6.84968C7.55101 6.34506 7.44175 5.8025 7.44322 5.25458C7.44322 2.43105 11.1126 2.20517 13.0884 2.09223H13.7658C15.5722 2.09223 68.9755 0.623993 72.7013 0.623993C76.4271 0.623993 86.9271 1.7534 102.734 15.3063C105.895 15.871 127.346 20.3887 131.693 21.8005C133.523 22.5005 135.187 23.5755 136.577 24.9564C137.967 26.3373 139.053 27.9937 139.766 29.8193C140.73 32.741 141.023 35.8428 140.622 38.8934C140.222 41.9441 139.138 44.8649 137.451 47.4381C137.325 47.6571 137.144 47.8397 136.927 47.9683C136.709 48.0969 136.462 48.1672 136.209 48.1722H124.129C123.754 48.1722 123.395 48.0235 123.131 47.7587C122.866 47.494 122.717 47.1349 122.717 46.7605C122.717 46.386 122.866 46.0269 123.131 45.7622C123.395 45.4974 123.754 45.3487 124.129 45.3487H135.419C136.724 43.1931 137.56 40.7861 137.871 38.2852C138.183 35.7842 137.963 33.2457 137.225 30.8358C136.669 29.3904 135.813 28.0794 134.714 26.9892C133.614 25.899 132.296 25.0543 130.846 24.511C126.443 23.0428 102.056 18.0169 101.887 17.9605C101.632 17.9598 101.389 17.8583 101.209 17.6781C85.9674 4.52046 75.5803 3.56046 72.9835 3.56046C69.3142 3.56046 16.0803 4.91576 14.2739 5.0287H13.2577C12.2186 5.00295 11.184 5.17543 10.2093 5.53693C10.2867 5.78095 10.4183 6.00426 10.5943 6.1901C10.7703 6.37593 10.9861 6.51945 11.2255 6.60987C11.4155 6.69312 11.5848 6.81724 11.7214 6.97341C11.858 7.12958 11.9585 7.31395 12.0158 7.5134C12.0982 7.70021 12.1408 7.90215 12.1408 8.10635C12.1408 8.31054 12.0982 8.51249 12.0158 8.69929C9.98354 11.5228 5.58031 19.4287 4.67709 21.1228V35.6922C4.68176 35.8845 4.64367 36.0755 4.56557 36.2513C4.48746 36.4271 4.3713 36.5833 4.22548 36.7087C3.76764 37.1745 3.41487 37.7331 3.19091 38.3468C2.96694 38.9604 2.87699 39.615 2.92709 40.2663C3.4916 42.9205 9.36257 44.784 12.919 45.3487C13.2933 45.3487 13.6523 45.4974 13.917 45.7622C14.1816 46.0269 14.3303 46.386 14.3303 46.7605C14.3303 47.1349 14.1816 47.494 13.917 47.7587C13.6523 48.0235 13.2933 48.1722 12.919 48.1722L12.7497 48.0593Z" fill="#53B175"/>
<path d="M68.4117 63.6451C102.052 63.6451 129.323 62.204 129.323 60.4263C129.323 58.6485 102.052 57.2074 68.4117 57.2074C34.7713 57.2074 7.50041 58.6485 7.50041 60.4263C7.50041 62.204 34.7713 63.6451 68.4117 63.6451Z" fill="#ACD3E4"/>
<path d="M8.51572 27.3339C10.3447 26.6062 12.2335 26.0394 14.1609 25.6398L12.4673 23.381H7.9512L8.51572 27.3339ZM133.613 32.1339C131.806 31.7951 123.451 28.9151 123.451 27.3904C123.451 25.8657 124.919 25.6963 126.274 25.6963H127.967L133.613 32.1339Z" fill="#53B175"/>
<path d="M25.1697 59.0138C31.9975 59.0138 37.5326 53.4769 37.5326 46.6468C37.5326 39.8166 31.9975 34.2797 25.1697 34.2797C18.3418 34.2797 12.8068 39.8166 12.8068 46.6468C12.8068 53.4769 18.3418 59.0138 25.1697 59.0138Z" fill="#CAE2ED"/>
<path d="M25.1696 60.4822C22.4454 60.4822 19.7823 59.6741 17.5171 58.16C15.2519 56.646 13.4865 54.494 12.4439 51.9763C11.4014 49.4585 11.1286 46.6881 11.6601 44.0152C12.1916 41.3424 13.5035 38.8873 15.4298 36.9603C17.3562 35.0333 19.8105 33.721 22.4824 33.1893C25.1544 32.6576 27.9239 32.9305 30.4408 33.9734C32.9577 35.0163 35.1089 36.7823 36.6225 39.0483C38.136 41.3142 38.9438 43.9782 38.9438 46.7034C38.929 50.3531 37.473 53.8492 34.893 56.43C32.3131 59.0108 28.8182 60.4673 25.1696 60.4822ZM25.1696 35.7481C23.0036 35.7481 20.8862 36.3906 19.0852 37.5944C17.2843 38.7981 15.8806 40.5091 15.0517 42.5109C14.2228 44.5128 14.0059 46.7155 14.4285 48.8406C14.851 50.9657 15.8941 52.9178 17.4257 54.4499C18.9573 55.982 20.9087 57.0254 23.0331 57.4481C25.1575 57.8709 27.3595 57.6539 29.3606 56.8247C31.3618 55.9955 33.0722 54.5914 34.2756 52.7898C35.4789 50.9882 36.1212 48.8701 36.1212 46.7034C36.1212 43.7978 34.9674 41.0113 32.9136 38.9568C30.8598 36.9023 28.0742 35.7481 25.1696 35.7481V35.7481Z" fill="#53B175"/>
<path d="M25.1696 53.7054C29.0667 53.7054 32.226 50.545 32.226 46.6465C32.226 42.748 29.0667 39.5877 25.1696 39.5877C21.2724 39.5877 18.1131 42.748 18.1131 46.6465C18.1131 50.545 21.2724 53.7054 25.1696 53.7054Z" fill="white"/>
<path d="M18.5647 49.4138C18.2046 48.535 18.0131 47.5963 18.0002 46.6467C17.9891 45.2395 18.3953 43.8606 19.1676 42.6843C19.9399 41.5081 21.0435 40.5874 22.3389 40.0386C23.6343 39.4897 25.0633 39.3375 26.4452 39.6011C27.8271 39.8647 29.0998 40.5323 30.1024 41.5194C31.105 42.5066 31.7925 43.769 32.0779 45.1469C32.3633 46.5249 32.2338 47.9566 31.7058 49.261C31.1778 50.5654 30.275 51.6838 29.1115 52.475C27.9481 53.2661 26.5763 53.6943 25.1695 53.7055C23.5701 53.7198 22.0147 53.1812 20.7663 52.1808" fill="white"/>
<path d="M25.1696 54.4407C23.4063 54.4419 21.6948 53.8446 20.3148 52.7466C20.18 52.6193 20.1014 52.4437 20.0961 52.2583C20.0908 52.073 20.1593 51.8931 20.2865 51.7584C20.4138 51.6236 20.5894 51.5449 20.7747 51.5396C20.9599 51.5343 21.1397 51.6028 21.2745 51.7301C22.3998 52.6393 23.8007 53.1389 25.2473 53.1469C26.6939 53.1549 28.1002 52.6708 29.2356 51.7741C30.3709 50.8773 31.1679 49.6212 31.4956 48.2117C31.8234 46.8023 31.6626 45.3232 31.0395 44.0173C30.4164 42.7113 29.3681 41.656 28.0665 41.0245C26.7649 40.3929 25.2874 40.2227 23.8764 40.5416C22.4654 40.8606 21.2047 41.6498 20.3011 42.7799C19.3975 43.9099 18.9046 45.3136 18.9035 46.7607C18.9034 47.6148 19.0762 48.46 19.4115 49.2454C19.4578 49.4185 19.4439 49.6022 19.3721 49.7664C19.3003 49.9305 19.1749 50.0654 19.0164 50.1489C18.9329 50.1951 18.84 50.2213 18.7448 50.2257C18.6495 50.2301 18.5546 50.2125 18.4672 50.1743C18.3799 50.1361 18.3025 50.0783 18.2411 50.0053C18.1797 49.9324 18.1359 49.8463 18.1132 49.7537C17.6751 48.8183 17.4625 47.7932 17.4922 46.7607C17.4922 45.2194 17.9491 43.7127 18.8051 42.4312C19.6611 41.1496 20.8778 40.1508 22.3013 39.561C23.7248 38.9712 25.2912 38.8168 26.8023 39.1175C28.3135 39.4182 29.7016 40.1604 30.7911 41.2503C31.8806 42.3401 32.6226 43.7287 32.9232 45.2404C33.2237 46.7521 33.0695 48.319 32.4798 49.7429C31.8902 51.1669 30.8917 52.384 29.6106 53.2403C28.3295 54.0966 26.8233 54.5536 25.2825 54.5536L25.1696 54.4407Z" fill="#53B175"/>
<path d="M111.654 59.0138C118.481 59.0138 124.016 53.4769 124.016 46.6468C124.016 39.8166 118.481 34.2797 111.654 34.2797C104.826 34.2797 99.2907 39.8166 99.2907 46.6468C99.2907 53.4769 104.826 59.0138 111.654 59.0138Z" fill="#CAE2ED"/>
<path d="M111.71 60.4821C108.988 60.4709 106.331 59.6533 104.073 58.1325C101.815 56.6117 100.059 54.4559 99.0249 51.9372C97.991 49.4185 97.7263 46.6498 98.2641 43.9807C98.802 41.3116 100.118 38.8617 102.047 36.9404C103.975 35.019 106.43 33.7123 109.1 33.1852C111.771 32.6581 114.537 32.9343 117.051 33.9788C119.564 35.0233 121.712 36.7894 123.223 39.0541C124.734 41.3187 125.541 43.9805 125.541 46.7033C125.541 48.5175 125.183 50.3139 124.487 51.9893C123.791 53.6647 122.772 55.1862 121.487 56.4664C120.202 57.7466 118.676 58.7604 116.999 59.4495C115.321 60.1386 113.524 60.4895 111.71 60.4821V60.4821ZM111.71 35.748C109.547 35.7591 107.435 36.4111 105.641 37.6217C103.848 38.8322 102.453 40.5471 101.633 42.5498C100.812 44.5526 100.604 46.7536 101.032 48.8749C101.461 50.9963 102.509 52.9431 104.043 54.4696C105.577 55.9961 107.528 57.0338 109.651 57.452C111.774 57.8702 113.973 57.6499 115.971 56.8191C117.969 55.9883 119.676 54.5841 120.877 52.7838C122.077 50.9834 122.718 48.8676 122.718 46.7033C122.718 45.2598 122.433 43.8306 121.879 42.4978C121.325 41.1649 120.514 39.9547 119.491 38.9367C118.468 37.9186 117.254 37.1129 115.919 36.5656C114.583 36.0184 113.153 35.7405 111.71 35.748Z" fill="#53B175"/>
<path d="M111.653 53.7055C115.551 53.7055 118.71 50.5452 118.71 46.6467C118.71 42.7482 115.551 39.5879 111.653 39.5879C107.756 39.5879 104.597 42.7482 104.597 46.6467C104.597 50.5452 107.756 53.7055 111.653 53.7055Z" fill="white"/>
<path d="M99.2901 48.0585H43.9675C43.5932 48.0585 43.2343 47.9098 42.9696 47.6451C42.7049 47.3803 42.5562 47.0212 42.5562 46.6468C42.5562 46.2724 42.7049 45.9133 42.9696 45.6485C43.2343 45.3838 43.5932 45.235 43.9675 45.235H99.2901C99.6644 45.235 100.023 45.3838 100.288 45.6485C100.553 45.9133 100.701 46.2724 100.701 46.6468C100.701 47.0212 100.553 47.3803 100.288 47.6451C100.023 47.9098 99.6644 48.0585 99.2901 48.0585ZM3.32236 30.6656C3.20598 30.6677 3.09134 30.6371 2.99152 30.5772C2.89171 30.5173 2.81074 30.4305 2.75784 30.3268C2.69469 30.2638 2.64458 30.189 2.61039 30.1067C2.5762 30.0243 2.5586 29.936 2.5586 29.8468C2.5586 29.7576 2.5762 29.6693 2.61039 29.5869C2.64458 29.5045 2.69469 29.4297 2.75784 29.3668C5.97007 27.4793 9.48411 26.1611 13.1449 25.4703L12.4111 24.3409H3.32236C3.22844 24.3412 3.13549 24.322 3.04939 24.2845C2.96329 24.247 2.88594 24.1919 2.82223 24.1229C2.75853 24.0539 2.70988 23.9723 2.67936 23.8835C2.64883 23.7946 2.63711 23.7004 2.64494 23.6068C2.59478 23.4987 2.57401 23.3793 2.58473 23.2606C2.59545 23.1419 2.63727 23.0281 2.70597 22.9307C2.77468 22.8333 2.86785 22.7558 2.97607 22.706C3.08429 22.6561 3.20373 22.6357 3.32236 22.6468H12.7498C12.9857 22.6561 13.2086 22.7575 13.3708 22.9291L14.9514 25.188C15.0058 25.2926 15.0342 25.4088 15.0342 25.5268C15.0342 25.6447 15.0058 25.761 14.9514 25.8656C14.9056 25.974 14.8363 26.0708 14.7484 26.1489C14.6605 26.2271 14.5563 26.2846 14.4433 26.3174C10.6208 27.0278 6.96425 28.4449 3.66107 30.4962L3.32236 30.6656ZM137 33.0374C135.836 33.1583 134.663 33.1583 133.5 33.0374C133.5 33.0374 122.661 30.2138 122.661 27.3903C122.661 26.2609 123.226 25.0186 126.218 25.0186H135.419C135.599 25.0186 135.771 25.0899 135.898 25.217C136.025 25.3441 136.097 25.5165 136.097 25.6962C136.104 25.7898 136.093 25.884 136.062 25.9729C136.032 26.0617 135.983 26.1433 135.919 26.2123C135.856 26.2813 135.778 26.3364 135.692 26.3739C135.606 26.4114 135.513 26.4306 135.419 26.4303H126.218C124.072 26.4303 124.072 27.108 124.072 27.3903C127.013 29.3269 130.286 30.7052 133.726 31.4562C135.603 31.6305 137.493 31.6305 139.371 31.4562C139.709 31.4562 140.105 31.7386 140.105 32.1338C140.112 32.2275 140.101 32.3217 140.07 32.4105C140.04 32.4994 139.991 32.5809 139.927 32.65C139.864 32.719 139.786 32.774 139.7 32.8115C139.614 32.8491 139.521 32.8683 139.427 32.868L137 33.0374ZM54.9756 24.0021H49.3304C49.2365 24.0024 49.1436 23.9832 49.0575 23.9457C48.9714 23.9081 48.894 23.8531 48.8303 23.7841C48.7666 23.715 48.718 23.6335 48.6874 23.5447C48.6569 23.4558 48.6452 23.3616 48.653 23.268C48.653 23.0882 48.7244 22.9159 48.8514 22.7888C48.9785 22.6617 49.1508 22.5903 49.3304 22.5903H54.9756C55.1553 22.5903 55.3276 22.6617 55.4546 22.7888C55.5816 22.9159 55.653 23.0882 55.653 23.268C55.6608 23.3616 55.6491 23.4558 55.6186 23.5447C55.5881 23.6335 55.5394 23.715 55.4757 23.7841C55.412 23.8531 55.3347 23.9081 55.2486 23.9457C55.1625 23.9832 55.0695 24.0024 54.9756 24.0021ZM73.3224 24.0021H67.6772C67.5833 24.0024 67.4903 23.9832 67.4042 23.9457C67.3181 23.9081 67.2408 23.8531 67.1771 23.7841C67.1134 23.715 67.0647 23.6335 67.0342 23.5447C67.0037 23.4558 66.992 23.3616 66.9998 23.268C66.9998 23.0882 67.0712 22.9159 67.1982 22.7888C67.3252 22.6617 67.4976 22.5903 67.6772 22.5903H73.3224C73.5076 22.5898 73.6862 22.6593 73.8223 22.785C73.9584 22.9107 74.042 23.0832 74.0562 23.268C74.0562 23.4627 73.9789 23.6494 73.8413 23.7871C73.7037 23.9247 73.517 24.0021 73.3224 24.0021V24.0021ZM95.903 42.4115H36.5159C36.422 42.4118 36.329 42.3926 36.2429 42.3551C36.1568 42.3175 36.0795 42.2625 36.0158 42.1935C35.9521 42.1244 35.9034 42.0429 35.8729 41.9541C35.8424 41.8652 35.8307 41.771 35.8385 41.6774C35.8385 41.4976 35.9099 41.3253 36.0369 41.1982C36.164 41.0711 36.3363 40.9997 36.5159 40.9997H94.9998C95.343 39.0692 96.1079 37.2382 97.2398 35.6374C98.3717 34.0365 99.8428 32.7053 101.548 31.7385C101.611 31.6754 101.686 31.6252 101.768 31.591C101.851 31.5568 101.939 31.5392 102.028 31.5392C102.117 31.5392 102.205 31.5568 102.288 31.591C102.37 31.6252 102.445 31.6754 102.508 31.7385C102.594 31.913 102.613 32.1132 102.561 32.3008C102.509 32.4883 102.39 32.6501 102.226 32.755C100.67 33.7026 99.3515 34.9946 98.3729 36.5316C97.3942 38.0686 96.781 39.8097 96.5805 41.6209C96.597 41.7189 96.5918 41.8193 96.5653 41.915C96.5388 42.0107 96.4915 42.0995 96.4269 42.1749C96.3622 42.2504 96.2818 42.3106 96.1913 42.3515C96.1007 42.3924 96.0023 42.4129 95.903 42.4115V42.4115ZM13.7659 42.4115C11.536 42.3337 9.36205 41.6922 7.44699 40.5467C5.53192 39.4012 3.93813 37.7892 2.8143 35.8609C2.73574 35.6881 2.72713 35.4916 2.79028 35.3126C2.85343 35.1336 2.98343 34.9861 3.15301 34.9009C3.32575 34.8429 3.5139 34.8512 3.68086 34.9242C3.84781 34.9973 3.98161 35.1299 4.05623 35.2962C5.13941 36.9644 6.60719 38.348 8.33614 39.3307C10.0651 40.3134 12.0047 40.8664 13.9917 40.9433C14.0812 40.9569 14.1671 40.9884 14.2442 41.0358C14.3214 41.0832 14.3883 41.1456 14.4409 41.2193C14.4935 41.293 14.5308 41.3765 14.5506 41.4649C14.5705 41.5533 14.5724 41.6447 14.5562 41.7338C14.5491 41.8303 14.523 41.9245 14.4793 42.0109C14.4357 42.0972 14.3754 42.1741 14.302 42.2371C14.2285 42.3001 14.1433 42.3479 14.0513 42.3778C13.9593 42.4078 13.8623 42.4192 13.7659 42.4115V42.4115ZM94.4917 17.7338L97.8788 20.275L94.4917 17.7338ZM97.8788 21.6868C97.5721 21.6957 97.2721 21.5957 97.0321 21.4044L93.645 18.8633C93.4967 18.752 93.3718 18.6127 93.2774 18.4531C93.1829 18.2936 93.1208 18.117 93.0946 17.9335C93.0684 17.75 93.0786 17.5631 93.1246 17.3835C93.1706 17.2039 93.2515 17.0351 93.3627 16.8868C93.4739 16.7385 93.6132 16.6135 93.7727 16.5191C93.9322 16.4246 94.1087 16.3625 94.2921 16.3363C94.4756 16.3101 94.6625 16.3202 94.842 16.3662C95.0215 16.4123 95.1902 16.4932 95.3385 16.6044L98.7256 19.1456C98.8739 19.2568 98.9988 19.3962 99.0932 19.5557C99.1876 19.7153 99.2497 19.8918 99.2759 20.0754C99.3022 20.2589 99.292 20.4458 99.246 20.6254C99.2 20.805 99.1191 20.9738 99.0079 21.1221C98.8832 21.3045 98.7141 21.4521 98.5166 21.5509C98.319 21.6497 98.0995 21.6965 97.8788 21.6868V21.6868Z" fill="#53B175"/>
<path d="M118.766 46.6465C118.778 48.0561 118.37 49.4373 117.595 50.6148C116.82 51.7923 115.713 52.7131 114.415 53.2603C113.116 53.8075 111.684 53.9565 110.301 53.6883C108.917 53.4202 107.645 52.747 106.644 51.7542C105.644 50.7614 104.961 49.4937 104.682 48.112C104.403 46.7302 104.54 45.2967 105.077 43.9932C105.613 42.6898 106.525 41.5752 107.696 40.7908C108.867 40.0065 110.244 39.5877 111.653 39.5876C112.643 39.5668 113.624 39.7595 114.532 40.1524" fill="white"/>
<path d="M111.709 54.4402C109.643 54.4402 107.662 53.6191 106.201 52.1577C104.74 50.6962 103.919 48.714 103.919 46.6472C103.919 44.5804 104.74 42.5982 106.201 41.1368C107.662 39.6753 109.643 38.8543 111.709 38.8543C112.8 38.8441 113.88 39.0755 114.871 39.5319C115.037 39.6066 115.17 39.7404 115.243 39.9074C115.316 40.0744 115.324 40.2626 115.266 40.4354C115.181 40.6061 115.036 40.7401 114.86 40.8127C114.684 40.8854 114.487 40.8918 114.306 40.8307C113.498 40.4385 112.608 40.2449 111.709 40.266C110.448 40.266 109.215 40.6403 108.165 41.3414C107.116 42.0426 106.299 43.0392 105.816 44.2052C105.333 45.3712 105.207 46.6543 105.453 47.8921C105.699 49.1299 106.307 50.267 107.199 51.1594C108.091 52.0518 109.228 52.6596 110.465 52.9058C111.702 53.152 112.985 53.0256 114.151 52.5426C115.316 52.0597 116.313 51.2418 117.013 50.1924C117.714 49.143 118.089 47.9093 118.089 46.6472C118.089 46.4525 118.166 46.2658 118.303 46.1281C118.441 45.9904 118.628 45.9131 118.822 45.9131C119.007 45.9273 119.18 46.0109 119.305 46.1471C119.431 46.2833 119.5 46.4619 119.5 46.6472C119.5 48.714 118.679 50.6962 117.218 52.1577C115.757 53.6191 113.776 54.4402 111.709 54.4402V54.4402Z" fill="#53B175"/>
<path d="M117.581 42.7505C117.862 43.1723 118.09 43.6276 118.258 44.1058Z" fill="white"/>
<path d="M118.484 44.8403C118.347 44.8367 118.214 44.7916 118.103 44.711C117.992 44.6303 117.909 44.5179 117.863 44.3886C117.694 43.9281 117.467 43.4914 117.186 43.0898C117.088 42.9325 117.057 42.743 117.1 42.563C117.142 42.3829 117.254 42.2271 117.411 42.1298C117.569 42.0324 117.758 42.0015 117.938 42.0439C118.118 42.0862 118.274 42.1984 118.371 42.3556C118.701 42.8266 118.967 43.3393 119.161 43.8803C119.198 43.9653 119.216 44.0568 119.216 44.1492C119.215 44.2415 119.196 44.3328 119.159 44.4174C119.122 44.502 119.068 44.5782 119 44.6412C118.933 44.7042 118.853 44.7528 118.766 44.7839L118.484 44.8403Z" fill="#53B175"/>
<path d="M5.58064 18.2407H72.5887C66.3774 12.4617 58.4478 8.8723 50.0081 8.01953H11.6774" fill="#CAE2ED"/>
<path d="M5.01595 17.7334H94.5482C88.4212 11.996 80.5945 8.40841 72.2498 7.51221L22.5159 7.68162" fill="#CAE2ED"/>
<path d="M94.4917 19.1465H5.01595C4.64165 19.1465 4.28268 18.9978 4.01802 18.733C3.75335 18.4683 3.60466 18.1092 3.60466 17.7348C3.60466 17.3603 3.75335 17.0013 4.01802 16.7365C4.28268 16.4717 4.64165 16.323 5.01595 16.323H90.2579C85.1191 12.0926 78.8225 9.51408 72.1934 8.92536L22.5159 9.09477C22.1512 9.09506 21.8006 8.9541 21.5375 8.70143C21.2744 8.44877 21.1192 8.10403 21.1047 7.73948C21.1044 7.35967 21.2512 6.99452 21.5144 6.72074C21.7776 6.44696 22.1365 6.28585 22.5159 6.27124H72.3627C74.7337 6.27124 83.3143 7.06183 95.5079 16.7748C95.7264 16.9676 95.885 17.219 95.965 17.4992C96.0451 17.7795 96.0432 18.0768 95.9595 18.3559C95.8206 18.6311 95.5986 18.8555 95.325 18.9974C95.0514 19.1393 94.7402 19.1915 94.4353 19.1465H94.4917ZM10.6611 9.20771C10.2868 9.20771 9.92785 9.05897 9.66318 8.79421C9.39851 8.52946 9.24982 8.17037 9.24982 7.79595C9.24982 7.42152 9.39851 7.06244 9.66318 6.79768C9.92785 6.53292 10.2868 6.38418 10.6611 6.38418H16.3063C16.6806 6.38418 17.0395 6.53292 17.3042 6.79768C17.5689 7.06244 17.7176 7.42152 17.7176 7.79595C17.7252 7.97862 17.6958 8.16095 17.6311 8.33195C17.5664 8.50296 17.4678 8.65911 17.3413 8.791C17.2147 8.92289 17.0627 9.0278 16.8946 9.09942C16.7264 9.17103 16.5455 9.20787 16.3627 9.20771H10.7176H10.6611Z" fill="#53B175"/>
<path d="M28.7254 18.4113C28.5401 18.3705 28.3778 18.2595 28.2725 18.1015C28.1673 17.9436 28.1272 17.751 28.1609 17.5642L30.1931 8.52894C30.2462 8.33912 30.3683 8.17598 30.5354 8.07151C30.7025 7.96704 30.9025 7.92878 31.0964 7.96423C31.2216 8.00811 31.3338 8.08284 31.4226 8.18153C31.5114 8.28023 31.574 8.3997 31.6044 8.52894L29.4593 17.9031C29.4024 18.0519 29.3019 18.18 29.1709 18.2707C29.04 18.3614 28.8847 18.4104 28.7254 18.4113V18.4113ZM62.3706 39.5878C62.1909 39.5878 62.0186 39.5164 61.8915 39.3893C61.7645 39.2622 61.6931 39.0898 61.6931 38.9101C61.0006 26.6541 59.4348 14.4632 57.0076 2.43011C56.9915 2.34099 56.9934 2.24953 57.0132 2.16115C57.033 2.07277 57.0704 1.98926 57.123 1.91556C57.1756 1.84186 57.2425 1.77945 57.3196 1.73204C57.3968 1.68463 57.4827 1.65317 57.5722 1.63952C57.6577 1.61431 57.7476 1.60781 57.8358 1.62046C57.9241 1.63312 58.0085 1.66462 58.0835 1.71284C58.1585 1.76105 58.2222 1.82486 58.2704 1.8999C58.3185 1.97495 58.3499 2.05948 58.3625 2.14776C60.8197 14.2727 62.4044 26.5584 63.1044 38.9101C63.1047 39.0041 63.0855 39.0971 63.048 39.1832C63.0105 39.2693 62.9555 39.3467 62.8865 39.4104C62.8175 39.4741 62.736 39.5228 62.6472 39.5533C62.5583 39.5839 62.4641 39.5956 62.3706 39.5878V39.5878ZM83.9915 19.3713H88.1689C88.6031 19.3713 89.0195 19.1988 89.3265 18.8916C89.6335 18.5845 89.806 18.168 89.806 17.7336C89.806 17.2993 89.6335 16.8828 89.3265 16.5757C89.0195 16.2685 88.6031 16.096 88.1689 16.096H83.9915V19.3713Z" fill="#53B175"/>
<path d="M88.1691 20.7827H83.9917C83.6174 20.7827 83.2584 20.634 82.9937 20.3692C82.7291 20.1045 82.5804 19.7454 82.5804 19.371V16.0957C82.5804 15.7212 82.7291 15.3622 82.9937 15.0974C83.2584 14.8326 83.6174 14.6839 83.9917 14.6839H88.1691C88.9776 14.6839 89.7529 15.0052 90.3246 15.5771C90.8963 16.1489 91.2175 16.9246 91.2175 17.7333C91.2175 18.5421 90.8963 19.3177 90.3246 19.8896C89.7529 20.4615 88.9776 20.7827 88.1691 20.7827V20.7827ZM85.3465 17.9592H88.1691V17.5639H85.3465V17.9592Z" fill="#53B175"/>
</svg>
