<svg width="149" height="56" viewBox="0 0 149 56" fill="none" xmlns="http://www.w3.org/2000/svg">
<path d="M18.7825 41.6408L7.49214 39.269C5.85413 38.4059 4.38236 37.2587 3.14537 35.8808C2.92811 35.1489 2.85149 34.3824 2.91956 33.622C2.37597 30.5197 1.99908 27.3905 1.79053 24.2478C2.09712 22.6651 2.95778 21.2435 4.21795 20.2384C4.86288 19.0624 5.19344 17.7397 5.17763 16.3984C5.21191 16.06 5.35833 15.7428 5.5936 15.4972C5.82887 15.2516 6.13948 15.0918 6.47601 15.0431C12.2977 13.9217 18.178 13.1299 24.0889 12.6714C27.5657 12.734 31.035 13.0169 34.476 13.5184L46.5002 15.6643L82.6292 16.229L69.2502 5.61256C68.855 5.33021 68.0083 4.03138 68.6857 3.07138C68.9569 2.70369 69.3504 2.44483 69.7953 2.34132C70.2403 2.23781 70.7075 2.29644 71.1131 2.50668C71.847 2.73256 92.3389 14.5349 92.3389 14.5349L118.702 16.229C122.766 16.6808 139.476 20.8596 147.041 28.822C147.887 29.669 146.307 31.4196 146.307 31.4196C146.591 34.0456 146.629 36.6925 146.42 39.3255C146.238 40.2574 145.954 41.1664 145.573 42.0361C141.542 42.4968 137.474 42.5346 133.436 42.149" fill="white"/>
<path d="M137.895 43.8419C136.31 43.8823 134.723 43.7879 133.153 43.5595C132.966 43.526 132.788 43.455 132.629 43.3508C132.47 43.2465 132.334 43.1113 132.228 42.953C132.123 42.7948 132.05 42.6169 132.015 42.43C131.98 42.2431 131.983 42.0511 132.024 41.8654C132.051 41.6805 132.116 41.5031 132.214 41.3444C132.312 41.1856 132.443 41.0489 132.596 40.9429C132.75 40.8368 132.924 40.7637 133.107 40.7281C133.291 40.6925 133.479 40.6952 133.662 40.736C137.283 41.1224 140.935 41.1224 144.557 40.736L145.008 39.0419C145.22 36.5408 145.182 34.0249 144.895 31.5313C144.875 31.3388 144.895 31.1442 144.953 30.9596C145.012 30.775 145.107 30.6044 145.234 30.4584C145.457 30.2008 145.647 29.9162 145.799 29.6113C138.46 22.0442 122.428 18.0913 118.532 17.6395C114.637 17.1878 92.4518 15.9454 92.226 15.9454C92.0237 15.9121 91.8311 15.835 91.6615 15.7195L70.5486 3.86072C69.9841 3.69131 69.9841 3.80425 69.8712 3.91719C69.9064 4.16334 70.0035 4.39651 70.1535 4.59484L83.5325 15.1548C83.7478 15.3384 83.903 15.5824 83.978 15.8552C84.053 16.1281 84.0443 16.4171 83.953 16.685C83.8617 16.9528 83.6921 17.187 83.4661 17.3572C83.2401 17.5275 82.9683 17.6258 82.6857 17.6395C77.3228 17.9219 55.3067 17.5831 46.3873 17.0748C44.5475 16.8697 42.7197 16.5681 40.9115 16.1713L34.3067 14.929C30.9399 14.4487 27.5459 14.1846 24.1454 14.1384C18.7824 14.5072 13.4471 15.205 8.16959 16.2278L6.6454 16.5101C6.64393 18.1689 6.1743 19.7936 5.29056 21.1972L4.83895 21.7619C3.97452 22.4148 3.37347 23.3568 3.1454 24.416C3.28986 26.8798 3.59155 29.3319 4.04863 31.7572L4.33089 33.7337C4.3018 34.2415 4.3018 34.7505 4.33089 35.2584C5.3903 36.3952 6.6301 37.3492 8.00024 38.0819C11.6476 39.0226 15.3406 39.7766 19.0648 40.3407C19.2519 40.3743 19.4303 40.4453 19.5892 40.5495C19.7482 40.6537 19.8845 40.789 19.99 40.9472C20.0954 41.1054 20.1678 41.2833 20.2028 41.4702C20.2379 41.6571 20.2348 41.8492 20.1938 42.0348C20.1672 42.2197 20.1026 42.3971 20.0042 42.5559C19.9058 42.7147 19.7757 42.8514 19.622 42.9574C19.4682 43.0635 19.2943 43.1366 19.1109 43.1722C18.9276 43.2078 18.7389 43.2051 18.5567 43.1643C14.6383 42.5466 10.7563 41.7172 6.92766 40.6795C5.08987 39.7288 3.44387 38.446 2.07282 36.896C1.50831 36.3313 1.5083 35.4278 1.5083 33.8466L1.2825 32.1525C0.764613 29.5085 0.462542 26.8267 0.379272 24.1337C0.607025 22.3968 1.47222 20.8067 2.80669 19.6725L3.20185 19.2772C3.20185 19.2207 3.59701 18.7125 3.76637 16.4537C3.81472 15.7696 4.10085 15.1241 4.57516 14.629C5.04946 14.1339 5.68202 13.8205 6.36314 13.7431L7.66153 13.4607C13.069 12.4082 18.5365 11.6916 24.0325 11.3148C27.6029 11.3798 31.1659 11.6627 34.7018 12.1619L41.476 13.4042L46.5567 14.3078L78.7341 14.8725L68.4599 6.79719C67.7885 6.28092 67.3269 5.53863 67.1608 4.70792C66.9947 3.87721 67.1354 3.01444 67.5567 2.27954C67.9826 1.64667 68.6194 1.18571 69.3535 0.978854C70.0876 0.771997 70.8712 0.8327 71.5647 1.15013C72.2986 1.43249 83.4196 7.75719 92.7905 13.1784L118.871 14.8725C123.782 15.4372 140.436 19.729 148.113 27.8607C149.242 28.9901 148.678 30.6843 147.831 31.8137C148.105 34.4041 148.105 37.0162 147.831 39.6066C147.634 40.6759 147.311 41.7183 146.871 42.7125C146.759 42.9193 146.597 43.0947 146.4 43.2229C146.203 43.3511 145.977 43.428 145.742 43.4466C145.516 43.5031 141.678 43.8984 137.952 43.8984L137.895 43.8419Z" fill="#53B175"/>
<path d="M76.137 55.53C111.648 55.53 140.435 54.0889 140.435 52.3112C140.435 50.5335 111.648 49.0924 76.137 49.0924C40.626 49.0924 11.8386 50.5335 11.8386 52.3112C11.8386 54.0889 40.626 55.53 76.137 55.53Z" fill="#ACD3E4"/>
<path d="M30.1854 50.9003C36.608 50.9003 41.8145 45.6921 41.8145 39.2674C41.8145 32.8427 36.608 27.6345 30.1854 27.6345C23.7629 27.6345 18.5564 32.8427 18.5564 39.2674C18.5564 45.6921 23.7629 50.9003 30.1854 50.9003Z" fill="#CAE2ED"/>
<path d="M30.1855 52.3119C27.6016 52.3231 25.0726 51.5661 22.9195 50.1371C20.7664 48.708 19.0863 46.6713 18.0923 44.2854C17.0983 41.8995 16.8353 39.272 17.3367 36.7363C17.8381 34.2006 19.0812 31.8711 20.9083 30.0434C22.7354 28.2156 25.0641 26.9721 27.599 26.4706C30.1338 25.969 32.7604 26.2321 35.1455 27.2264C37.5306 28.2208 39.5667 29.9015 40.9952 32.0553C42.4238 34.2091 43.1806 36.7389 43.1694 39.3237C43.1545 42.7638 41.7818 46.0588 39.3501 48.4914C36.9184 50.9239 33.6245 52.2971 30.1855 52.3119ZM30.1855 29.0461C28.1623 29.0349 26.1813 29.6248 24.4936 30.7411C22.8058 31.8574 21.4874 33.4498 20.7054 35.3165C19.9234 37.1831 19.713 39.24 20.1008 41.2265C20.4887 43.2129 21.4573 45.0394 22.8841 46.4745C24.3108 47.9096 26.1313 48.8887 28.1148 49.2877C30.0984 49.6867 32.1557 49.4876 34.0261 48.7157C35.8964 47.9437 37.4956 46.6337 38.6208 44.9516C39.7461 43.2696 40.3468 41.2912 40.3468 39.2672C40.332 36.576 39.2567 33.9991 37.3543 32.0961C35.4518 30.193 32.8759 29.1174 30.1855 29.1025V29.0461Z" fill="#53B175"/>
<path d="M30.1852 45.932C33.8641 45.932 36.8464 42.9487 36.8464 39.2685C36.8464 35.5883 33.8641 32.605 30.1852 32.605C26.5062 32.605 23.5239 35.5883 23.5239 39.2685C23.5239 42.9487 26.5062 45.932 30.1852 45.932Z" fill="white"/>
<path d="M24.0876 41.8661C23.5291 40.5461 23.4109 39.0811 23.7506 37.6886C24.0903 36.2961 24.8699 35.0503 25.9735 34.1361C27.0772 33.222 28.4461 32.6881 29.877 32.6139C31.308 32.5397 32.7247 32.929 33.917 33.7241C35.1092 34.5192 36.0134 35.6777 36.4953 37.0276C36.9771 38.3774 37.0111 39.8468 36.592 41.2175C36.1729 42.5882 35.3231 43.7871 34.1688 44.6364C33.0145 45.4857 31.6173 45.94 30.1844 45.9319C28.6839 45.925 27.2305 45.4072 26.0634 44.4637" fill="white"/>
<path d="M30.186 46.666C28.5202 46.6551 26.9076 46.0776 25.6134 45.0284C25.4816 44.9091 25.3975 44.7461 25.3767 44.5696C25.356 44.393 25.4 44.2149 25.5005 44.0684C25.5556 43.9886 25.6272 43.9217 25.7104 43.872C25.7936 43.8223 25.8865 43.791 25.9829 43.7803C26.0792 43.7696 26.1767 43.7797 26.2688 43.8099C26.3608 43.8401 26.4454 43.8897 26.5166 43.9554C27.6356 44.8675 29.0489 45.3399 30.4912 45.2838C31.9336 45.2277 33.3059 44.6471 34.3507 43.6508C35.3955 42.6545 36.0411 41.3111 36.1661 39.8726C36.2912 38.4341 35.8872 36.9994 35.03 35.8377C34.1729 34.6759 32.9213 33.867 31.5103 33.5626C30.0993 33.2583 28.6258 33.4795 27.3662 34.1847C26.1066 34.8899 25.1475 36.0306 24.6689 37.3928C24.1903 38.7551 24.225 40.2452 24.7666 41.5836C24.8037 41.6726 24.8229 41.7681 24.8231 41.8645C24.8233 41.9609 24.8045 42.0564 24.7678 42.1455C24.7311 42.2347 24.6772 42.3157 24.6092 42.384C24.5412 42.4523 24.4604 42.5066 24.3715 42.5436C24.2838 42.5895 24.1872 42.6156 24.0884 42.6202C23.9896 42.6247 23.891 42.6075 23.7995 42.5698C23.708 42.5321 23.6259 42.4749 23.559 42.4021C23.492 42.3293 23.4418 42.2427 23.4118 42.1484C22.806 40.694 22.6841 39.0832 23.064 37.5541C23.4439 36.025 24.3055 34.6588 25.5215 33.6573C26.7374 32.6559 28.2433 32.0723 29.8163 31.993C31.3894 31.9136 32.9462 32.3426 34.2568 33.2166C35.5673 34.0906 36.562 35.3632 37.0938 36.8462C37.6256 38.3293 37.6662 39.9442 37.2098 41.4522C36.7534 42.9602 35.8241 44.2813 34.5592 45.2202C33.2943 46.1591 31.7611 46.666 30.186 46.666V46.666Z" fill="#53B175"/>
<path d="M122.145 50.9003C128.568 50.9003 133.774 45.6921 133.774 39.2674C133.774 32.8427 128.568 27.6345 122.145 27.6345C115.723 27.6345 110.516 32.8427 110.516 39.2674C110.516 45.6921 115.723 50.9003 122.145 50.9003Z" fill="#CAE2ED"/>
<path d="M122.145 52.3119C119.561 52.3231 117.032 51.5661 114.879 50.1371C112.726 48.708 111.046 46.6713 110.052 44.2854C109.058 41.8995 108.795 39.272 109.296 36.7363C109.798 34.2006 111.041 31.8711 112.868 30.0434C114.695 28.2156 117.024 26.9721 119.559 26.4706C122.094 25.969 124.72 26.2321 127.105 27.2264C129.49 28.2208 131.526 29.9015 132.955 32.0553C134.384 34.2091 135.14 36.7389 135.129 39.3237C135.114 42.7638 133.742 46.0588 131.31 48.4914C128.878 50.9239 125.584 52.2971 122.145 52.3119ZM122.145 29.0461C120.122 29.0349 118.141 29.6248 116.453 30.7411C114.766 31.8574 113.447 33.4498 112.665 35.3165C111.883 37.1831 111.673 39.24 112.061 41.2265C112.448 43.2129 113.417 45.0394 114.844 46.4745C116.27 47.9096 118.091 48.8887 120.075 49.2877C122.058 49.6867 124.115 49.4876 125.986 48.7157C127.856 47.9437 129.455 46.6337 130.581 44.9516C131.706 43.2696 132.307 41.2912 132.307 39.2672C132.292 36.576 131.216 33.9991 129.314 32.0961C127.412 30.193 124.836 29.1174 122.145 29.1025V29.0461Z" fill="#53B175"/>
<path d="M122.145 45.932C125.824 45.932 128.806 42.9487 128.806 39.2685C128.806 35.5883 125.824 32.605 122.145 32.605C118.466 32.605 115.484 35.5883 115.484 39.2685C115.484 42.9487 118.466 45.932 122.145 45.932Z" fill="white"/>
<path d="M120.225 32.9437C121.584 32.527 123.041 32.5599 124.38 33.0374C125.718 33.5149 126.867 34.4116 127.656 35.5943C128.444 36.777 128.831 38.1826 128.757 39.6024C128.684 41.0221 128.154 42.3803 127.248 43.4751C126.341 44.57 125.106 45.3432 123.725 45.6798C122.344 46.0164 120.892 45.8985 119.583 45.3436C118.275 44.7888 117.18 43.8265 116.462 42.5998C115.744 41.3731 115.44 39.9473 115.596 38.5343" fill="white"/>
<path d="M122.145 46.6658C121.106 46.6727 120.077 46.4587 119.126 46.038C118.176 45.6173 117.325 44.9994 116.632 44.2253C115.938 43.4512 115.416 42.5385 115.102 41.5476C114.787 40.5567 114.686 39.5103 114.806 38.4775C114.813 38.383 114.839 38.2909 114.883 38.2072C114.928 38.1234 114.989 38.0499 115.063 37.9914C115.138 37.9329 115.224 37.8906 115.316 37.8673C115.407 37.8441 115.503 37.8403 115.596 37.8563C115.771 37.8967 115.924 37.9993 116.028 38.1449C116.132 38.2904 116.179 38.469 116.161 38.6469C116.084 39.4672 116.18 40.2945 116.443 41.0752C116.797 42.1917 117.473 43.1784 118.387 43.9109C119.3 44.6435 120.41 45.0889 121.576 45.1912C122.743 45.2935 123.913 45.048 124.94 44.4856C125.967 43.9232 126.805 43.0692 127.347 42.0313C127.889 40.9933 128.112 39.818 127.988 38.6535C127.863 37.4889 127.396 36.3874 126.647 35.4878C125.897 34.5882 124.898 33.9308 123.775 33.5986C122.653 33.2664 121.457 33.2742 120.338 33.621C120.159 33.6757 119.965 33.6593 119.797 33.5753C119.629 33.4912 119.499 33.3459 119.435 33.1693C119.4 33.0806 119.384 32.9856 119.388 32.8903C119.392 32.7951 119.416 32.7018 119.459 32.6165C119.502 32.5312 119.562 32.4559 119.635 32.3955C119.709 32.335 119.795 32.2908 119.887 32.2657C120.886 31.9828 121.933 31.915 122.96 32.0669C123.987 32.2188 124.97 32.587 125.844 33.147C126.719 33.7071 127.464 34.4463 128.032 35.3159C128.599 36.1854 128.976 37.1655 129.137 38.1915C129.297 39.2174 129.239 40.2658 128.965 41.2674C128.691 42.2691 128.207 43.2011 127.546 44.002C126.886 44.803 126.063 45.4545 125.131 45.9137C124.2 46.3729 123.182 46.6292 122.145 46.6658V46.6658ZM111.193 44.5763H48.532C48.1577 44.5763 47.7987 44.4276 47.534 44.1629C47.2694 43.8981 47.1207 43.539 47.1207 43.1646C47.1207 42.7902 47.2694 42.4311 47.534 42.1663C47.7987 41.9016 48.1577 41.7528 48.532 41.7528H111.193C111.568 41.7528 111.927 41.9016 112.191 42.1663C112.456 42.4311 112.605 42.7902 112.605 43.1646C112.605 43.539 112.456 43.8981 112.191 44.1629C111.927 44.4276 111.568 44.5763 111.193 44.5763Z" fill="#53B175"/>
<path d="M98.8874 18.2611L71.0567 2.4493C70.6573 2.25423 70.2025 2.20389 69.7701 2.30688C69.3377 2.40987 68.9544 2.6598 68.6857 3.014C68.0083 3.974 68.9115 5.27282 69.2502 5.55518L82.6293 16.1152H95.1615" fill="#CAE2ED"/>
<path d="M98.8882 19.7289C98.6517 19.7301 98.4188 19.6719 98.2107 19.5595L94.8236 17.6395H82.6301C82.2986 17.6362 81.9788 17.5163 81.7269 17.3007L68.4043 6.74072C67.7469 6.22683 67.2947 5.49495 67.1291 4.67699C66.9635 3.85903 67.0954 3.0088 67.5011 2.27954C67.927 1.64667 68.5638 1.18571 69.2978 0.978854C70.0319 0.771997 70.8156 0.8327 71.5091 1.15013C72.243 1.37601 87.2027 9.95954 99.5656 17.0748C99.8426 17.2244 100.062 17.4622 100.188 17.7506C100.314 18.039 100.341 18.3614 100.263 18.6665C100.185 18.9715 100.007 19.2418 99.7582 19.4343C99.5091 19.6268 99.2029 19.7305 98.8882 19.7289V19.7289ZM83.0817 14.816H89.9688L70.5495 3.74778C69.9849 3.57837 69.9849 3.74778 69.8156 3.80425C69.8673 4.05588 69.9841 4.28954 70.1543 4.48189L83.1382 14.7595L83.0817 14.816ZM52.0333 17.0748C51.8142 17.0748 51.5981 17.0238 51.4022 16.9258C51.2062 16.8278 51.0357 16.6855 50.9043 16.5101L49.0978 14.0819C48.8958 13.7842 48.8151 13.4207 48.872 13.0654C49.2455 11.1256 49.2455 9.13231 48.872 7.19248C48.7835 7.14228 48.6885 7.10429 48.5898 7.07954C48.3014 7.23273 47.9688 7.28112 47.6487 7.21648C47.3286 7.15184 47.0408 6.97816 46.8344 6.72505C46.628 6.47193 46.5157 6.15505 46.5167 5.82839C46.5177 5.50174 46.6318 5.18553 46.8398 4.93366C47.3723 4.48063 48.0539 4.24138 48.7526 4.26224C49.4514 4.28311 50.1175 4.5626 50.622 5.0466C52.2027 6.17601 52.1462 9.79013 51.7511 12.9525L53.1624 14.8725C53.3869 15.172 53.4834 15.5485 53.4304 15.9192C53.3775 16.2899 53.1795 16.6243 52.8801 16.849C52.6378 17.036 52.3394 17.1356 52.0333 17.1313V17.0748Z" fill="#53B175"/>
<path d="M73.936 17.8099H78.1134C78.5625 17.8099 78.9933 17.6314 79.3109 17.3137C79.6285 16.9959 79.8069 16.565 79.8069 16.1157C79.7783 15.6863 79.5873 15.2838 79.2727 14.9902C78.9582 14.6965 78.5437 14.5336 78.1134 14.5346H73.936V17.8099Z" fill="#53B175"/>
<path d="M78.1699 19.1652H73.9925C73.6278 19.1655 73.2771 19.0246 73.014 18.7719C72.7509 18.5192 72.5958 18.1745 72.5812 17.81V14.5347C72.5812 14.1602 72.7299 13.8012 72.9946 13.5364C73.2592 13.2716 73.6182 13.1229 73.9925 13.1229H78.1699C78.9784 13.1229 79.7538 13.4442 80.3255 14.0161C80.8971 14.5879 81.2183 15.3636 81.2183 16.1723C81.2183 16.9811 80.8971 17.7567 80.3255 18.3286C79.7538 18.9004 78.9784 19.2217 78.1699 19.2217V19.1652ZM75.3473 16.3417H78.1699V15.9464H75.3473V16.3417ZM10.3715 22.6664H2.63766C2.48431 22.6226 2.34941 22.53 2.25336 22.4026C2.15732 22.2753 2.10536 22.1201 2.10536 21.9605C2.10536 21.801 2.15732 21.6458 2.25336 21.5184C2.34941 21.3911 2.48431 21.2985 2.63766 21.2547H10.1457L10.936 20.69C8.95392 19.8743 6.86079 19.3603 4.72637 19.1652C4.55214 19.1249 4.39862 19.0223 4.29467 18.8767C4.19072 18.7312 4.14349 18.5526 4.16186 18.3747C4.18971 18.2049 4.28102 18.0522 4.4173 17.9473C4.55357 17.8425 4.7246 17.7934 4.89573 17.81C7.6629 17.9637 10.3533 18.7768 12.7425 20.1817C12.8191 20.2586 12.8778 20.3515 12.9142 20.4538C12.9506 20.556 12.9639 20.6651 12.9531 20.7731C12.9423 20.8812 12.9077 20.9854 12.8517 21.0785C12.7958 21.1715 12.7199 21.251 12.6296 21.3111L10.7102 22.5535C10.5863 22.6085 10.4495 22.628 10.3151 22.61L10.3715 22.6664ZM138.799 28.5394C138.743 28.5444 138.686 28.5444 138.63 28.5394C136.797 27.5875 135.091 26.4115 133.549 25.0382C133.455 24.9652 133.38 24.8706 133.331 24.7624C133.282 24.6542 133.26 24.5357 133.267 24.417C133.276 24.2961 133.318 24.18 133.387 24.0806C133.457 23.9813 133.552 23.9025 133.662 23.8523C136.009 23.1853 138.465 22.9933 140.888 23.2876C141.039 23.3467 141.167 23.4546 141.251 23.5942C141.335 23.7339 141.369 23.8975 141.35 24.0591C141.331 24.2208 141.258 24.3715 141.144 24.4874C141.029 24.6033 140.88 24.6779 140.718 24.6994C138.972 24.5194 137.211 24.5384 135.468 24.7558C136.516 25.6565 137.651 26.451 138.855 27.1276C140.441 26.9382 141.955 26.3559 143.259 25.4335C143.399 25.3663 143.557 25.3454 143.71 25.3738C143.862 25.4022 144.002 25.4785 144.109 25.5915C144.216 25.7046 144.284 25.8487 144.304 26.0029C144.323 26.1572 144.293 26.3137 144.218 26.45C142.641 27.5982 140.793 28.318 138.855 28.5394H138.799ZM54.9683 21.1982H49.2102C49.0569 21.1544 48.922 21.0618 48.8259 20.9344C48.7299 20.807 48.6779 20.6518 48.6779 20.4923C48.6779 20.3328 48.7299 20.1776 48.8259 20.0502C48.922 19.9228 49.0569 19.8302 49.2102 19.7864H54.9683C55.1217 19.8302 55.2566 19.9228 55.3526 20.0502C55.4487 20.1776 55.5006 20.3328 55.5006 20.4923C55.5006 20.6518 55.4487 20.807 55.3526 20.9344C55.2566 21.0618 55.1217 21.1544 54.9683 21.1982V21.1982ZM18.8393 37.5747H18.7828C13.2125 36.7942 7.75476 35.3535 2.52476 33.2829C2.35258 33.2155 2.21422 33.0824 2.14011 32.913C2.06601 32.7435 2.06222 32.5516 2.1296 32.3794C2.19697 32.2071 2.32998 32.0687 2.49937 31.9946C2.66876 31.9205 2.86065 31.9167 3.03282 31.9841C8.12743 33.9561 13.4307 35.3392 18.8393 36.1064C18.9926 36.1502 19.1275 36.2428 19.2236 36.3702C19.3196 36.4976 19.3716 36.6528 19.3716 36.8123C19.3716 36.9718 19.3196 37.127 19.2236 37.2544C19.1275 37.3818 18.9926 37.4744 18.8393 37.5182V37.5747ZM110.517 38.93H41.7586C41.6249 38.8742 41.5106 38.7801 41.4303 38.6595C41.3499 38.5389 41.307 38.3972 41.307 38.2523C41.307 38.1074 41.3499 37.9657 41.4303 37.8451C41.5106 37.7245 41.6249 37.6304 41.7586 37.5747H110.517C110.67 37.6185 110.805 37.7111 110.901 37.8384C110.997 37.9658 111.049 38.121 111.049 38.2805C111.049 38.4401 110.997 38.5953 110.901 38.7226C110.805 38.85 110.67 38.9426 110.517 38.9864V38.93ZM140.436 38.93H133.944C133.81 38.8742 133.696 38.7801 133.616 38.6595C133.535 38.5389 133.493 38.3972 133.493 38.2523C133.493 38.1074 133.535 37.9657 133.616 37.8451C133.696 37.7245 133.81 37.6304 133.944 37.5747H140.436C140.545 37.5434 140.66 37.538 140.772 37.5588C140.884 37.5796 140.989 37.626 141.08 37.6945C141.17 37.7629 141.244 37.8514 141.294 37.9531C141.345 38.0548 141.371 38.1669 141.371 38.2805C141.371 38.3942 141.345 38.5062 141.294 38.6079C141.244 38.7096 141.17 38.7982 141.08 38.8666C140.989 38.935 140.884 38.9815 140.772 39.0023C140.66 39.0231 140.545 39.0176 140.436 38.9864V38.93ZM50.0006 34.1299C49.8958 34.1348 49.7912 34.1172 49.6938 34.0782C49.5964 34.0393 49.5085 33.9799 49.4361 33.9041C46.0942 29.9325 43.9416 25.0975 43.2264 19.9558C43.0006 17.697 45.7102 15.3252 46.049 15.0429C46.1997 14.9258 46.3902 14.8722 46.5799 14.8932C46.7696 14.9143 46.9437 15.0085 47.0651 15.1558C47.1214 15.226 47.1632 15.3066 47.1881 15.3931C47.2129 15.4796 47.2203 15.5702 47.2098 15.6595C47.1993 15.7489 47.1711 15.8353 47.1269 15.9136C47.0826 15.9919 47.0233 16.0607 46.9522 16.1158C46.2748 16.6805 44.5812 18.4876 44.6941 19.7864C45.3844 24.6241 47.3965 29.1773 50.5086 32.9441C50.6397 33.0808 50.7129 33.2629 50.7129 33.4523C50.7129 33.6417 50.6397 33.8238 50.5086 33.9605C50.3815 34.0663 50.2223 34.126 50.057 34.1299H50.0006Z" fill="#53B175"/>
<path d="M91.6618 38.9284H91.6053C91.5163 38.9213 91.4295 38.8966 91.35 38.8558C91.2705 38.815 91.1998 38.7588 91.1421 38.6906C91.0844 38.6224 91.0407 38.5434 91.0137 38.4582C90.9866 38.373 90.9766 38.2833 90.9844 38.1943C90.9844 38.0813 92.4521 25.9402 92.3392 22.3825C92.1734 20.2456 91.2762 18.2313 89.7989 16.679C89.6678 16.5423 89.5946 16.3602 89.5946 16.1707C89.5946 15.9813 89.6678 15.7992 89.7989 15.6625C89.9355 15.5314 90.1176 15.4581 90.3069 15.4581C90.4963 15.4581 90.6783 15.5314 90.815 15.6625C92.5441 17.4708 93.5831 19.8293 93.7505 22.326C93.9198 25.9966 92.4521 37.8554 92.3956 38.3637C92.3568 38.5278 92.2626 38.6736 92.129 38.7764C91.9953 38.8793 91.8303 38.9329 91.6618 38.9284V38.9284ZM10.3714 21.9872L12.2908 20.8578C11.3295 20.107 10.2097 19.5856 9.0166 19.3331V22.0437L10.3714 21.9872ZM137.557 27.1825C136.311 26.3353 135.106 25.4308 133.944 24.4719C135.028 24.0753 136.177 23.8838 137.331 23.9072L137.557 27.1825Z" fill="#53B175"/>
<path d="M48.9279 15.6076C48.9272 12.5852 48.7197 9.5664 48.3069 6.57234C47.7424 4.99116 46.444 5.04764 46.0489 6.00763C45.6537 6.96763 44.0166 14.6476 44.0166 14.6476C44.0166 14.6476 44.2989 15.89 48.9843 15.5512L48.9279 15.6076Z" fill="white"/>
<path d="M47.4033 17.0746C43.7904 17.0746 42.7743 15.9451 42.605 14.9287C42.5636 14.7427 42.5636 14.5499 42.605 14.364C43.1466 11.3185 43.8438 8.30281 44.6937 5.32867C44.9087 4.87587 45.2556 4.49872 45.6888 4.24676C46.1221 3.9948 46.6213 3.87981 47.1211 3.91691C47.7236 3.99116 48.2893 4.24699 48.743 4.65045C49.1968 5.0539 49.5171 5.58588 49.6614 6.17573C50.1482 9.27673 50.3935 12.4109 50.3953 15.5499C50.3956 15.9147 50.2547 16.2655 50.0021 16.5287C49.7495 16.7919 49.4049 16.947 49.0404 16.9616C48.4759 17.0746 47.9114 17.0746 47.3469 17.0746H47.4033ZM45.5404 14.0816C46.193 14.1943 46.854 14.2509 47.5163 14.251C47.4755 11.9469 47.3059 9.64681 47.0082 7.36162L45.5404 14.1381V14.0816Z" fill="#53B175"/>
</svg>
