<svg width="157" height="62" viewBox="0 0 157 62" fill="none" xmlns="http://www.w3.org/2000/svg">
<path d="M15.8411 47.7493L10.7604 45.6034L3.98625 43.5705L1.89754 39.3916C1.81539 34.8527 2.822 30.3601 4.83302 26.2904C4.8807 24.6563 5.34722 23.0618 6.18786 21.6599L6.07496 17.1422C10.6995 13.8618 15.5056 10.8453 20.4701 8.10691C19.6338 7.36194 18.8597 6.54982 18.1556 5.67867C34.0613 2.81525 50.2058 1.49149 66.3653 1.72573C74.9228 1.62465 83.4472 2.80477 91.6556 5.22691C93.6314 6.0175 110.002 14.4316 112.26 15.3916C114.898 16.7228 117.711 17.6735 120.615 18.2151C124.115 18.7799 143.76 21.7163 151.833 29.9046C152.7 31.1514 153.19 32.6218 153.244 34.1399C153.944 34.9617 154.342 35.9975 154.373 37.0763C154.043 39.4321 153.515 41.7557 152.793 44.0222C153.425 44.0611 154.05 44.1749 154.656 44.361C154.994 44.5869 154.543 45.9422 153.809 46.281C150.762 47.1706 147.672 47.9057 144.551 48.4834H134.051" fill="white"/>
<path d="M134.218 49.8449C133.843 49.8449 133.484 49.6962 133.22 49.4315C132.955 49.1667 132.806 48.8076 132.806 48.4332C132.806 48.0588 132.955 47.6997 133.22 47.4349C133.484 47.1702 133.843 47.0214 134.218 47.0214H144.718L152.395 45.3273C152.08 45.1899 151.825 44.9419 151.679 44.6299C151.534 44.3179 151.507 43.9634 151.605 43.6332C152.325 41.501 152.854 39.3088 153.185 37.0826C153.125 36.3493 152.828 35.6555 152.339 35.1061C152.11 34.8394 151.99 34.4971 152 34.1461C151.957 32.9317 151.565 31.7553 150.871 30.7579C146.073 25.9014 135.064 21.8355 120.613 19.6332C117.752 19.12 114.978 18.2075 112.371 16.9226L111.806 16.6967L103.226 12.4614C99.2794 10.3995 95.2892 8.42257 91.258 6.53201C83.2262 4.19846 74.8955 3.05689 66.5322 3.14378C51.3163 2.9985 36.115 4.13189 21.0887 6.53201L21.6532 6.98378C21.8119 7.14002 21.9314 7.33161 22.002 7.54291C22.0725 7.7542 22.0921 7.9792 22.059 8.1995C22.026 8.41979 21.9413 8.62915 21.8119 8.81044C21.6825 8.99173 21.5121 9.13982 21.3145 9.2426C16.6196 11.8419 12.0772 14.7077 7.70964 17.8261L7.76609 21.6661C7.78219 22.018 7.66071 22.3623 7.42738 22.6261C6.78578 23.7653 6.43665 25.0459 6.41125 26.3532C6.39948 26.6393 6.30104 26.915 6.129 27.1438C4.31097 30.8483 3.40145 34.9329 3.47577 39.0591L5.16932 42.4473L11.379 44.3108L16.4596 46.5697C16.6596 46.6195 16.8462 46.7125 17.0063 46.8421C17.1665 46.9718 17.2963 47.1349 17.3867 47.3201C17.4771 47.5053 17.5259 47.7081 17.5296 47.9142C17.5333 48.1202 17.4918 48.3246 17.4082 48.5129C17.3245 48.7013 17.2006 48.869 17.0452 49.0043C16.8898 49.1396 16.7067 49.2393 16.5087 49.2963C16.3107 49.3533 16.1026 49.3662 15.8991 49.3342C15.6956 49.3021 15.5015 49.2259 15.3306 49.1108L10.25 46.9649L3.70158 44.9885C3.5075 44.9374 3.32655 44.8455 3.17079 44.7189C3.01504 44.5923 2.88807 44.4339 2.79835 44.2544L0.766091 40.0755C0.664391 39.8836 0.606549 39.6714 0.596737 39.4544C0.517677 34.7707 1.52234 30.1323 3.53222 25.9014C3.63422 24.2764 4.09706 22.6945 4.88706 21.2708L4.77416 17.1485C4.77416 16.9293 4.82517 16.7132 4.92315 16.5171C5.02113 16.3211 5.1634 16.1506 5.33867 16.0191C9.48086 13.0747 13.7569 10.3235 18.1532 7.77436C17.7383 7.37654 17.3604 6.94181 17.0242 6.47554C16.8876 6.28158 16.8021 6.05633 16.7755 5.82057C16.749 5.58482 16.7822 5.34617 16.8723 5.12668C16.9623 4.90719 17.1061 4.71393 17.2905 4.56476C17.475 4.41558 17.694 4.3153 17.9274 4.27319C33.9458 1.39439 50.2023 0.0518284 66.4758 0.263775C75.2079 0.164623 83.9051 1.38302 92.2742 3.87789C93.4032 4.27319 98.0322 6.70142 104.468 9.86378L112.935 14.0991L113.5 14.325C115.859 15.477 118.367 16.2943 120.952 16.7532C129.814 18.1085 145.677 21.4967 152.96 28.8379C153.984 30.1982 154.591 31.8262 154.71 33.5249C155.492 34.5481 155.927 35.7946 155.952 37.0826C155.752 39.0377 155.354 40.9675 154.766 42.8426C155.021 42.9079 155.267 43.0026 155.5 43.1249C155.769 43.2993 155.985 43.5443 156.124 43.8331C156.264 44.1219 156.321 44.4434 156.29 44.7626C156.257 45.3275 156.085 45.8755 155.79 46.3581C155.494 46.8407 155.085 47.2431 154.597 47.5297C151.406 48.4669 148.164 49.2211 144.887 49.7885L134.218 49.8449Z" fill="#53B175"/>
<path d="M75.1661 61.6498C110.646 61.6498 139.408 60.2087 139.408 58.431C139.408 56.6533 110.646 55.2122 75.1661 55.2122C39.6862 55.2122 10.9241 56.6533 10.9241 58.431C10.9241 60.2087 39.6862 61.6498 75.1661 61.6498Z" fill="#ACD3E4"/>
<path d="M27.9175 57.0166C34.7454 57.0166 40.2804 51.4797 40.2804 44.6496C40.2804 37.8194 34.7454 32.2825 27.9175 32.2825C21.0897 32.2825 15.5546 37.8194 15.5546 44.6496C15.5546 51.4797 21.0897 57.0166 27.9175 57.0166Z" fill="#DEDFE0"/>
<path d="M27.9175 58.4838C25.1956 58.4838 22.5347 57.6771 20.2708 56.1655C18.0069 54.654 16.2414 52.5053 15.1972 49.9909C14.1531 47.4764 13.877 44.7088 14.4039 42.0376C14.9309 39.3663 16.2371 36.9111 18.1578 34.9818C20.0786 33.0526 22.5276 31.7359 25.1958 31.1978C27.864 30.6598 30.6317 30.9246 33.1496 31.9589C35.6675 32.9931 37.8226 34.7504 39.3429 37.0089C40.8632 39.2673 41.6805 41.9257 41.6916 44.6485C41.6916 48.3029 40.2404 51.8076 37.6573 54.3916C35.0741 56.9756 31.5706 58.4273 27.9175 58.4273V58.4838ZM27.9175 33.6367C25.7538 33.6368 23.6387 34.2779 21.839 35.4792C20.0392 36.6805 18.6355 38.3882 17.805 40.3867C16.9745 42.3852 16.7543 44.5851 17.1723 46.7086C17.5903 48.8322 18.6278 50.7843 20.1538 52.3187C21.6797 53.853 23.6258 54.9008 25.7465 55.3299C27.8672 55.759 30.0674 55.5501 32.0695 54.7295C34.0716 53.909 35.7859 52.5136 36.996 50.7195C38.2061 48.9253 38.8579 46.8128 38.8691 44.6485C38.8691 41.743 37.7152 38.9565 35.6614 36.9019C33.6076 34.8474 30.822 33.6932 27.9175 33.6932V33.6367Z" fill="#53B175"/>
<path d="M27.9241 51.7063C31.8212 51.7063 34.9805 48.546 34.9805 44.6475C34.9805 40.749 31.8212 37.5887 27.9241 37.5887C24.0269 37.5887 20.8676 40.749 20.8676 44.6475C20.8676 48.546 24.0269 51.7063 27.9241 51.7063Z" fill="white"/>
<path d="M21.373 47.4108C20.6895 45.8333 20.605 44.0605 21.1355 42.4251C21.666 40.7897 22.7748 39.4042 24.254 38.5287C25.7332 37.6531 27.481 37.3477 29.1693 37.6698C30.8576 37.9919 32.3703 38.9192 33.4236 40.2779C34.4769 41.6365 34.9983 43.333 34.8899 45.0488C34.7815 46.7647 34.0508 48.382 32.8349 49.5972C31.619 50.8124 30.0016 51.5419 28.2862 51.6488C26.5708 51.7557 24.8754 51.2327 23.5181 50.1778" fill="white"/>
<path d="M27.9202 52.4358C26.1554 52.4461 24.4409 51.8478 23.0654 50.7417C22.9181 50.6203 22.824 50.4462 22.8029 50.2564C22.7818 50.0666 22.8355 49.8761 22.9525 49.7253C23.0076 49.6542 23.0763 49.5947 23.1546 49.5505C23.233 49.5062 23.3193 49.478 23.4086 49.4675C23.498 49.457 23.5885 49.4644 23.675 49.4893C23.7614 49.5141 23.842 49.556 23.9122 49.6123C25.0303 50.5192 26.4243 51.0172 27.8638 51.0241C29.1278 51.0353 30.3666 50.6706 31.423 49.9762C32.4794 49.2819 33.3058 48.2892 33.7973 47.1243C34.2888 45.9593 34.4232 44.6745 34.1835 43.433C33.9438 42.1914 33.3407 41.0492 32.4509 40.1511C31.561 39.253 30.4245 38.6396 29.1856 38.3888C27.9467 38.138 26.6612 38.261 25.4923 38.7423C24.3234 39.2235 23.3238 40.0413 22.6203 41.0919C21.9168 42.1425 21.5412 43.3784 21.5412 44.6429C21.5379 45.4973 21.7109 46.3431 22.0493 47.1276C22.1073 47.3004 22.099 47.4886 22.0259 47.6556C21.9529 47.8226 21.8203 47.9565 21.6541 48.0311C21.5726 48.0689 21.4845 48.09 21.3948 48.0934C21.3051 48.0967 21.2157 48.0822 21.1316 48.0507C21.0476 48.0192 20.9707 47.9713 20.9053 47.9097C20.8399 47.8482 20.7874 47.7743 20.7509 47.6923C20.0948 46.1487 19.9541 44.4345 20.3497 42.8044C20.7453 41.1744 21.6562 39.7156 22.9468 38.6448C24.2375 37.574 25.8391 36.9483 27.5136 36.8608C29.1881 36.7733 30.8462 37.2285 32.2414 38.159C33.6366 39.0894 34.6944 40.4453 35.2577 42.0252C35.821 43.6051 35.8596 45.3247 35.3679 46.9283C34.8762 48.532 33.8804 49.9341 32.5284 50.9263C31.1765 51.9186 29.5405 52.448 27.8638 52.4358H27.9202Z" fill="#53B175"/>
<path d="M122.419 57.0166C129.246 57.0166 134.782 51.4797 134.782 44.6496C134.782 37.8194 129.246 32.2825 122.419 32.2825C115.591 32.2825 110.056 37.8194 110.056 44.6496C110.056 51.4797 115.591 57.0166 122.419 57.0166Z" fill="#DEDFE0"/>
<path d="M122.419 58.4838C119.697 58.4838 117.036 57.6771 114.772 56.1655C112.508 54.654 110.743 52.5053 109.698 49.9909C108.654 47.4764 108.378 44.7088 108.905 42.0376C109.432 39.3663 110.738 36.9111 112.659 34.9818C114.58 33.0526 117.029 31.7359 119.697 31.1978C122.365 30.6598 125.133 30.9246 127.651 31.9589C130.169 32.9931 132.324 34.7504 133.844 37.0089C135.364 39.2673 136.182 41.9257 136.193 44.6485C136.193 48.3029 134.742 51.8076 132.158 54.3916C129.575 56.9756 126.072 58.4273 122.419 58.4273V58.4838ZM122.419 33.6367C120.255 33.6368 118.14 34.2779 116.34 35.4792C114.54 36.6805 113.137 38.3882 112.306 40.3867C111.476 42.3852 111.255 44.5851 111.673 46.7086C112.091 48.8322 113.129 50.7843 114.655 52.3187C116.181 53.853 118.127 54.9008 120.248 55.3299C122.368 55.759 124.568 55.5501 126.571 54.7295C128.573 53.909 130.287 52.5136 131.497 50.7195C132.707 48.9253 133.359 46.8128 133.37 44.6485C133.37 41.743 132.216 38.9565 130.163 36.9019C128.109 34.8474 125.323 33.6932 122.419 33.6932V33.6367Z" fill="#53B175"/>
<path d="M122.416 51.7063C126.313 51.7063 129.473 48.546 129.473 44.6475C129.473 40.749 126.313 37.5887 122.416 37.5887C118.519 37.5887 115.36 40.749 115.36 44.6475C115.36 48.546 118.519 51.7063 122.416 51.7063Z" fill="white"/>
<path d="M129.472 44.6515C129.462 46.172 128.96 47.6484 128.043 48.861C127.126 50.0736 125.842 50.9576 124.382 51.3813C122.922 51.805 121.365 51.7458 119.941 51.2125C118.518 50.6793 117.305 49.7004 116.482 48.4217C115.659 47.143 115.272 45.6328 115.376 44.1159C115.481 42.5989 116.073 41.1563 117.063 40.0028C118.053 38.8493 119.39 38.0466 120.873 37.714C122.356 37.3815 123.907 37.537 125.295 38.1574" fill="white"/>
<path d="M122.42 52.436C120.354 52.436 118.373 51.6149 116.912 50.1535C115.451 48.692 114.63 46.7099 114.63 44.643C114.63 42.5762 115.451 40.5941 116.912 39.1326C118.373 37.6711 120.354 36.8501 122.42 36.8501C123.51 36.849 124.588 37.08 125.582 37.5277C125.671 37.5636 125.752 37.6182 125.818 37.6877C125.885 37.7573 125.936 37.8402 125.968 37.9311C126 38.0219 126.013 38.1186 126.004 38.2146C125.996 38.3106 125.968 38.4037 125.92 38.4877C125.836 38.6439 125.698 38.7642 125.532 38.8265C125.366 38.8888 125.183 38.8888 125.017 38.8266C124.203 38.4531 123.317 38.2604 122.42 38.2619C121.159 38.2619 119.925 38.6361 118.876 39.3373C117.827 40.0385 117.01 41.0351 116.527 42.2011C116.044 43.3671 115.918 44.6501 116.164 45.8879C116.41 47.1258 117.018 48.2628 117.91 49.1552C118.802 50.0476 119.939 50.6554 121.176 50.9016C122.413 51.1478 123.696 51.0215 124.862 50.5385C126.027 50.0555 127.023 49.2376 127.724 48.1882C128.425 47.1389 128.799 45.9051 128.799 44.643C128.768 44.5338 128.763 44.4188 128.784 44.3071C128.804 44.1954 128.851 44.09 128.919 43.9993C128.988 43.9086 129.076 43.835 129.178 43.7843C129.28 43.7337 129.392 43.7073 129.505 43.7073C129.619 43.7073 129.731 43.7337 129.832 43.7843C129.934 43.835 130.023 43.9086 130.091 43.9993C130.159 44.09 130.206 44.1954 130.227 44.3071C130.247 44.4188 130.242 44.5338 130.211 44.643C130.211 46.7099 129.39 48.692 127.929 50.1535C126.468 51.6149 124.487 52.436 122.42 52.436V52.436ZM110.904 50.5725H45.985C45.6107 50.5725 45.2517 50.4237 44.987 50.159C44.7224 49.8942 44.5737 49.5351 44.5737 49.1607C44.5737 48.7863 44.7224 48.4272 44.987 48.1624C45.2517 47.8977 45.6107 47.7489 45.985 47.7489H110.904C111.279 47.7489 111.638 47.8977 111.902 48.1624C112.167 48.4272 112.316 48.7863 112.316 49.1607C112.316 49.5351 112.167 49.8942 111.902 50.159C111.638 50.4237 111.279 50.5725 110.904 50.5725Z" fill="#53B175"/>
<path d="M111.805 20.9287C109.547 19.9687 93.1759 11.5546 91.1437 10.764C82.9534 8.34744 74.4484 7.16738 65.9098 7.26284L36.3292 8.6746L35.7646 14.1522C38.3237 16.3158 41.5593 17.5146 44.9098 17.5405L73.1356 20.364C76.1276 20.5899 111.749 20.9287 111.749 20.9287H111.805Z" fill="#DEDFE0"/>
<path d="M111.803 22.3408C110.335 22.3408 76.1255 21.9455 73.0771 21.7761L44.6255 18.9525C40.9164 18.9057 37.3487 17.5223 34.5771 15.0561C34.4571 14.9073 34.3699 14.7347 34.3212 14.5498C34.2726 14.3649 34.2636 14.1718 34.2949 13.9831L34.8594 8.50548C34.8956 8.18849 35.0381 7.89311 35.2636 7.6675C35.4892 7.44189 35.7844 7.29935 36.1013 7.26313L65.7949 5.85136C74.5271 5.75135 83.2244 6.96977 91.5933 9.46548C92.7223 9.91725 97.3513 12.289 103.787 15.5078L112.255 19.6867C112.555 19.8146 112.801 20.0426 112.952 20.3319C113.104 20.6212 113.15 20.9539 113.083 21.2735C113.017 21.593 112.841 21.8796 112.587 22.0845C112.333 22.2894 112.016 22.3999 111.69 22.3973L111.803 22.3408ZM37.1739 13.5314C39.5068 15.0392 42.1913 15.9148 44.9642 16.0725L73.19 18.8961C75.4481 19.0655 95.2062 19.3478 105.537 19.4608L102.545 17.9925L90.5771 12.0631C82.5453 9.72959 74.2146 8.58801 65.8513 8.6749L37.5126 9.91725L37.1739 13.5314Z" fill="#53B175"/>
<path d="M68.8984 38.9418C68.7132 38.9424 68.5346 38.8728 68.3985 38.7472C68.2624 38.6215 68.1788 38.4489 68.1646 38.2642C67.4683 26.0085 65.9025 13.8179 63.4791 1.78419C63.4607 1.60623 63.508 1.4277 63.6119 1.28212C63.7159 1.13654 63.8694 1.03394 64.0436 0.993602C64.2303 0.959964 64.4229 0.999989 64.5807 1.10528C64.7386 1.21057 64.8496 1.37293 64.8904 1.55831C67.3197 13.6671 68.8855 25.9333 69.5759 38.2642C69.5764 38.4495 69.5069 38.6282 69.3812 38.7643C69.2556 38.9005 69.0831 38.9841 68.8984 38.9983V38.9418ZM41.4065 23.2995H35.592C35.4386 23.2557 35.3037 23.1631 35.2077 23.0357C35.1116 22.9083 35.0597 22.7531 35.0597 22.5936C35.0597 22.4341 35.1116 22.2789 35.2077 22.1515C35.3037 22.0241 35.4386 21.9315 35.592 21.8877H41.3501C41.5034 21.9315 41.6383 22.0241 41.7344 22.1515C41.8304 22.2789 41.8824 22.4341 41.8824 22.5936C41.8824 22.7531 41.8304 22.9083 41.7344 23.0357C41.6383 23.1631 41.5034 23.2557 41.3501 23.2995H41.4065ZM76.5759 25.7277H70.8178C70.6645 25.6839 70.5295 25.5913 70.4335 25.4639C70.3375 25.3366 70.2855 25.1814 70.2855 25.0218C70.2855 24.8623 70.3375 24.7071 70.4335 24.5797C70.5295 24.4524 70.6645 24.3598 70.8178 24.316H76.5759C76.7292 24.3598 76.8641 24.4524 76.9602 24.5797C77.0562 24.7071 77.1082 24.8623 77.1082 25.0218C77.1082 25.1814 77.0562 25.3366 76.9602 25.4639C76.8641 25.5913 76.7292 25.6839 76.5759 25.7277V25.7277ZM100.85 22.4524H104.971C105.411 22.4527 105.833 22.282 106.149 21.9764C106.465 21.6708 106.65 21.2542 106.665 20.8148C106.65 20.3753 106.465 19.9588 106.149 19.6532C105.833 19.3476 105.411 19.1769 104.971 19.1771H100.85V22.4524Z" fill="#53B175"/>
<path d="M104.914 23.8609H100.793C100.419 23.8609 100.06 23.7122 99.7953 23.4474C99.5307 23.1827 99.382 22.8236 99.382 22.4492V19.1739C99.382 18.7995 99.5307 18.4404 99.7953 18.1756C100.06 17.9108 100.419 17.7621 100.793 17.7621H104.914C105.73 17.7621 106.513 18.0864 107.09 18.6635C107.667 19.2407 107.991 20.0235 107.991 20.8398C107.991 21.656 107.667 22.4388 107.09 23.016C106.513 23.5932 105.73 23.9174 104.914 23.9174V23.8609ZM102.205 21.0374H104.914V20.6421H102.205V21.0374ZM36.0433 3.13623L35.4788 0.707995C35.4788 0.707995 39.2046 0.595054 39.9949 2.74094" fill="#53B175"/>
<path d="M36.0454 3.87353C35.8866 3.86554 35.7346 3.80615 35.6125 3.70431C35.4903 3.60246 35.4045 3.46367 35.368 3.30882L34.8035 0.88059C34.7871 0.775163 34.7938 0.667425 34.8233 0.564875C34.8527 0.462326 34.9042 0.36743 34.974 0.2868C35.0439 0.206169 35.1305 0.14174 35.2278 0.0979992C35.325 0.0542588 35.4307 0.0322585 35.5374 0.0335299C35.7632 0.0335299 39.7148 0.0335316 40.7309 2.57471C40.7671 2.65969 40.7855 2.75116 40.785 2.84352C40.7846 2.93588 40.7653 3.02717 40.7282 3.11178C40.6912 3.1964 40.6373 3.27255 40.5698 3.33557C40.5023 3.39859 40.4227 3.44714 40.3357 3.47824C40.163 3.53629 39.9748 3.52797 39.8079 3.45491C39.6409 3.38184 39.5071 3.24925 39.4325 3.08294C38.9809 1.95353 37.4567 1.61471 36.4406 1.50177L36.7793 3.02647C36.8042 3.11953 36.809 3.21684 36.7934 3.3119C36.7777 3.40696 36.742 3.4976 36.6886 3.57776C36.6352 3.65792 36.5653 3.72576 36.4836 3.77677C36.4019 3.82777 36.3102 3.86076 36.2148 3.87353C36.1585 3.88007 36.1017 3.88007 36.0454 3.87353V3.87353ZM41.4083 17.5959C41.2137 17.5959 41.027 17.5185 40.8894 17.3809C40.7518 17.2432 40.6745 17.0565 40.6745 16.8618V8.22177C40.6433 8.11251 40.6378 7.99751 40.6586 7.8858C40.6794 7.77409 40.7258 7.66874 40.7942 7.57803C40.8626 7.48732 40.9511 7.41373 41.0528 7.36306C41.1545 7.31238 41.2665 7.28601 41.3801 7.28601C41.4937 7.28601 41.6057 7.31238 41.7074 7.36306C41.8091 7.41373 41.8976 7.48732 41.966 7.57803C42.0344 7.66874 42.0808 7.77409 42.1016 7.8858C42.1224 7.99751 42.1169 8.11251 42.0857 8.22177V16.9182C42.0863 17.1035 42.0168 17.2822 41.8911 17.4184C41.7655 17.5545 41.593 17.6381 41.4083 17.6524V17.5959ZM153.408 35.3841C153.315 35.404 153.219 35.404 153.126 35.3841L143.529 31.1488C142.062 30.4147 134.723 25.8406 134.497 25.6712C134.386 25.5865 134.302 25.472 134.254 25.3411C134.206 25.2102 134.196 25.0683 134.226 24.9321C134.255 24.7958 134.323 24.6708 134.421 24.5717C134.519 24.4726 134.643 24.4034 134.779 24.3724C139.967 24.6773 145.092 25.6646 150.021 27.3088C150.156 27.3939 150.26 27.5205 150.316 27.6697C150.373 27.8189 150.379 27.9824 150.335 28.1356C150.29 28.2887 150.197 28.4232 150.069 28.5185C149.941 28.6139 149.786 28.665 149.626 28.6641C145.635 27.4286 141.56 26.485 137.433 25.8406L144.207 29.9065L153.691 34.0288C153.82 34.1075 153.923 34.2246 153.983 34.3638C154.044 34.5031 154.06 34.6577 154.029 34.8063C153.998 34.955 153.921 35.0904 153.81 35.1939C153.699 35.2973 153.559 35.3638 153.408 35.3841V35.3841Z" fill="#53B175"/>
<path d="M143.867 30.5305C142.4 29.7964 134.835 25.0529 134.835 25.0529C136.926 24.9906 139.016 25.2187 141.045 25.7305L143.867 30.5305ZM145.448 45.4952C145.281 45.4843 145.123 45.4168 145 45.3038C144.877 45.1909 144.796 45.0393 144.771 44.874C144.755 44.7849 144.756 44.6935 144.776 44.6051C144.796 44.5167 144.833 44.4332 144.886 44.3595C144.939 44.2858 145.005 44.2234 145.083 44.176C145.16 44.1286 145.246 44.0971 145.335 44.0835L152.9 43.2929C152.99 43.2761 153.083 43.2797 153.172 43.3033C153.261 43.3269 153.344 43.37 153.414 43.4295C153.484 43.4889 153.54 43.5632 153.578 43.647C153.616 43.7308 153.635 43.822 153.634 43.914C153.65 44.0032 153.648 44.0946 153.628 44.183C153.608 44.2714 153.571 44.3549 153.518 44.4286C153.466 44.5023 153.399 44.5647 153.322 44.6121C153.244 44.6595 153.159 44.691 153.069 44.7046L145.561 45.4952H145.448ZM35.5932 15.5658C35.3073 15.554 35.0316 15.4556 34.8029 15.2835C33.544 14.3943 32.0936 13.814 30.569 13.5894L12.4481 14.4364C12.1036 14.4921 11.7508 14.4183 11.4576 14.2291C11.1644 14.0398 10.9517 13.7487 10.8605 13.4118C10.7693 13.0749 10.806 12.7162 10.9637 12.4048C11.1214 12.0935 11.3887 11.8516 11.7142 11.7258C17.9963 11.0618 24.3084 10.7226 30.6255 10.7094C32.7386 10.9291 34.76 11.6874 36.4965 12.9117C36.7334 13.0895 36.9084 13.3373 36.9968 13.6202C37.0851 13.903 37.0822 14.2065 36.9885 14.4876C36.8949 14.7687 36.7152 15.0131 36.4749 15.1864C36.2346 15.3596 35.9459 15.4529 35.6497 15.4529L35.5932 15.5658ZM6.23838 22.3423C6.09573 22.3057 5.96741 22.2269 5.87008 22.1164C5.77276 22.0058 5.71095 21.8685 5.69268 21.7223C5.67441 21.5761 5.70054 21.4278 5.76766 21.2967C5.83478 21.1655 5.93978 21.0576 6.06903 20.987C7.84523 20.5554 9.66141 20.3094 11.4884 20.2529L20.5206 20.5917L21.9319 20.027L8.15774 16.187C7.97242 16.1462 7.81011 16.0352 7.70486 15.8773C7.59961 15.7193 7.55959 15.5267 7.59322 15.3399C7.64588 15.1529 7.77052 14.9944 7.93983 14.8991C8.10914 14.8038 8.30931 14.7796 8.49645 14.8317L24.3029 19.2364C24.4577 19.2729 24.5964 19.3587 24.6982 19.481C24.8001 19.6032 24.8594 19.7552 24.8674 19.9141C24.8674 20.059 24.8245 20.2007 24.7442 20.3213C24.6638 20.4419 24.5495 20.536 24.4158 20.5917L20.9158 21.947C20.8253 21.9808 20.73 21.9999 20.6335 22.0035C20.5206 22.0035 13.69 21.6646 11.4319 21.6646C9.72019 21.7224 8.01835 21.9494 6.35129 22.3423C6.29516 22.3508 6.23806 22.3508 6.18193 22.3423H6.23838Z" fill="#53B175"/>
<path d="M16.0627 21.093L20.8046 21.3189L24.3046 19.9071L16.4014 17.6483L16.0627 21.093ZM110.055 44.246H40.224C40.0706 44.2021 39.9357 44.1095 39.8397 43.9822C39.7436 43.8548 39.6917 43.6996 39.6917 43.5401C39.6917 43.3805 39.7436 43.2253 39.8397 43.098C39.9357 42.9706 40.0706 42.878 40.224 42.8342H110.111C110.264 42.878 110.399 42.9706 110.495 43.098C110.591 43.2253 110.643 43.3805 110.643 43.5401C110.643 43.6996 110.591 43.8548 110.495 43.9822C110.399 44.1095 110.264 44.2021 110.111 44.246H110.055ZM15.7804 42.8342H15.6111L1.89333 40.1801C1.73672 40.1148 1.60756 39.9973 1.52783 39.8475C1.44809 39.6977 1.42269 39.5249 1.45596 39.3585C1.48924 39.192 1.57912 39.0423 1.71032 38.9347C1.84152 38.8271 2.00593 38.7683 2.17558 38.7683L15.8933 41.4789C16.0226 41.5495 16.1276 41.6574 16.1947 41.7886C16.2618 41.9197 16.2879 42.068 16.2697 42.2142C16.2514 42.3604 16.1896 42.4977 16.0923 42.6083C15.9949 42.7188 15.8666 42.7976 15.724 42.8342H15.7804Z" fill="#53B175"/>
</svg>
